<?xml version="1.0" encoding="UTF-8" standalone="no"?>
<!DOCTYPE svg PUBLIC "-//W3C//DTD SVG 20010904//EN"
              "http://www.w3.org/TR/2001/REC-SVG-20010904/DTD/svg10.dtd">

<svg xmlns="http://www.w3.org/2000/svg"
     width="7.33333in" height="3.15in"
     viewBox="0 0 2200 945">
  <path id="Selection"
        fill="#86cff4" stroke="black" stroke-width="1"
        d="M 476.00,19.21
           C 476.00,19.21 502.00,19.21 502.00,19.21
             502.00,19.21 515.00,19.96 515.00,19.96
             549.36,21.46 582.89,27.14 616.00,36.58
             616.00,36.58 647.00,46.05 647.00,46.05
             733.93,77.65 810.15,136.12 864.26,211.00
             894.97,253.51 917.08,301.70 931.42,352.00
             939.74,381.17 944.97,410.76 947.09,441.00
             947.09,441.00 948.00,451.00 948.00,451.00
             948.00,451.00 949.00,485.00 949.00,485.00
             949.00,485.00 948.00,499.00 948.00,499.00
             947.88,524.21 940.60,564.33 934.12,589.00
             895.42,736.24 786.42,854.32 643.00,905.31
             617.80,914.27 587.44,921.32 561.00,925.42
             549.02,927.28 532.94,929.86 521.00,930.00
             521.00,930.00 499.00,931.00 499.00,931.00
             499.00,931.00 483.00,931.00 483.00,931.00
             483.00,931.00 465.00,930.00 465.00,930.00
             465.00,930.00 430.00,926.13 430.00,926.13
             399.27,921.81 364.06,912.88 335.00,902.05
             289.51,885.10 251.31,863.42 213.00,833.58
             124.62,764.71 63.14,663.58 44.59,553.00
             44.59,553.00 38.91,504.00 38.91,504.00
             38.91,504.00 38.00,494.00 38.00,494.00
             38.00,494.00 38.00,455.00 38.00,455.00
             38.02,440.12 41.25,418.01 43.58,403.00
             50.19,360.40 63.32,319.17 81.31,280.00
             92.47,255.69 111.55,225.43 127.63,204.00
             140.65,186.63 150.18,175.81 164.91,160.00
             164.91,160.00 174.00,150.01 174.00,150.01
             216.89,107.67 278.03,67.98 335.00,47.69
             364.43,37.21 395.07,28.83 426.00,24.27
             426.00,24.27 462.00,20.17 462.00,20.17
             462.00,20.17 476.00,19.21 476.00,19.21 Z
           M 1147.00,327.14
           C 1147.00,327.14 1164.00,327.14 1164.00,327.14
             1164.00,327.14 1177.00,327.14 1177.00,327.14
             1190.05,327.02 1211.71,331.46 1224.00,335.95
             1233.09,339.27 1242.49,343.07 1250.00,349.32
             1261.36,358.79 1282.18,384.06 1263.00,396.01
             1247.59,405.60 1232.84,385.60 1219.00,377.86
             1196.71,365.39 1167.38,362.87 1143.00,370.14
             1125.69,375.31 1111.22,390.47 1111.00,409.00
             1111.00,409.00 1111.00,413.00 1111.00,413.00
             1111.37,444.35 1148.35,445.60 1171.00,448.28
             1208.06,452.68 1245.68,455.20 1269.41,489.00
             1273.35,494.62 1276.30,500.41 1278.28,507.00
             1280.02,512.79 1281.93,522.01 1282.00,528.00
             1282.28,551.99 1278.89,570.38 1262.57,588.99
             1252.43,600.55 1234.37,611.62 1220.00,617.19
             1197.80,625.79 1178.48,627.27 1155.00,627.00
             1123.27,626.63 1091.69,611.05 1073.44,585.00
             1069.58,579.50 1062.99,568.60 1062.18,562.00
             1060.47,548.09 1070.80,536.47 1085.00,537.52
             1091.41,537.99 1098.09,539.87 1102.96,544.21
             1108.73,549.35 1112.56,558.47 1119.09,564.83
             1133.90,579.26 1151.34,586.45 1172.00,585.99
             1199.77,585.36 1231.12,568.79 1232.91,538.00
             1233.10,534.66 1232.60,532.25 1232.13,529.00
             1229.16,508.30 1217.61,499.85 1199.00,493.22
             1177.64,485.60 1147.97,486.47 1125.00,481.72
             1125.00,481.72 1110.00,477.34 1110.00,477.34
             1101.25,474.54 1094.20,471.68 1087.00,465.68
             1051.91,436.40 1055.77,377.32 1089.00,348.29
             1102.28,336.69 1120.70,330.79 1138.00,328.30
             1138.00,328.30 1147.00,327.14 1147.00,327.14 Z
           M 1341.00,327.52
           C 1344.37,326.97 1350.76,326.54 1354.00,327.52
             1366.53,331.27 1367.35,346.38 1368.09,357.00
             1368.09,357.00 1369.00,369.00 1369.00,369.00
             1369.00,369.00 1369.00,383.00 1369.00,383.00
             1369.00,383.00 1370.00,398.00 1370.00,398.00
             1370.00,398.00 1370.00,434.00 1370.00,434.00
             1370.00,434.00 1369.00,449.00 1369.00,449.00
             1369.00,449.00 1369.00,488.00 1369.00,488.00
             1369.06,492.12 1369.43,496.65 1374.04,498.22
             1379.57,500.10 1385.62,492.50 1389.17,489.13
             1389.17,489.13 1397.96,481.00 1397.96,481.00
             1397.96,481.00 1424.00,454.17 1424.00,454.17
             1430.10,448.66 1438.17,441.84 1446.00,439.21
             1448.55,438.35 1452.38,437.03 1455.00,437.83
             1459.07,439.06 1462.78,444.28 1464.48,448.00
             1465.74,450.75 1466.80,453.95 1466.39,457.00
             1465.51,463.61 1460.38,470.91 1456.33,476.00
             1446.08,488.91 1432.63,499.43 1421.00,511.00
             1416.97,515.01 1404.88,525.61 1404.62,531.00
             1404.46,534.26 1406.98,536.80 1409.04,539.00
             1409.04,539.00 1422.01,552.17 1422.01,552.17
             1422.01,552.17 1452.00,582.00 1452.00,582.00
             1458.02,588.05 1465.28,596.04 1465.90,605.00
             1466.42,612.37 1462.22,622.49 1454.00,623.57
             1450.64,624.01 1445.06,622.10 1442.00,620.68
             1427.49,613.93 1405.20,589.07 1393.00,577.00
             1389.15,573.20 1379.76,563.19 1374.04,564.47
             1366.12,566.25 1369.23,583.99 1369.68,590.00
             1369.96,593.76 1369.02,596.38 1368.44,600.00
             1367.06,608.57 1366.65,616.73 1358.98,622.57
             1351.46,628.31 1338.23,626.63 1332.65,618.96
             1328.66,613.49 1327.01,602.68 1327.00,596.00
             1327.00,596.00 1327.00,393.00 1327.00,393.00
             1327.00,393.00 1327.81,345.00 1327.81,345.00
             1329.55,336.25 1331.90,330.45 1341.00,327.52 Z
           M 2150.00,331.52
           C 2162.56,329.54 2171.52,336.76 2174.18,349.00
             2177.24,363.06 2176.00,395.08 2176.00,411.00
             2176.00,411.00 2176.00,587.00 2176.00,587.00
             2176.00,587.00 2175.09,597.00 2175.09,597.00
             2174.50,605.36 2174.71,617.56 2167.81,623.44
             2162.31,628.14 2151.03,628.99 2144.00,629.00
             2144.00,629.00 2109.00,629.00 2109.00,629.00
             2109.00,629.00 2099.00,628.09 2099.00,628.09
             2072.75,626.25 2052.01,619.28 2034.18,599.00
             2021.21,584.24 2017.21,563.95 2015.91,545.00
             2015.65,541.12 2014.85,539.29 2015.09,535.00
             2016.66,507.37 2025.11,485.49 2048.00,468.48
             2061.46,458.48 2082.33,453.03 2099.00,453.00
             2099.00,453.00 2119.00,453.00 2119.00,453.00
             2124.85,452.99 2130.45,453.18 2131.93,446.00
             2131.93,446.00 2131.93,440.00 2131.93,440.00
             2131.93,440.00 2131.93,360.00 2131.93,360.00
             2132.17,345.75 2134.72,335.63 2150.00,331.52 Z
           M 1941.00,332.48
           C 1958.75,329.96 1977.88,350.87 1964.66,365.91
             1962.39,368.49 1959.10,370.70 1956.00,372.18
             1952.13,374.02 1949.20,374.13 1945.00,373.98
             1925.11,373.27 1918.12,338.61 1941.00,332.48 Z
           M 1939.00,422.52
           C 1945.76,421.44 1954.58,421.18 1959.87,426.22
             1964.48,430.63 1964.54,436.15 1965.16,442.00
             1965.16,442.00 1966.09,457.00 1966.09,457.00
             1966.09,457.00 1967.00,469.00 1967.00,469.00
             1967.00,469.00 1967.00,580.00 1967.00,580.00
             1967.00,580.00 1965.27,597.00 1965.27,597.00
             1963.70,607.99 1961.87,620.56 1949.00,623.47
             1925.63,628.76 1923.02,594.31 1923.00,579.00
             1923.00,579.00 1923.00,529.00 1923.00,529.00
             1923.00,529.00 1922.00,512.00 1922.00,512.00
             1922.00,512.00 1922.00,459.00 1922.00,459.00
             1922.10,450.78 1924.52,433.11 1930.22,427.13
             1932.93,424.29 1935.38,423.53 1939.00,422.52 Z
           M 1614.00,424.42
           C 1626.34,422.92 1648.28,424.53 1656.44,435.04
             1661.51,441.56 1662.99,454.87 1663.00,463.00
             1663.00,463.00 1663.00,661.00 1663.00,661.00
             1663.00,661.00 1663.00,675.00 1663.00,675.00
             1663.00,688.49 1665.26,715.25 1653.91,724.58
             1651.19,726.82 1648.35,727.52 1645.00,728.19
             1642.31,728.73 1639.76,729.10 1637.00,728.90
             1619.87,727.70 1617.02,706.39 1617.00,693.00
             1617.00,693.00 1617.00,626.00 1617.00,626.00
             1616.99,622.09 1617.25,617.50 1614.35,614.43
             1612.03,611.97 1609.09,612.13 1606.00,611.72
             1606.00,611.72 1589.00,609.91 1589.00,609.91
             1566.12,608.30 1534.35,598.87 1517.00,583.71
             1507.86,575.73 1502.42,566.40 1498.67,555.00
             1496.72,549.07 1493.87,535.00 1494.32,529.00
             1496.74,496.70 1511.02,466.10 1538.00,447.04
             1558.69,432.43 1589.44,427.93 1614.00,424.42 Z
           M 1727.00,427.47
           C 1749.00,424.59 1750.98,450.20 1751.00,466.00
             1751.00,466.00 1751.00,485.00 1751.00,485.00
             1751.00,485.00 1752.00,501.00 1752.00,501.00
             1752.00,501.00 1752.00,521.00 1752.00,521.00
             1752.18,536.39 1755.67,559.43 1764.78,572.00
             1774.75,585.74 1788.43,587.72 1804.00,584.34
             1810.44,582.94 1816.82,580.93 1821.32,575.82
             1829.30,566.75 1830.98,549.69 1831.00,538.00
             1831.00,538.00 1831.00,500.00 1831.00,500.00
             1831.00,500.00 1830.05,490.00 1830.05,490.00
             1830.05,490.00 1830.05,472.00 1830.05,472.00
             1830.05,472.00 1830.91,462.00 1830.91,462.00
             1831.44,454.21 1830.52,445.10 1834.85,438.00
             1841.87,426.50 1859.87,424.42 1868.61,435.04
             1875.48,443.40 1875.59,459.62 1876.04,470.00
             1876.04,470.00 1877.00,483.00 1877.00,483.00
             1877.00,483.00 1877.00,504.00 1877.00,504.00
             1877.00,504.00 1876.04,516.00 1876.04,516.00
             1876.04,516.00 1876.04,532.00 1876.04,532.00
             1876.04,532.00 1874.17,554.00 1874.17,554.00
             1871.83,578.42 1868.37,603.01 1846.00,617.90
             1838.13,623.13 1828.23,626.95 1819.00,628.80
             1812.06,630.19 1798.85,632.23 1792.00,631.96
             1780.57,631.52 1768.91,629.89 1758.00,626.33
             1726.26,615.97 1716.10,591.56 1711.57,561.00
             1710.41,553.14 1709.04,544.95 1708.96,537.00
             1708.96,537.00 1708.96,523.00 1708.96,523.00
             1708.96,523.00 1708.00,511.00 1708.00,511.00
             1708.00,511.00 1708.00,494.00 1708.00,494.00
             1708.00,494.00 1709.00,479.00 1709.00,479.00
             1709.03,461.39 1704.62,432.93 1727.00,427.47 Z
           M 1598.00,477.14
           C 1586.85,478.99 1575.51,480.72 1565.00,485.01
             1557.12,488.24 1552.67,492.21 1547.53,499.00
             1537.76,511.89 1538.74,537.67 1549.21,550.00
             1557.40,559.64 1567.89,563.96 1580.00,566.40
             1587.68,567.95 1597.22,569.92 1605.00,570.00
             1608.35,570.03 1612.65,570.43 1614.99,567.57
             1617.54,564.46 1617.04,557.90 1617.00,554.00
             1617.00,554.00 1616.00,540.00 1616.00,540.00
             1616.00,540.00 1616.00,511.00 1616.00,511.00
             1616.00,511.00 1616.95,501.00 1616.95,501.00
             1616.95,501.00 1616.95,489.00 1616.95,489.00
             1616.90,480.62 1615.99,477.13 1607.00,477.14
             1607.00,477.14 1598.00,477.14 1598.00,477.14 Z
           M 2093.00,491.29
           C 2081.99,493.14 2071.40,498.78 2064.79,508.00
             2052.53,525.09 2052.70,556.67 2066.33,573.00
             2070.80,578.35 2074.64,580.70 2081.00,583.19
             2093.04,587.89 2104.34,588.47 2117.00,587.05
             2120.49,586.66 2127.83,585.91 2130.26,583.30
             2132.35,581.06 2132.00,576.88 2132.00,574.00
             2132.00,574.00 2132.00,506.00 2132.00,506.00
             2132.00,503.05 2132.35,498.98 2130.26,496.65
             2128.15,494.28 2123.04,493.39 2120.00,492.80
             2112.15,491.30 2100.95,490.53 2093.00,491.29 Z" />
  <path id="Selection #3"
        fill="#41b9ef" stroke="none" stroke-width="1"
        d="M 117.00,603.00
           C 117.00,603.00 138.00,620.26 138.00,620.26
             151.85,630.27 162.16,634.85 177.00,642.27
             177.00,642.27 186.00,647.05 186.00,647.05
             186.00,647.05 210.00,653.42 210.00,653.42
             245.62,663.83 279.89,669.06 317.00,669.00
             317.00,669.00 329.00,668.09 329.00,668.09
             351.42,666.55 373.58,663.31 394.00,653.24
             405.68,647.48 417.96,638.02 423.68,626.00
             426.04,621.02 428.09,612.49 427.56,607.00
             427.47,604.28 426.97,602.98 427.56,600.00
             427.40,596.88 428.07,595.51 427.56,592.00
             426.23,570.18 407.76,551.33 391.00,539.16
             379.62,530.90 367.24,523.74 357.00,513.96
             332.57,490.63 312.03,460.25 301.52,428.00
             301.52,428.00 295.80,404.00 295.80,404.00
             293.87,394.36 291.89,380.74 292.00,371.00
             292.26,348.05 300.53,315.51 310.75,295.00
             326.23,263.97 344.22,240.48 372.00,219.24
             426.60,177.49 499.86,168.10 564.00,191.44
             579.05,196.91 593.72,205.48 607.00,214.33
             626.13,227.09 643.02,243.18 656.28,262.00
             661.30,269.12 666.42,276.29 670.51,284.00
             683.33,308.13 692.10,337.78 694.09,365.00
             694.09,365.00 694.97,374.00 694.97,374.00
             694.97,374.00 694.17,382.00 694.17,382.00
             691.49,408.79 683.39,437.16 670.68,461.00
             665.65,470.43 651.74,489.79 644.70,498.00
             637.58,506.31 623.92,519.10 615.00,525.58
             594.43,540.51 571.04,553.76 561.71,579.00
             557.23,591.12 559.89,596.59 559.26,603.00
             559.26,603.00 559.26,611.00 559.26,611.00
             559.75,628.68 574.09,643.66 589.00,651.24
             612.27,663.08 631.31,666.32 657.00,668.09
             657.00,668.09 669.00,669.00 669.00,669.00
             706.92,669.06 741.70,663.91 778.00,652.88
             778.00,652.88 800.00,647.05 800.00,647.05
             800.00,647.05 809.00,642.32 809.00,642.32
             823.01,635.66 836.42,629.07 849.00,619.85
             849.00,619.85 869.00,603.00 869.00,603.00
             867.10,608.15 864.66,611.48 861.67,616.00
             850.06,633.52 836.49,646.99 819.00,658.67
             808.44,665.72 798.62,672.37 787.00,677.69
             762.12,689.08 723.38,698.96 696.00,699.00
             696.00,699.00 679.00,699.00 679.00,699.00
             650.67,698.96 620.40,689.93 594.00,680.31
             594.00,680.31 573.00,670.74 573.00,670.74
             568.19,668.26 564.61,665.49 559.00,665.10
             547.88,664.32 537.88,672.83 537.10,684.00
             537.10,684.00 537.68,695.00 537.68,695.00
             537.28,700.26 536.09,703.73 538.36,709.00
             541.82,717.01 548.66,720.57 556.00,724.25
             568.61,730.57 585.60,737.43 599.00,742.00
             650.44,759.52 704.39,761.26 757.00,748.11
             776.87,743.14 792.41,735.89 811.00,728.00
             806.70,733.95 800.81,738.01 795.00,742.37
             780.41,753.33 776.27,756.17 760.00,764.25
             696.62,795.72 619.82,794.21 557.00,761.74
             543.63,754.83 527.93,741.76 518.67,730.00
             511.25,720.59 507.34,707.13 493.00,707.08
             478.50,707.03 473.65,720.13 466.26,730.00
             458.52,740.32 442.46,755.02 431.00,760.88
             366.89,793.64 290.89,796.61 226.00,764.25
             211.29,756.91 201.88,750.90 189.00,740.60
             184.12,736.69 178.86,732.95 175.00,728.00
             199.78,737.91 212.07,744.18 239.00,750.35
             286.96,761.34 342.65,758.11 389.00,741.41
             401.85,736.78 421.35,729.35 433.00,722.86
             439.79,719.08 445.14,716.69 448.70,709.00
             451.09,702.95 449.54,700.69 448.70,695.00
             448.48,690.86 450.20,688.42 449.88,684.00
             449.30,675.95 441.82,667.42 434.00,665.53
             422.17,662.68 405.42,675.42 394.00,679.68
             367.34,689.63 335.63,698.96 307.00,699.00
             307.00,699.00 290.00,699.00 290.00,699.00
             262.29,698.96 219.74,688.00 195.00,675.63
             180.53,668.40 160.75,655.03 149.00,644.02
             138.46,634.15 122.00,616.55 117.00,603.00 Z
           M 409.00,376.32
           C 398.22,378.74 388.44,384.88 383.38,395.00
             380.77,400.21 380.00,406.25 380.00,412.00
             380.00,416.75 380.70,423.61 382.48,428.00
             387.45,440.25 400.96,448.84 414.00,449.00
             424.42,449.12 431.39,448.37 440.00,441.61
             462.86,423.66 457.06,388.55 430.00,377.93
             423.95,375.55 415.43,375.62 409.00,376.32 Z
           M 562.00,376.32
           C 545.50,380.03 530.89,395.16 532.18,413.00
             533.57,432.18 546.79,448.75 567.00,449.00
             575.52,449.10 581.43,449.22 589.00,444.44
             615.49,427.74 612.36,389.45 583.00,377.93
             576.95,375.55 568.43,375.62 562.00,376.32 Z
           M 442.00,817.00
           C 440.93,821.07 436.96,824.10 434.00,826.99
             426.75,834.06 418.60,840.22 410.00,845.58
             391.62,857.02 368.99,867.25 347.00,867.00
             333.59,866.84 319.90,859.20 308.00,853.25
             308.00,853.25 286.00,841.00 286.00,841.00
             286.00,841.00 306.00,843.00 306.00,843.00
             306.00,843.00 339.00,843.00 339.00,843.00
             339.00,843.00 365.00,840.28 365.00,840.28
             390.96,837.05 419.10,830.03 442.00,817.00 Z
           M 543.00,817.00
           C 574.60,830.59 587.58,835.56 622.00,840.42
             630.38,841.61 639.56,842.99 648.00,843.00
             648.00,843.00 680.00,843.00 680.00,843.00
             685.27,842.99 696.46,840.99 700.00,842.00
             700.00,842.00 652.00,865.22 652.00,865.22
             646.93,866.71 641.25,867.06 636.00,867.00
             611.03,866.71 576.13,848.37 558.00,831.93
             552.50,826.94 547.37,823.10 543.00,817.00 Z" />
  <path id="Selection #2"
        fill="#bde7f9" stroke="none" stroke-width="1"
        d="M 391.00,94.00
           C 393.56,91.09 398.43,91.32 402.08,90.48
             402.08,90.48 437.47,86.22 437.47,86.22
             437.47,86.22 474.00,84.51 474.00,84.51
             474.00,84.51 487.00,85.05 487.00,85.05
             487.00,85.05 501.00,85.05 501.00,85.05
             501.00,85.05 511.00,86.47 511.00,86.47
             511.00,86.47 516.96,86.47 516.96,86.47
             516.96,86.47 536.99,89.10 536.99,89.10
             536.99,89.10 567.00,94.00 567.00,94.00
             567.00,94.00 567.00,96.00 567.00,96.00
             571.78,95.23 580.77,96.08 584.00,100.00
             587.96,99.12 594.49,100.67 597.00,104.00
             603.73,102.54 613.99,107.50 620.42,110.09
             623.46,111.31 625.82,111.43 628.00,114.04
             628.00,114.04 632.00,114.04 632.00,114.04
             632.00,114.04 647.50,120.77 647.50,120.77
             647.50,120.77 649.00,123.00 649.00,123.00
             653.55,122.78 655.51,122.94 658.00,127.00
             665.72,126.49 676.17,133.98 682.83,137.82
             686.38,139.87 689.89,139.51 691.00,144.00
             695.27,143.87 695.96,144.23 698.00,148.00
             698.00,148.00 701.00,147.00 701.00,147.00
             704.31,150.75 711.72,152.08 713.00,157.00
             717.32,157.71 717.99,158.08 720.00,162.00
             720.00,162.00 722.00,161.00 722.00,161.00
             722.00,161.00 722.00,163.00 722.00,163.00
             722.00,163.00 725.00,165.00 725.00,165.00
             730.73,165.69 745.05,176.87 748.00,182.00
             748.00,182.00 750.00,181.00 750.00,181.00
             750.00,181.00 755.00,185.00 755.00,185.00
             755.00,185.00 756.00,189.00 756.00,189.00
             759.48,189.71 759.35,189.87 761.00,193.00
             765.10,193.55 765.87,195.23 767.00,199.00
             771.27,199.04 771.63,200.14 773.00,204.00
             777.25,204.83 779.60,208.00 782.58,211.00
             787.46,215.91 793.98,220.12 796.00,227.00
             800.47,228.03 803.74,232.74 805.00,237.00
             807.84,237.76 807.49,238.15 808.00,241.00
             811.68,241.61 813.52,243.24 814.00,247.00
             818.71,249.39 820.93,252.91 822.00,258.00
             826.98,258.69 830.87,265.26 831.00,270.00
             831.00,270.00 834.00,270.00 834.00,270.00
             834.00,270.00 836.00,273.00 836.00,273.00
             836.00,273.00 839.00,277.00 839.00,277.00
             840.27,284.48 849.12,288.97 849.00,297.00
             849.00,297.00 856.00,304.00 856.00,304.00
             857.06,310.51 863.99,314.46 864.00,323.00
             870.84,327.83 871.53,338.31 877.00,345.00
             877.00,345.00 876.00,348.00 876.00,348.00
             879.24,350.14 879.20,351.25 879.00,355.00
             879.00,355.00 881.00,355.00 881.00,355.00
             881.00,355.00 880.00,357.00 880.00,357.00
             880.00,357.00 883.75,363.17 883.75,363.17
             883.75,363.17 890.94,382.68 890.94,382.68
             890.94,382.68 890.00,385.00 890.00,385.00
             892.65,386.71 895.19,390.03 893.00,393.00
             894.65,395.70 898.23,400.10 896.00,403.00
             896.00,403.00 897.00,408.00 897.00,408.00
             897.00,408.00 899.00,407.00 899.00,407.00
             899.00,407.00 898.00,412.00 898.00,412.00
             898.00,412.00 901.00,413.00 901.00,413.00
             901.00,413.00 903.00,423.00 903.00,423.00
             903.00,423.00 903.00,430.00 903.00,430.00
             903.00,430.00 904.00,434.00 904.00,434.00
             904.00,434.00 906.00,434.00 906.00,434.00
             906.00,434.00 906.00,435.00 906.00,435.00
             906.00,435.00 904.00,435.00 904.00,435.00
             904.00,435.00 907.00,440.00 907.00,440.00
             907.00,440.00 905.00,439.00 905.00,439.00
             909.51,450.99 909.11,453.89 910.83,466.00
             911.35,469.65 912.88,477.78 912.00,481.00
             902.50,459.53 883.78,432.42 864.00,419.70
             848.69,409.86 829.14,405.03 811.00,405.00
             797.49,404.98 775.66,403.68 769.81,419.00
             768.78,421.71 768.04,425.10 768.34,428.00
             768.91,433.53 772.43,438.99 774.69,444.00
             774.69,444.00 781.33,463.00 781.33,463.00
             788.50,484.99 797.73,522.17 798.00,545.00
             798.16,558.81 797.49,580.18 787.32,590.73
             781.40,596.86 759.71,600.82 751.00,602.46
             751.00,602.46 714.00,609.72 714.00,609.72
             696.88,611.90 682.15,612.03 665.00,612.00
             649.15,611.98 629.93,608.16 615.00,602.86
             610.24,601.16 599.57,597.84 601.37,591.00
             602.17,587.99 605.87,584.20 608.01,582.00
             617.90,571.87 618.28,573.21 629.00,566.30
             645.32,555.79 661.89,540.40 674.83,526.00
             710.95,485.80 735.37,428.39 736.16,374.00
             736.16,374.00 736.16,367.00 736.16,367.00
             736.16,367.00 736.16,351.00 736.16,351.00
             735.73,328.55 726.97,293.90 718.60,273.00
             709.11,249.30 694.15,225.36 677.57,206.00
             663.15,189.15 646.42,174.92 628.00,162.67
             628.00,162.67 607.00,149.31 607.00,149.31
             598.25,144.56 589.29,141.05 580.00,137.67
             519.99,115.13 465.93,115.59 406.00,137.67
             406.00,137.67 388.00,144.89 388.00,144.89
             365.53,155.52 341.35,173.06 323.72,190.42
             306.00,207.87 287.60,230.36 276.89,253.00
             267.61,272.61 258.74,294.69 254.45,316.00
             241.69,379.39 254.80,445.22 290.67,499.00
             308.21,525.30 334.16,551.77 361.00,568.58
             367.79,572.83 375.52,577.80 380.67,584.00
             382.74,586.49 385.65,590.54 384.74,593.96
             383.21,599.70 374.86,601.79 370.00,603.34
             354.53,608.30 338.32,611.97 322.00,612.00
             322.00,612.00 316.00,612.00 316.00,612.00
             316.00,612.00 305.00,612.68 305.00,612.68
             305.00,612.68 254.00,606.92 254.00,606.92
             254.00,606.92 234.00,602.28 234.00,602.28
             225.44,600.85 217.25,598.73 209.00,596.00
             205.12,594.72 201.40,593.83 198.48,590.78
             192.09,584.10 189.04,565.18 189.00,556.00
             188.91,537.13 191.05,521.50 194.39,503.00
             194.39,503.00 196.23,492.00 196.23,492.00
             196.23,492.00 203.72,466.00 203.72,466.00
             203.72,466.00 212.89,442.00 212.89,442.00
             215.74,435.92 219.39,431.25 218.34,424.00
             215.91,407.13 197.76,405.02 184.00,405.00
             147.73,404.94 120.41,413.16 97.24,443.01
             97.24,443.01 73.00,482.00 73.00,482.00
             73.00,482.00 73.00,456.00 73.00,456.00
             73.03,439.60 77.50,409.49 80.80,393.00
             90.92,342.37 105.86,302.34 132.60,258.00
             139.23,247.01 150.49,229.72 158.46,220.00
             158.46,220.00 164.61,213.29 164.61,213.29
             168.73,208.44 173.45,200.24 180.00,199.00
             180.00,199.00 193.00,185.00 193.00,185.00
             193.00,185.00 197.00,185.00 197.00,185.00
             199.43,180.02 204.27,175.24 210.00,175.00
             211.01,170.14 214.53,169.43 218.25,166.63
             218.25,166.63 235.72,154.50 235.72,154.50
             239.57,151.88 242.24,149.47 247.00,149.00
             247.00,149.00 258.00,141.00 258.00,141.00
             258.00,141.00 260.00,142.00 260.00,142.00
             263.11,137.37 280.50,128.01 286.00,128.00
             288.42,124.75 291.05,124.00 295.00,124.00
             297.17,120.65 299.42,120.24 303.00,118.80
             308.66,116.53 315.98,112.23 322.00,113.00
             324.26,109.39 332.99,107.59 337.09,106.07
             337.09,106.07 371.00,96.63 371.00,96.63
             376.86,95.17 385.07,92.91 391.00,94.00 Z
           M 377.00,96.00
           C 377.00,96.00 376.00,96.00 376.00,96.00
             376.00,96.00 377.00,97.00 377.00,97.00
             377.00,97.00 377.00,96.00 377.00,96.00 Z
           M 580.00,98.00
           C 580.00,98.00 579.00,98.00 579.00,98.00
             579.00,98.00 580.00,99.00 580.00,99.00
             580.00,99.00 580.00,98.00 580.00,98.00 Z
           M 365.00,99.00
           C 365.00,99.00 364.00,99.00 364.00,99.00
             364.00,99.00 365.00,100.00 365.00,100.00
             365.00,100.00 365.00,99.00 365.00,99.00 Z
           M 354.00,102.00
           C 354.00,102.00 353.00,102.00 353.00,102.00
             353.00,102.00 354.00,103.00 354.00,103.00
             354.00,103.00 354.00,102.00 354.00,102.00 Z
           M 347.00,104.00
           C 347.00,104.00 346.00,104.00 346.00,104.00
             346.00,104.00 347.00,105.00 347.00,105.00
             347.00,105.00 347.00,104.00 347.00,104.00 Z
           M 601.00,104.00
           C 601.00,104.00 600.00,104.00 600.00,104.00
             600.00,104.00 601.00,105.00 601.00,105.00
             601.00,105.00 601.00,104.00 601.00,104.00 Z
           M 344.00,105.00
           C 344.00,105.00 343.00,105.00 343.00,105.00
             343.00,105.00 344.00,106.00 344.00,106.00
             344.00,106.00 344.00,105.00 344.00,105.00 Z
           M 341.00,106.00
           C 341.00,106.00 340.00,106.00 340.00,106.00
             340.00,106.00 341.00,107.00 341.00,107.00
             341.00,107.00 341.00,106.00 341.00,106.00 Z
           M 338.00,107.00
           C 338.00,107.00 337.00,107.00 337.00,107.00
             337.00,107.00 338.00,108.00 338.00,108.00
             338.00,108.00 338.00,107.00 338.00,107.00 Z
           M 614.00,108.00
           C 614.00,108.00 613.00,108.00 613.00,108.00
             613.00,108.00 614.00,109.00 614.00,109.00
             614.00,109.00 614.00,108.00 614.00,108.00 Z
           M 317.00,114.00
           C 317.00,114.00 316.00,114.00 316.00,114.00
             316.00,114.00 317.00,115.00 317.00,115.00
             317.00,115.00 317.00,114.00 317.00,114.00 Z
           M 636.00,116.00
           C 636.00,116.00 635.00,116.00 635.00,116.00
             635.00,116.00 636.00,117.00 636.00,117.00
             636.00,117.00 636.00,116.00 636.00,116.00 Z
           M 310.00,117.00
           C 310.00,117.00 309.00,117.00 309.00,117.00
             309.00,117.00 310.00,118.00 310.00,118.00
             310.00,118.00 310.00,117.00 310.00,117.00 Z
           M 641.00,118.00
           C 641.00,118.00 640.00,118.00 640.00,118.00
             640.00,118.00 641.00,119.00 641.00,119.00
             641.00,119.00 641.00,118.00 641.00,118.00 Z
           M 292.00,125.00
           C 292.00,125.00 291.00,125.00 291.00,125.00
             291.00,125.00 292.00,126.00 292.00,126.00
             292.00,126.00 292.00,125.00 292.00,125.00 Z
           M 285.00,128.00
           C 285.00,128.00 284.00,128.00 284.00,128.00
             284.00,128.00 285.00,129.00 285.00,129.00
             285.00,129.00 285.00,128.00 285.00,128.00 Z
           M 283.00,129.00
           C 283.00,129.00 282.00,129.00 282.00,129.00
             282.00,129.00 283.00,130.00 283.00,130.00
             283.00,130.00 283.00,129.00 283.00,129.00 Z
           M 694.00,144.00
           C 694.00,144.00 693.00,144.00 693.00,144.00
             693.00,144.00 694.00,145.00 694.00,145.00
             694.00,145.00 694.00,144.00 694.00,144.00 Z
           M 250.00,147.00
           C 250.00,147.00 249.00,147.00 249.00,147.00
             249.00,147.00 250.00,148.00 250.00,148.00
             250.00,148.00 250.00,147.00 250.00,147.00 Z
           M 245.00,150.00
           C 245.00,150.00 244.00,150.00 244.00,150.00
             244.00,150.00 245.00,151.00 245.00,151.00
             245.00,151.00 245.00,150.00 245.00,150.00 Z
           M 242.00,152.00
           C 242.00,152.00 241.00,152.00 241.00,152.00
             241.00,152.00 242.00,153.00 242.00,153.00
             242.00,153.00 242.00,152.00 242.00,152.00 Z
           M 710.00,154.00
           C 710.00,154.00 709.00,154.00 709.00,154.00
             709.00,154.00 710.00,155.00 710.00,155.00
             710.00,155.00 710.00,154.00 710.00,154.00 Z
           M 228.00,161.00
           C 228.00,161.00 227.00,161.00 227.00,161.00
             227.00,161.00 228.00,162.00 228.00,162.00
             228.00,162.00 228.00,161.00 228.00,161.00 Z
           M 226.00,162.00
           C 226.00,162.00 225.00,162.00 225.00,162.00
             225.00,162.00 226.00,163.00 226.00,163.00
             226.00,163.00 226.00,162.00 226.00,162.00 Z
           M 296.00,323.00
           C 296.00,323.00 301.52,301.00 301.52,301.00
             306.59,285.29 319.55,260.50 329.04,247.00
             334.03,239.90 340.03,233.35 345.91,227.00
             345.91,227.00 353.04,219.09 353.04,219.09
             376.79,195.96 408.07,178.50 440.00,169.85
             453.04,166.32 466.40,163.02 480.00,162.84
             480.00,162.84 491.00,162.84 491.00,162.84
             491.00,162.84 501.00,162.84 501.00,162.84
             560.57,163.69 618.45,195.77 653.87,243.00
             661.20,252.77 668.24,262.85 673.30,274.00
             679.52,287.68 685.30,301.37 688.87,316.00
             690.01,320.67 692.61,328.59 691.00,333.00
             691.00,333.00 684.00,305.00 684.00,305.00
             684.00,305.00 677.00,294.00 677.00,294.00
             677.00,294.00 678.00,291.00 678.00,291.00
             673.43,288.26 672.84,284.44 670.25,280.00
             670.25,280.00 657.04,259.58 657.04,259.58
             653.75,255.39 648.99,251.32 648.00,246.00
             644.56,244.07 643.79,243.95 643.00,240.00
             637.51,238.38 632.70,233.48 631.00,228.00
             625.92,227.47 619.14,221.59 617.00,217.00
             617.00,217.00 615.00,218.00 615.00,218.00
             609.84,212.71 596.76,205.35 590.00,201.59
             585.90,199.31 580.61,198.06 578.00,194.00
             573.02,194.06 570.51,192.11 566.00,190.34
             566.00,190.34 548.28,184.31 548.28,184.31
             534.84,180.05 515.09,176.98 501.00,177.00
             482.19,177.02 476.34,176.19 457.00,180.00
             457.00,180.00 444.00,182.59 444.00,182.59
             444.00,182.59 432.00,186.05 432.00,186.05
             430.05,186.42 429.82,186.23 428.00,186.05
             428.00,186.05 425.00,187.00 425.00,187.00
             425.00,187.00 422.00,188.00 422.00,188.00
             420.02,191.06 418.50,191.06 415.00,191.00
             415.00,191.00 390.00,205.20 390.00,205.20
             390.00,205.20 378.00,211.00 378.00,211.00
             378.00,211.00 373.00,214.00 373.00,214.00
             372.17,217.40 371.35,217.51 368.00,218.00
             366.23,221.59 365.98,222.22 362.00,223.00
             359.31,228.57 355.67,230.26 351.29,234.41
             346.47,238.98 342.04,245.40 336.00,248.00
             335.59,251.55 335.39,251.83 332.00,253.00
             332.00,253.00 329.00,257.00 329.00,257.00
             328.86,261.04 328.15,263.07 324.00,264.00
             324.00,264.00 324.00,268.00 324.00,268.00
             324.00,268.00 322.00,267.00 322.00,267.00
             321.04,273.42 319.11,273.96 316.27,279.17
             313.89,283.54 312.16,289.04 308.00,292.00
             308.09,294.98 308.35,295.10 306.00,297.00
             306.00,297.00 307.00,299.00 307.00,299.00
             307.00,299.00 305.00,299.00 305.00,299.00
             305.07,302.98 304.29,306.53 301.00,309.00
             301.25,313.47 299.68,320.18 296.00,323.00 Z
           M 206.00,177.00
           C 206.00,177.00 205.00,177.00 205.00,177.00
             205.00,177.00 206.00,178.00 206.00,178.00
             206.00,178.00 206.00,177.00 206.00,177.00 Z
           M 201.00,181.00
           C 201.00,181.00 200.00,181.00 200.00,181.00
             200.00,181.00 201.00,182.00 201.00,182.00
             201.00,182.00 201.00,181.00 201.00,181.00 Z
           M 753.00,185.00
           C 753.00,185.00 752.00,185.00 752.00,185.00
             752.00,185.00 753.00,186.00 753.00,186.00
             753.00,186.00 753.00,185.00 753.00,185.00 Z
           M 191.00,189.00
           C 191.00,189.00 190.00,189.00 190.00,189.00
             190.00,189.00 191.00,190.00 191.00,190.00
             191.00,190.00 191.00,189.00 191.00,189.00 Z
           M 402.00,197.00
           C 402.00,197.00 401.00,197.00 401.00,197.00
             401.00,197.00 402.00,198.00 402.00,198.00
             402.00,198.00 402.00,197.00 402.00,197.00 Z
           M 179.00,199.00
           C 179.00,199.00 178.00,199.00 178.00,199.00
             178.00,199.00 179.00,200.00 179.00,200.00
             179.00,200.00 179.00,199.00 179.00,199.00 Z
           M 598.00,204.00
           C 598.00,204.00 597.00,204.00 597.00,204.00
             597.00,204.00 598.00,205.00 598.00,205.00
             598.00,205.00 598.00,204.00 598.00,204.00 Z
           M 386.00,206.00
           C 386.00,206.00 385.00,206.00 385.00,206.00
             385.00,206.00 386.00,207.00 386.00,207.00
             386.00,207.00 386.00,206.00 386.00,206.00 Z
           M 383.00,208.00
           C 383.00,208.00 382.00,208.00 382.00,208.00
             382.00,208.00 383.00,209.00 383.00,209.00
             383.00,209.00 383.00,208.00 383.00,208.00 Z
           M 606.00,209.00
           C 606.00,209.00 605.00,209.00 605.00,209.00
             605.00,209.00 606.00,210.00 606.00,210.00
             606.00,210.00 606.00,209.00 606.00,209.00 Z
           M 380.00,210.00
           C 380.00,210.00 379.00,210.00 379.00,210.00
             379.00,210.00 380.00,211.00 380.00,211.00
             380.00,211.00 380.00,210.00 380.00,210.00 Z
           M 377.00,212.00
           C 377.00,212.00 376.00,212.00 376.00,212.00
             376.00,212.00 377.00,213.00 377.00,213.00
             377.00,213.00 377.00,212.00 377.00,212.00 Z
           M 787.00,216.00
           C 787.00,216.00 786.00,216.00 786.00,216.00
             786.00,216.00 787.00,217.00 787.00,217.00
             787.00,217.00 787.00,216.00 787.00,216.00 Z
           M 370.00,217.00
           C 370.00,217.00 369.00,217.00 369.00,217.00
             369.00,217.00 370.00,218.00 370.00,218.00
             370.00,218.00 370.00,217.00 370.00,217.00 Z
           M 788.00,217.00
           C 788.00,217.00 787.00,217.00 787.00,217.00
             787.00,217.00 788.00,218.00 788.00,218.00
             788.00,218.00 788.00,217.00 788.00,217.00 Z
           M 789.00,218.00
           C 789.00,218.00 788.00,218.00 788.00,218.00
             788.00,218.00 789.00,219.00 789.00,219.00
             789.00,219.00 789.00,218.00 789.00,218.00 Z
           M 790.00,219.00
           C 790.00,219.00 789.00,219.00 789.00,219.00
             789.00,219.00 790.00,220.00 790.00,220.00
             790.00,220.00 790.00,219.00 790.00,219.00 Z
           M 365.00,221.00
           C 365.00,221.00 364.00,221.00 364.00,221.00
             364.00,221.00 365.00,222.00 365.00,222.00
             365.00,222.00 365.00,221.00 365.00,221.00 Z
           M 792.00,221.00
           C 792.00,221.00 791.00,221.00 791.00,221.00
             791.00,221.00 792.00,222.00 792.00,222.00
             792.00,222.00 792.00,221.00 792.00,221.00 Z
           M 793.00,222.00
           C 793.00,222.00 792.00,222.00 792.00,222.00
             792.00,222.00 793.00,223.00 793.00,223.00
             793.00,223.00 793.00,222.00 793.00,222.00 Z
           M 360.00,225.00
           C 360.00,225.00 359.00,225.00 359.00,225.00
             359.00,225.00 360.00,226.00 360.00,226.00
             360.00,226.00 360.00,225.00 360.00,225.00 Z
           M 800.00,230.00
           C 800.00,230.00 799.00,230.00 799.00,230.00
             799.00,230.00 800.00,231.00 800.00,231.00
             800.00,231.00 800.00,230.00 800.00,230.00 Z
           M 801.00,231.00
           C 801.00,231.00 800.00,231.00 800.00,231.00
             800.00,231.00 801.00,232.00 801.00,232.00
             801.00,232.00 801.00,231.00 801.00,231.00 Z
           M 649.00,247.00
           C 649.00,247.00 648.00,247.00 648.00,247.00
             648.00,247.00 649.00,248.00 649.00,248.00
             649.00,248.00 649.00,247.00 649.00,247.00 Z
           M 656.00,255.00
           C 656.00,255.00 655.00,255.00 655.00,255.00
             655.00,255.00 656.00,256.00 656.00,256.00
             656.00,256.00 656.00,255.00 656.00,255.00 Z
           M 328.00,260.00
           C 328.00,260.00 327.00,260.00 327.00,260.00
             327.00,260.00 328.00,261.00 328.00,261.00
             328.00,261.00 328.00,260.00 328.00,260.00 Z
           M 312.00,285.00
           C 312.00,285.00 311.00,285.00 311.00,285.00
             311.00,285.00 312.00,286.00 312.00,286.00
             312.00,286.00 312.00,285.00 312.00,285.00 Z
           M 311.00,287.00
           C 311.00,287.00 310.00,287.00 310.00,287.00
             310.00,287.00 311.00,288.00 311.00,288.00
             311.00,288.00 311.00,287.00 311.00,287.00 Z
           M 308.00,293.00
           C 308.00,293.00 307.00,293.00 307.00,293.00
             307.00,293.00 308.00,294.00 308.00,294.00
             308.00,294.00 308.00,293.00 308.00,293.00 Z
           M 849.00,294.00
           C 849.00,294.00 848.00,294.00 848.00,294.00
             848.00,294.00 849.00,295.00 849.00,295.00
             849.00,295.00 849.00,294.00 849.00,294.00 Z
           M 680.00,295.00
           C 680.00,295.00 679.00,295.00 679.00,295.00
             679.00,295.00 680.00,296.00 680.00,296.00
             680.00,296.00 680.00,295.00 680.00,295.00 Z
           M 852.00,299.00
           C 852.00,299.00 851.00,299.00 851.00,299.00
             851.00,299.00 852.00,300.00 852.00,300.00
             852.00,300.00 852.00,299.00 852.00,299.00 Z
           M 686.00,309.00
           C 686.00,309.00 685.00,309.00 685.00,309.00
             685.00,309.00 686.00,310.00 686.00,310.00
             686.00,310.00 686.00,309.00 686.00,309.00 Z
           M 864.00,321.00
           C 864.00,321.00 863.00,321.00 863.00,321.00
             863.00,321.00 864.00,322.00 864.00,322.00
             864.00,322.00 864.00,321.00 864.00,321.00 Z
           M 873.00,339.00
           C 873.00,339.00 872.00,339.00 872.00,339.00
             872.00,339.00 873.00,340.00 873.00,340.00
             873.00,340.00 873.00,339.00 873.00,339.00 Z
           M 874.00,341.00
           C 874.00,341.00 873.00,341.00 873.00,341.00
             873.00,341.00 874.00,342.00 874.00,342.00
             874.00,342.00 874.00,341.00 874.00,341.00 Z
           M 693.00,342.00
           C 693.00,342.00 694.00,342.00 694.00,342.00
             694.00,342.00 693.00,343.00 693.00,343.00
             693.00,343.00 693.00,342.00 693.00,342.00 Z
           M 889.00,378.00
           C 889.00,378.00 888.00,378.00 888.00,378.00
             888.00,378.00 889.00,379.00 889.00,379.00
             889.00,379.00 889.00,378.00 889.00,378.00 Z
           M 890.00,381.00
           C 890.00,381.00 889.00,381.00 889.00,381.00
             889.00,381.00 890.00,382.00 890.00,382.00
             890.00,382.00 890.00,381.00 890.00,381.00 Z
           M 892.00,387.00
           C 892.00,387.00 891.00,387.00 891.00,387.00
             891.00,387.00 892.00,388.00 892.00,388.00
             892.00,388.00 892.00,387.00 892.00,387.00 Z
           M 901.00,417.00
           C 901.00,417.00 900.00,417.00 900.00,417.00
             900.00,417.00 901.00,418.00 901.00,418.00
             901.00,418.00 901.00,417.00 901.00,417.00 Z
           M 907.00,444.00
           C 907.00,444.00 908.00,444.00 908.00,444.00
             908.00,444.00 907.00,445.00 907.00,445.00
             907.00,445.00 907.00,444.00 907.00,444.00 Z
           M 147.00,559.00
           C 142.08,554.90 135.34,545.61 132.01,540.00
             117.28,515.14 113.72,485.26 135.04,463.00
             137.71,460.21 140.80,457.08 144.00,454.91
             151.00,450.17 158.86,448.53 167.00,447.00
             157.56,474.21 147.04,513.27 147.00,542.00
             147.00,542.00 147.00,559.00 147.00,559.00 Z
           M 821.00,448.00
           C 828.24,448.34 832.60,449.97 839.00,453.26
             855.48,461.73 865.57,479.62 865.99,498.00
             866.24,509.37 863.31,519.55 859.20,530.00
             859.20,530.00 855.48,539.00 855.48,539.00
             852.41,544.62 843.84,554.77 839.00,559.00
             839.00,533.93 838.54,523.89 833.55,499.00
             833.55,499.00 827.27,471.00 827.27,471.00
             827.27,471.00 821.00,448.00 821.00,448.00 Z
           M 912.00,482.00
           C 912.00,482.00 913.00,482.00 913.00,482.00
             913.00,482.00 912.00,483.00 912.00,483.00
             912.00,483.00 912.00,482.00 912.00,482.00 Z
           M 882.00,571.00
           C 882.00,571.00 883.00,571.00 883.00,571.00
             883.00,571.00 882.00,572.00 882.00,572.00
             882.00,572.00 882.00,571.00 882.00,571.00 Z
           M 881.00,573.00
           C 882.15,577.27 879.48,582.93 877.94,587.00
             873.19,599.49 868.61,600.76 859.58,609.16
             854.74,613.67 848.53,619.63 842.00,621.00
             841.04,624.92 838.78,625.63 835.00,626.00
             832.51,629.96 829.60,631.19 825.00,631.00
             824.05,634.49 822.26,634.18 819.00,634.00
             817.89,638.01 813.64,638.38 810.00,638.00
             806.57,643.64 800.72,644.93 794.85,646.50
             794.85,646.50 762.00,656.15 762.00,656.15
             758.42,657.18 748.85,660.32 746.00,658.00
             740.89,661.96 728.30,663.62 722.00,662.00
             718.37,666.11 702.29,665.24 696.55,665.85
             677.61,667.88 650.66,667.92 632.17,663.49
             625.93,662.00 619.12,662.42 614.00,658.00
             610.97,660.39 603.90,656.91 602.00,654.00
             595.25,654.58 591.93,651.72 586.59,648.17
             579.81,643.64 571.85,639.65 570.00,631.00
             570.00,631.00 568.00,632.00 568.00,632.00
             565.76,626.34 562.64,623.27 564.00,617.00
             561.53,614.80 561.54,612.15 562.00,609.00
             565.32,614.08 567.62,618.59 572.04,622.91
             592.42,642.83 632.07,651.96 660.00,652.04
             660.00,652.04 669.00,652.04 669.00,652.04
             672.87,652.35 674.71,653.15 679.00,652.91
             679.00,652.91 691.00,652.00 691.00,652.00
             711.95,651.97 746.66,646.23 767.00,640.58
             767.00,640.58 784.00,635.03 784.00,635.03
             784.00,635.03 799.00,630.90 799.00,630.90
             799.00,630.90 829.00,616.30 829.00,616.30
             847.42,606.19 869.64,590.90 881.00,573.00 Z
           M 105.00,574.00
           C 105.00,574.00 123.00,592.91 123.00,592.91
             130.53,599.93 143.96,608.70 153.00,613.99
             153.00,613.99 178.00,625.98 178.00,625.98
             178.00,625.98 187.00,630.79 187.00,630.79
             187.00,630.79 202.00,635.00 202.00,635.00
             233.90,645.53 267.42,651.61 301.00,652.00
             301.00,652.00 309.00,652.68 309.00,652.68
             309.00,652.68 329.00,652.00 329.00,652.00
             347.51,651.78 378.65,645.28 395.00,636.68
             402.18,632.90 411.42,625.90 416.91,620.00
             416.91,620.00 425.00,610.00 425.00,610.00
             424.47,621.41 419.96,629.94 412.33,638.28
             408.69,642.27 405.70,646.07 400.00,646.00
             400.00,646.00 397.00,648.00 397.00,648.00
             397.00,648.00 395.00,649.00 395.00,649.00
             392.06,654.04 378.70,659.10 373.00,658.00
             371.02,660.10 370.75,659.62 368.00,659.00
             364.76,663.17 351.81,664.17 346.42,664.78
             346.42,664.78 340.09,665.77 340.09,665.77
             340.09,665.77 334.50,665.77 334.50,665.77
             334.50,665.77 327.00,666.95 327.00,666.95
             327.00,666.95 299.00,666.95 299.00,666.95
             299.00,666.95 286.91,665.92 286.91,665.92
             279.47,666.04 267.63,664.19 260.00,663.13
             256.45,662.64 252.45,662.78 250.00,660.00
             245.12,661.16 230.10,659.00 227.00,655.00
             221.54,656.24 217.12,653.94 211.88,652.50
             209.20,651.76 206.86,651.85 206.00,649.00
             200.55,649.82 200.84,648.71 196.01,647.45
             196.01,647.45 189.72,646.37 189.72,646.37
             185.21,645.21 181.22,642.35 177.00,640.43
             160.97,633.14 146.97,625.50 132.99,614.66
             132.99,614.66 113.00,597.00 113.00,597.00
             113.00,597.00 114.00,595.00 114.00,595.00
             109.44,591.94 106.25,579.47 105.00,574.00 Z
           M 837.00,625.00
           C 837.00,625.00 836.00,625.00 836.00,625.00
             836.00,625.00 837.00,626.00 837.00,626.00
             837.00,626.00 837.00,625.00 837.00,625.00 Z
           M 154.00,627.00
           C 154.00,627.00 153.00,627.00 153.00,627.00
             153.00,627.00 154.00,628.00 154.00,628.00
             154.00,628.00 154.00,627.00 154.00,627.00 Z
           M 824.00,632.00
           C 824.00,632.00 823.00,632.00 823.00,632.00
             823.00,632.00 824.00,633.00 824.00,633.00
             824.00,633.00 824.00,632.00 824.00,632.00 Z
           M 822.00,633.00
           C 822.00,633.00 821.00,633.00 821.00,633.00
             821.00,633.00 822.00,634.00 822.00,634.00
             822.00,634.00 822.00,633.00 822.00,633.00 Z
           M 809.00,639.00
           C 809.00,639.00 808.00,639.00 808.00,639.00
             808.00,639.00 809.00,640.00 809.00,640.00
             809.00,640.00 809.00,639.00 809.00,639.00 Z
           M 805.00,641.00
           C 805.00,641.00 804.00,641.00 804.00,641.00
             804.00,641.00 805.00,642.00 805.00,642.00
             805.00,642.00 805.00,641.00 805.00,641.00 Z
           M 184.00,642.00
           C 184.00,642.00 183.00,642.00 183.00,642.00
             183.00,642.00 184.00,643.00 184.00,643.00
             184.00,643.00 184.00,642.00 184.00,642.00 Z
           M 407.00,642.00
           C 407.00,642.00 406.00,642.00 406.00,642.00
             406.00,642.00 407.00,643.00 407.00,643.00
             407.00,643.00 407.00,642.00 407.00,642.00 Z
           M 802.00,643.00
           C 802.00,643.00 801.00,643.00 801.00,643.00
             801.00,643.00 802.00,644.00 802.00,644.00
             802.00,644.00 802.00,643.00 802.00,643.00 Z
           M 800.00,644.00
           C 800.00,644.00 799.00,644.00 799.00,644.00
             799.00,644.00 800.00,645.00 800.00,645.00
             800.00,645.00 800.00,644.00 800.00,644.00 Z
           M 190.00,645.00
           C 190.00,645.00 189.00,645.00 189.00,645.00
             189.00,645.00 190.00,646.00 190.00,646.00
             190.00,646.00 190.00,645.00 190.00,645.00 Z
           M 403.00,645.00
           C 403.00,645.00 402.00,645.00 402.00,645.00
             402.00,645.00 403.00,646.00 403.00,646.00
             403.00,646.00 403.00,645.00 403.00,645.00 Z
           M 591.00,649.00
           C 591.00,649.00 590.00,649.00 590.00,649.00
             590.00,649.00 591.00,650.00 591.00,650.00
             591.00,650.00 591.00,649.00 591.00,649.00 Z
           M 782.00,649.00
           C 782.00,649.00 781.00,649.00 781.00,649.00
             781.00,649.00 782.00,650.00 782.00,650.00
             782.00,650.00 782.00,649.00 782.00,649.00 Z
           M 779.00,650.00
           C 779.00,650.00 778.00,650.00 778.00,650.00
             778.00,650.00 779.00,651.00 779.00,651.00
             779.00,651.00 779.00,650.00 779.00,650.00 Z
           M 597.00,652.00
           C 597.00,652.00 596.00,652.00 596.00,652.00
             596.00,652.00 597.00,653.00 597.00,653.00
             597.00,653.00 597.00,652.00 597.00,652.00 Z
           M 772.00,652.00
           C 772.00,652.00 771.00,652.00 771.00,652.00
             771.00,652.00 772.00,653.00 772.00,653.00
             772.00,653.00 772.00,652.00 772.00,652.00 Z
           M 760.00,655.00
           C 760.00,655.00 759.00,655.00 759.00,655.00
             759.00,655.00 760.00,656.00 760.00,656.00
             760.00,656.00 760.00,655.00 760.00,655.00 Z
           M 232.00,656.00
           C 232.00,656.00 231.00,656.00 231.00,656.00
             231.00,656.00 232.00,657.00 232.00,657.00
             232.00,657.00 232.00,656.00 232.00,656.00 Z
           M 376.00,657.00
           C 376.00,657.00 375.00,657.00 375.00,657.00
             375.00,657.00 376.00,658.00 376.00,658.00
             376.00,658.00 376.00,657.00 376.00,657.00 Z
           M 611.00,657.00
           C 611.00,657.00 610.00,657.00 610.00,657.00
             610.00,657.00 611.00,658.00 611.00,658.00
             611.00,658.00 611.00,657.00 611.00,657.00 Z
           M 751.00,657.00
           C 751.00,657.00 750.00,657.00 750.00,657.00
             750.00,657.00 751.00,658.00 751.00,658.00
             751.00,658.00 751.00,657.00 751.00,657.00 Z
           M 623.00,660.00
           C 623.00,660.00 622.00,660.00 622.00,660.00
             622.00,660.00 623.00,661.00 623.00,661.00
             623.00,661.00 623.00,660.00 623.00,660.00 Z
           M 258.00,661.00
           C 258.00,661.00 257.00,661.00 257.00,661.00
             257.00,661.00 258.00,662.00 258.00,662.00
             258.00,662.00 258.00,661.00 258.00,661.00 Z
           M 628.00,661.00
           C 628.00,661.00 627.00,661.00 627.00,661.00
             627.00,661.00 628.00,662.00 628.00,662.00
             628.00,662.00 628.00,661.00 628.00,661.00 Z
           M 639.00,663.00
           C 639.00,663.00 638.00,663.00 638.00,663.00
             638.00,663.00 639.00,664.00 639.00,664.00
             639.00,664.00 639.00,663.00 639.00,663.00 Z
           M 341.00,664.00
           C 341.00,664.00 340.00,664.00 340.00,664.00
             340.00,664.00 341.00,665.00 341.00,665.00
             341.00,665.00 341.00,664.00 341.00,664.00 Z
           M 705.00,664.00
           C 705.00,664.00 704.00,664.00 704.00,664.00
             704.00,664.00 705.00,665.00 705.00,665.00
             705.00,665.00 705.00,664.00 705.00,664.00 Z
           M 296.00,665.00
           C 296.00,665.00 295.00,665.00 295.00,665.00
             295.00,665.00 296.00,666.00 296.00,666.00
             296.00,666.00 296.00,665.00 296.00,665.00 Z
           M 328.00,665.00
           C 328.00,665.00 327.00,665.00 327.00,665.00
             327.00,665.00 328.00,666.00 328.00,666.00
             328.00,666.00 328.00,665.00 328.00,665.00 Z
           M 659.00,665.00
           C 659.00,665.00 658.00,665.00 658.00,665.00
             658.00,665.00 659.00,666.00 659.00,666.00
             659.00,666.00 659.00,665.00 659.00,665.00 Z
           M 146.00,694.00
           C 164.47,705.55 183.47,716.42 204.00,723.95
             227.87,732.70 262.60,739.88 288.00,740.00
             288.00,740.00 298.00,740.66 298.00,740.66
             298.00,740.66 308.00,740.00 308.00,740.00
             308.00,740.00 314.00,740.00 314.00,740.00
             328.28,739.83 360.81,733.52 375.00,729.58
             390.42,725.29 405.59,719.72 420.00,712.74
             420.00,712.74 438.00,703.74 438.00,703.74
             438.00,703.74 447.00,699.00 447.00,699.00
             447.00,701.75 447.16,705.36 446.36,707.96
             444.34,714.44 437.77,719.99 431.00,720.00
             428.07,724.56 417.35,729.52 412.00,729.00
             409.86,732.24 408.75,732.20 405.00,732.00
             402.21,735.36 396.25,737.44 392.00,737.00
             388.79,741.19 381.37,741.89 376.42,742.96
             376.42,742.96 367.00,746.10 367.00,746.10
             367.00,746.10 346.83,750.14 346.83,750.14
             336.29,752.20 320.68,753.98 310.00,754.00
             310.00,754.00 296.00,754.82 296.00,754.82
             265.89,752.68 249.83,751.93 220.00,743.42
             210.13,740.60 200.38,736.95 191.00,732.77
             187.18,731.06 183.36,730.50 181.00,727.00
             181.00,727.00 179.00,728.00 179.00,728.00
             179.00,728.00 179.00,726.00 179.00,726.00
             179.00,726.00 175.00,724.00 175.00,724.00
             168.49,723.44 166.49,719.64 162.56,715.00
             155.72,706.91 151.89,703.41 146.00,694.00 Z
           M 837.00,696.00
           C 837.00,696.00 832.58,705.00 832.58,705.00
             832.58,705.00 815.91,722.96 815.91,722.96
             815.91,722.96 811.00,724.00 811.00,724.00
             809.05,726.96 808.49,726.97 805.00,727.00
             802.58,730.76 800.31,731.24 796.00,731.00
             793.91,734.06 791.36,734.52 788.00,735.87
             782.28,738.17 771.95,742.61 766.00,742.00
             763.53,744.98 761.60,744.57 758.00,744.00
             756.84,747.52 752.96,746.70 750.00,746.00
             747.53,749.00 743.72,749.10 740.00,749.75
             740.00,749.75 718.00,752.98 718.00,752.98
             685.44,755.14 671.20,755.28 638.72,749.90
             638.72,749.90 619.00,745.87 619.00,745.87
             615.53,745.01 612.34,744.85 610.00,742.00
             604.87,742.67 595.99,740.46 593.00,736.00
             588.27,736.85 579.70,734.14 577.00,730.00
             572.05,730.51 565.76,728.29 563.00,724.00
             558.72,724.00 556.73,722.67 553.00,720.74
             541.04,714.55 540.11,710.38 539.00,698.00
             539.00,698.00 548.00,703.65 548.00,703.65
             548.00,703.65 560.00,709.75 560.00,709.75
             574.95,717.18 594.94,725.00 611.00,729.57
             611.00,729.57 628.00,733.42 628.00,733.42
             641.55,736.42 660.24,739.98 674.00,740.16
             674.00,740.16 687.00,740.16 687.00,740.16
             687.00,740.16 699.00,740.16 699.00,740.16
             712.70,739.98 726.61,738.05 740.00,735.21
             740.00,735.21 765.00,729.57 765.00,729.57
             790.06,722.42 815.34,710.43 837.00,696.00 Z
           M 446.00,697.00
           C 446.00,697.00 447.00,697.00 447.00,697.00
             447.00,697.00 446.00,698.00 446.00,698.00
             446.00,698.00 446.00,697.00 446.00,697.00 Z
           M 446.00,707.00
           C 446.00,707.00 445.00,707.00 445.00,707.00
             445.00,707.00 446.00,708.00 446.00,708.00
             446.00,708.00 446.00,707.00 446.00,707.00 Z
           M 570.00,727.00
           C 570.00,727.00 569.00,727.00 569.00,727.00
             569.00,727.00 570.00,728.00 570.00,728.00
             570.00,728.00 570.00,727.00 570.00,727.00 Z
           M 184.00,728.00
           C 184.00,728.00 183.00,728.00 183.00,728.00
             183.00,728.00 184.00,729.00 184.00,729.00
             184.00,729.00 184.00,728.00 184.00,728.00 Z
           M 201.00,735.00
           C 201.00,735.00 200.00,735.00 200.00,735.00
             200.00,735.00 201.00,736.00 201.00,736.00
             201.00,736.00 201.00,735.00 201.00,735.00 Z
           M 225.00,743.00
           C 225.00,743.00 224.00,743.00 224.00,743.00
             224.00,743.00 225.00,744.00 225.00,744.00
             225.00,744.00 225.00,743.00 225.00,743.00 Z
           M 232.00,745.00
           C 232.00,745.00 231.00,745.00 231.00,745.00
             231.00,745.00 232.00,746.00 232.00,746.00
             232.00,746.00 232.00,745.00 232.00,745.00 Z
           M 251.00,818.00
           C 251.00,818.00 270.00,822.58 270.00,822.58
             280.76,824.95 302.20,827.98 313.00,828.00
             313.00,828.00 333.00,828.00 333.00,828.00
             358.83,827.96 393.47,819.74 418.00,811.48
             427.12,808.41 440.58,802.37 449.00,797.69
             454.88,794.42 456.44,791.52 463.00,789.00
             460.76,794.17 452.29,809.33 447.83,812.02
             446.12,813.05 445.76,812.81 444.00,813.00
             441.64,816.55 438.75,816.96 435.00,818.56
             428.50,821.33 419.11,826.88 412.00,826.00
             412.00,826.00 409.00,827.00 409.00,827.00
             406.45,830.10 401.65,830.63 397.91,831.78
             387.36,835.01 375.96,837.26 365.00,838.47
             365.00,838.47 349.00,840.96 349.00,840.96
             334.61,842.20 320.41,842.03 306.00,840.96
             298.14,840.57 288.52,840.67 281.00,838.20
             276.65,836.78 271.86,832.93 268.00,830.35
             262.55,826.72 255.39,822.74 251.00,818.00 Z
           M 522.00,789.00
           C 522.00,789.00 541.00,799.69 541.00,799.69
             549.60,804.34 558.79,808.04 568.00,811.31
             621.72,830.41 680.04,833.93 735.00,818.00
             730.44,823.39 721.16,829.05 715.00,832.80
             712.19,834.50 707.43,837.61 704.42,838.45
             695.82,840.85 668.87,842.01 659.00,842.00
             659.00,842.00 645.00,841.08 645.00,841.08
             620.26,839.70 596.53,834.56 573.00,827.05
             565.03,824.51 543.26,816.27 537.51,811.28
             533.71,807.98 524.61,793.88 522.00,789.00 Z
           M 552.00,817.00
           C 552.00,817.00 551.00,817.00 551.00,817.00
             551.00,817.00 552.00,818.00 552.00,818.00
             552.00,818.00 552.00,817.00 552.00,817.00 Z
           M 249.00,817.00
           C 249.00,817.00 250.00,817.00 250.00,817.00
             250.00,817.00 249.00,818.00 249.00,818.00
             249.00,818.00 249.00,817.00 249.00,817.00 Z
           M 492.00,821.00
           C 492.00,821.00 503.61,835.00 503.61,835.00
             503.61,835.00 525.00,857.71 525.00,857.71
             525.00,857.71 554.00,879.80 554.00,879.80
             554.00,879.80 570.00,890.00 570.00,890.00
             570.00,890.00 525.00,895.00 525.00,895.00
             525.00,895.00 508.00,896.00 508.00,896.00
             508.00,896.00 478.00,896.00 478.00,896.00
             478.00,896.00 466.00,895.04 466.00,895.04
             466.00,895.04 455.00,895.04 455.00,895.04
             448.27,894.92 422.53,891.55 417.00,889.00
             449.94,870.03 469.94,852.16 492.00,821.00 Z
           M 421.00,823.00
           C 421.00,823.00 420.00,823.00 420.00,823.00
             420.00,823.00 421.00,824.00 421.00,824.00
             421.00,824.00 421.00,823.00 421.00,823.00 Z" />
    <path id="Selection #1"
        fill="#001018" stroke="none" stroke-width="1"
        d="M 465.00,19.14
           C 465.00,19.14 496.00,19.14 496.00,19.14
             496.00,19.14 513.00,19.14 513.00,19.14
             513.00,19.14 525.00,19.91 525.00,19.91
             548.34,21.54 571.18,25.11 594.00,30.35
             625.97,37.69 643.87,43.48 674.00,56.58
             674.00,56.58 708.00,72.31 708.00,72.31
             708.00,72.31 727.00,83.80 727.00,83.80
             747.29,96.12 766.71,109.22 785.00,124.43
             785.00,124.43 803.00,140.91 803.00,140.91
             840.47,175.82 870.00,213.04 894.69,258.00
             894.69,258.00 905.78,281.00 905.78,281.00
             913.46,297.26 920.71,313.87 926.26,331.00
             926.26,331.00 931.42,350.00 931.42,350.00
             940.01,381.25 945.82,408.55 948.09,441.00
             948.09,441.00 949.00,451.00 949.00,451.00
             949.00,451.00 950.00,485.00 950.00,485.00
             950.00,485.00 949.00,503.00 949.00,503.00
             949.00,503.00 945.27,537.00 945.27,537.00
             941.35,564.21 932.50,601.17 923.31,627.00
             904.34,680.31 872.61,734.95 834.72,776.99
             834.72,776.99 827.30,784.17 827.30,784.17
             827.30,784.17 817.99,795.00 817.99,795.00
             795.85,817.70 765.74,842.11 739.00,859.30
             739.00,859.30 723.00,868.31 723.00,868.31
             723.00,868.31 692.00,885.74 692.00,885.74
             692.00,885.74 669.00,895.43 669.00,895.43
             669.00,895.43 624.00,912.28 624.00,912.28
             624.00,912.28 598.00,918.42 598.00,918.42
             572.55,924.04 550.10,928.26 524.00,930.09
             524.00,930.09 512.00,931.00 512.00,931.00
             512.00,931.00 472.00,931.00 472.00,931.00
             472.00,931.00 462.00,930.09 462.00,930.09
             462.00,930.09 428.00,926.27 428.00,926.27
             392.27,921.01 360.54,912.87 327.00,899.45
             327.00,899.45 292.00,884.74 292.00,884.74
             292.00,884.74 275.00,875.30 275.00,875.30
             239.83,855.95 207.17,832.39 178.17,804.58
             178.17,804.58 169.00,795.00 169.00,795.00
             169.00,795.00 152.17,778.00 152.17,778.00
             152.17,778.00 143.25,767.00 143.25,767.00
             143.25,767.00 129.89,751.00 129.89,751.00
             129.89,751.00 118.11,734.00 118.11,734.00
             99.40,706.72 82.69,677.85 70.45,647.00
             70.45,647.00 62.31,624.00 62.31,624.00
             56.48,607.63 51.18,590.99 47.42,574.00
             47.42,574.00 42.28,545.00 42.28,545.00
             42.28,545.00 41.72,537.00 41.72,537.00
             41.72,537.00 38.00,502.00 38.00,502.00
             38.00,502.00 37.00,483.00 37.00,483.00
             37.00,483.00 37.00,461.00 37.00,461.00
             37.00,461.00 38.00,444.00 38.00,444.00
             38.13,433.60 43.86,393.09 46.21,382.00
             50.48,361.84 56.44,342.40 63.31,323.00
             63.31,323.00 72.43,298.00 72.43,298.00
             109.50,211.04 172.84,137.26 253.00,87.32
             253.00,87.32 290.00,66.26 290.00,66.26
             290.00,66.26 301.00,61.69 301.00,61.69
             301.00,61.69 338.00,45.69 338.00,45.69
             363.81,36.32 401.74,27.29 429.00,23.27
             429.00,23.27 465.00,19.14 465.00,19.14 Z
           M 917.00,494.00
           C 917.00,494.00 917.00,466.00 917.00,466.00
             917.00,466.00 916.00,451.00 916.00,451.00
             915.79,432.99 909.57,391.86 905.35,374.00
             898.88,346.66 886.43,314.57 874.69,289.00
             860.52,258.14 833.75,219.29 811.16,194.00
             811.16,194.00 796.96,178.01 796.96,178.01
             796.96,178.01 788.00,169.91 788.00,169.91
             766.86,150.25 744.53,131.60 720.00,116.23
             684.20,93.79 638.04,73.64 597.00,63.37
             597.00,63.37 567.00,57.75 567.00,57.75
             534.75,52.15 511.66,50.62 479.00,51.00
             479.00,51.00 469.00,52.04 469.00,52.04
             469.00,52.04 460.00,52.04 460.00,52.04
             460.00,52.04 420.00,57.58 420.00,57.58
             420.00,57.58 389.00,63.47 389.00,63.47
             330.24,78.17 270.88,108.40 224.00,146.61
             180.97,181.69 143.64,227.86 117.78,277.00
             117.78,277.00 111.74,290.00 111.74,290.00
             104.44,305.08 97.51,320.11 92.08,336.00
             92.08,336.00 86.58,355.00 86.58,355.00
             86.58,355.00 76.80,393.00 76.80,393.00
             73.36,410.58 71.14,428.16 69.91,446.00
             69.91,446.00 69.00,458.00 69.00,458.00
             69.00,458.00 69.00,494.00 69.00,494.00
             75.30,492.04 75.42,487.52 77.86,482.00
             80.56,475.90 87.01,464.66 90.69,459.00
             107.61,433.01 126.31,414.87 158.00,409.32
             167.91,407.58 177.98,407.98 188.00,408.00
             198.07,408.02 208.41,409.66 213.03,420.00
             214.14,422.47 214.76,425.30 214.44,428.00
             213.90,432.75 210.97,436.75 209.03,441.00
             209.03,441.00 200.02,465.00 200.02,465.00
             191.73,491.79 184.68,528.02 185.00,556.00
             185.13,566.83 188.38,586.44 197.09,593.58
             200.31,596.22 206.91,597.97 211.00,599.33
             211.00,599.33 221.00,602.49 221.00,602.49
             221.00,602.49 230.00,604.13 230.00,604.13
             230.00,604.13 247.00,608.40 247.00,608.40
             256.83,610.38 281.44,613.88 291.00,614.00
             291.00,614.00 308.00,614.68 308.00,614.68
             308.00,614.68 326.00,614.00 326.00,614.00
             342.18,613.97 359.85,610.16 375.00,604.59
             381.34,602.25 390.67,598.65 388.57,590.00
             387.32,584.86 380.04,577.75 376.00,574.47
             376.00,574.47 356.00,560.98 356.00,560.98
             356.00,560.98 337.00,546.00 337.00,546.00
             329.38,539.86 325.26,535.11 318.83,528.00
             318.83,528.00 303.01,510.00 303.01,510.00
             293.53,497.87 280.68,476.14 274.31,462.00
             274.31,462.00 270.58,452.00 270.58,452.00
             261.87,428.74 256.53,408.82 254.04,384.00
             254.04,384.00 254.04,374.00 254.04,374.00
             254.04,374.00 253.04,363.00 253.04,363.00
             253.04,363.00 254.00,348.00 254.00,348.00
             254.14,336.08 258.92,312.74 262.29,301.00
             273.67,261.36 290.20,232.59 317.83,202.00
             317.83,202.00 328.00,191.04 328.00,191.04
             350.34,169.64 379.33,151.60 408.00,140.01
             408.00,140.01 426.00,134.29 426.00,134.29
             452.72,126.62 473.23,123.68 501.00,124.00
             517.46,124.20 539.05,128.53 555.00,132.85
             612.33,148.38 663.33,185.81 695.31,236.00
             705.71,252.33 719.29,281.27 724.25,300.00
             724.25,300.00 727.20,315.00 727.20,315.00
             729.54,326.69 731.94,341.14 732.00,353.00
             732.00,353.00 732.96,368.00 732.96,368.00
             732.96,368.00 731.96,376.00 731.96,376.00
             731.96,376.00 731.96,385.00 731.96,385.00
             729.26,411.92 722.79,438.51 711.22,463.00
             711.22,463.00 698.55,488.00 698.55,488.00
             685.38,510.10 664.71,533.17 645.00,549.57
             645.00,549.57 610.00,574.90 610.00,574.90
             605.45,578.36 598.49,585.17 597.41,591.00
             595.95,598.88 605.21,602.23 611.00,604.42
             626.27,610.21 644.64,613.97 661.00,614.00
             661.00,614.00 694.00,614.00 694.00,614.00
             694.00,614.00 704.00,613.09 704.00,613.09
             722.98,611.70 740.47,607.18 759.00,603.45
             766.45,601.95 785.18,597.58 790.38,592.61
             798.35,585.00 800.98,568.63 801.00,558.00
             801.00,558.00 801.00,542.00 801.00,542.00
             800.97,522.25 794.04,491.13 788.28,472.00
             788.28,472.00 779.15,446.00 779.15,446.00
             777.25,441.53 772.62,432.26 772.20,428.00
             771.85,424.50 772.77,421.04 774.53,418.01
             782.00,405.18 803.08,407.85 816.00,408.00
             838.79,408.27 864.41,420.57 879.91,437.01
             885.28,442.72 890.83,452.28 895.58,459.00
             899.94,465.19 905.60,475.04 908.57,482.00
             910.80,487.20 911.20,492.09 917.00,494.00 Z
           M 886.00,564.00
           C 882.04,566.35 877.90,572.37 874.72,576.00
             869.44,582.03 860.80,591.15 854.83,596.33
             850.62,599.99 846.52,601.61 842.00,604.61
             825.97,615.25 825.24,615.39 808.00,623.31
             808.00,623.31 798.00,628.05 798.00,628.05
             798.00,628.05 785.00,631.66 785.00,631.66
             749.06,642.88 711.72,650.06 674.00,650.00
             674.00,650.00 662.00,648.96 662.00,648.96
             662.00,648.96 652.00,648.96 652.00,648.96
             639.63,647.65 626.94,645.43 615.00,642.00
             592.95,635.67 563.32,621.73 563.00,595.00
             562.93,588.52 563.48,583.10 565.93,577.00
             570.66,565.23 585.79,550.09 596.00,542.75
             596.00,542.75 612.00,532.12 612.00,532.12
             632.89,516.74 653.68,496.44 666.99,474.00
             679.15,453.49 689.21,431.47 694.00,408.00
             697.10,392.79 698.02,376.50 698.00,361.00
             698.00,361.00 697.09,349.00 697.09,349.00
             697.09,349.00 694.39,323.00 694.39,323.00
             686.43,280.79 661.67,239.77 630.00,211.17
             614.08,196.79 594.60,184.80 575.00,176.14
             575.00,176.14 558.00,169.34 558.00,169.34
             548.25,166.22 517.92,160.12 508.00,160.00
             508.00,160.00 480.00,160.00 480.00,160.00
             469.41,160.02 456.34,162.66 446.00,165.12
             446.00,165.12 424.00,170.75 424.00,170.75
             408.91,175.74 382.86,190.30 370.00,199.75
             352.61,212.54 338.04,228.37 325.80,246.00
             321.35,252.41 317.06,258.08 313.31,265.00
             285.03,317.16 280.48,378.26 300.31,434.00
             304.70,446.34 305.85,450.08 312.31,462.00
             325.39,486.14 346.07,511.04 368.00,527.53
             368.00,527.53 390.00,542.49 390.00,542.49
             405.11,553.53 423.10,572.10 423.96,592.00
             424.69,608.74 411.76,623.26 398.00,631.13
             380.37,641.22 350.34,648.76 330.00,649.00
             330.00,649.00 311.00,650.00 311.00,650.00
             311.00,650.00 289.00,649.00 289.00,649.00
             270.09,648.78 235.59,641.41 217.00,636.14
             217.00,636.14 200.00,631.15 200.00,631.15
             200.00,631.15 189.00,628.24 189.00,628.24
             182.68,626.06 158.33,613.62 152.00,609.80
             138.26,601.50 128.75,594.88 117.73,582.91
             113.43,578.24 105.24,565.76 100.00,564.00
             101.00,585.43 117.87,613.96 131.42,630.00
             136.07,635.50 140.72,641.00 146.00,645.91
             178.87,676.49 224.77,694.87 269.00,700.15
             269.00,700.15 291.00,702.00 291.00,702.00
             291.00,702.00 307.00,702.00 307.00,702.00
             334.67,701.96 372.68,692.25 398.00,681.14
             398.00,681.14 412.00,674.89 412.00,674.89
             420.30,670.88 427.67,664.63 437.00,670.34
             451.00,678.92 447.88,693.95 435.00,701.65
             417.72,711.98 378.12,726.11 358.00,730.58
             310.64,741.09 251.36,738.61 206.00,720.80
             194.65,716.34 176.05,708.57 166.00,702.32
             159.30,698.15 144.76,687.03 138.00,686.00
             139.53,692.25 145.98,700.82 150.01,706.00
             159.31,717.94 172.36,731.40 184.00,741.08
             209.95,762.66 244.71,779.34 278.00,785.39
             295.11,788.49 313.64,789.03 331.00,789.00
             331.00,789.00 343.00,788.09 343.00,788.09
             367.81,786.28 393.14,781.97 416.00,771.69
             437.74,761.91 451.98,752.75 467.20,734.00
             467.20,734.00 474.11,725.00 474.11,725.00
             479.17,717.54 483.42,709.20 494.00,710.11
             504.32,710.99 508.44,720.51 513.52,728.00
             513.52,728.00 520.44,737.00 520.44,737.00
             532.91,751.78 550.55,762.70 568.00,770.69
             591.56,781.48 617.34,786.21 643.00,788.09
             643.00,788.09 655.00,789.00 655.00,789.00
             672.71,789.03 690.52,788.56 708.00,785.39
             746.19,778.45 780.02,760.67 809.00,735.15
             822.39,723.37 841.17,703.06 849.00,687.00
             842.56,685.91 837.09,691.61 832.00,695.00
             821.22,702.18 809.89,708.41 798.00,713.58
             779.52,721.61 758.87,728.99 739.00,732.58
             739.00,732.58 702.00,736.09 702.00,736.09
             702.00,736.09 692.00,737.00 692.00,737.00
             692.00,737.00 683.00,737.00 683.00,737.00
             683.00,737.00 673.00,735.96 673.00,735.96
             673.00,735.96 664.00,735.96 664.00,735.96
             633.05,732.88 612.93,727.97 584.00,716.40
             584.00,716.40 553.00,702.57 553.00,702.57
             547.32,699.30 541.49,694.80 540.03,688.00
             537.83,677.81 548.85,667.12 559.00,668.20
             563.38,668.67 569.78,672.70 574.00,674.74
             574.00,674.74 601.00,686.19 601.00,686.19
             623.17,694.75 656.25,701.96 680.00,702.00
             699.22,702.03 718.10,701.03 737.00,697.19
             782.13,688.03 828.84,663.67 857.42,627.00
             871.01,609.57 884.95,586.71 886.00,564.00 Z
           M 1158.00,325.42
           C 1165.33,324.53 1178.63,325.18 1186.00,326.21
             1186.00,326.21 1193.00,327.79 1193.00,327.79
             1193.00,327.79 1200.00,328.47 1200.00,328.47
             1200.00,328.47 1207.00,330.40 1207.00,330.40
             1207.00,330.40 1216.00,331.92 1216.00,331.92
             1227.96,335.02 1246.11,343.52 1254.96,352.09
             1261.61,358.53 1271.48,372.51 1271.96,382.00
             1272.06,384.07 1272.01,387.07 1271.26,389.00
             1268.93,395.03 1259.43,400.50 1253.00,399.78
             1239.84,398.31 1226.43,382.05 1214.00,375.92
             1193.95,366.04 1160.80,364.14 1140.00,372.60
             1123.74,379.22 1112.03,390.65 1112.00,409.00
             1112.00,409.00 1112.00,414.00 1112.00,414.00
             1112.21,429.73 1125.22,438.35 1139.00,442.43
             1139.00,442.43 1149.00,444.36 1149.00,444.36
             1149.00,444.36 1155.00,445.79 1155.00,445.79
             1155.00,445.79 1177.00,447.21 1177.00,447.21
             1177.00,447.21 1184.00,448.79 1184.00,448.79
             1184.00,448.79 1199.00,450.20 1199.00,450.20
             1199.00,450.20 1205.00,451.63 1205.00,451.63
             1205.00,451.63 1214.00,453.04 1214.00,453.04
             1230.62,456.94 1249.62,466.28 1261.98,478.09
             1271.16,486.84 1279.19,502.49 1281.53,515.00
             1281.53,515.00 1282.21,522.00 1282.21,522.00
             1283.05,527.86 1284.22,526.46 1283.98,535.00
             1283.83,540.72 1282.81,540.72 1282.21,545.00
             1282.21,545.00 1281.56,553.00 1281.56,553.00
             1280.27,561.01 1275.52,573.16 1271.19,580.00
             1261.04,596.03 1236.10,613.54 1218.00,619.00
             1218.00,619.00 1203.00,623.72 1203.00,623.72
             1203.00,623.72 1194.00,625.19 1194.00,625.19
             1194.00,625.19 1187.00,626.79 1187.00,626.79
             1175.81,628.40 1164.29,628.13 1153.00,628.00
             1146.55,627.92 1140.25,626.78 1134.00,625.33
             1108.76,619.48 1087.81,607.57 1072.77,586.00
             1071.02,583.50 1063.56,570.47 1062.80,568.00
             1061.84,564.87 1061.99,561.26 1062.00,558.00
             1062.01,549.37 1065.22,541.15 1074.00,537.97
             1077.56,536.67 1083.13,536.96 1087.00,537.00
             1106.65,537.24 1109.86,554.52 1122.00,565.91
             1137.68,580.61 1153.03,585.27 1174.00,585.00
             1179.72,584.92 1179.03,584.41 1184.00,583.36
             1184.00,583.36 1192.00,581.78 1192.00,581.78
             1211.78,575.69 1230.73,561.41 1231.00,539.00
             1231.07,533.09 1231.20,525.62 1229.33,520.00
             1225.67,509.01 1214.29,500.38 1204.00,496.00
             1190.61,490.32 1176.25,489.28 1162.00,487.90
             1162.00,487.90 1154.00,486.21 1154.00,486.21
             1154.00,486.21 1135.00,484.80 1135.00,484.80
             1119.79,482.51 1100.58,477.02 1088.00,468.10
             1082.75,464.37 1078.44,458.28 1074.81,453.00
             1062.32,434.85 1061.97,423.97 1062.00,403.00
             1062.01,398.55 1062.00,396.43 1063.04,392.00
             1065.30,382.35 1067.72,377.69 1072.08,369.00
             1077.99,357.22 1090.33,342.11 1103.00,337.39
             1111.83,334.10 1120.76,330.77 1130.00,328.82
             1130.00,328.82 1138.00,327.63 1138.00,327.63
             1138.00,327.63 1144.00,326.21 1144.00,326.21
             1144.00,326.21 1158.00,325.42 1158.00,325.42 Z
           M 1346.00,325.48
           C 1359.87,324.69 1367.04,335.42 1368.98,348.00
             1368.98,348.00 1368.98,355.00 1368.98,355.00
             1368.98,355.00 1370.08,366.00 1370.08,366.00
             1370.08,366.00 1370.08,486.00 1370.08,486.00
             1370.08,486.00 1370.08,491.98 1370.08,491.98
             1370.61,494.03 1371.34,495.73 1373.23,496.81
             1378.77,499.99 1386.49,490.49 1390.00,487.00
             1390.00,487.00 1407.96,469.00 1407.96,469.00
             1417.71,458.81 1425.77,449.48 1438.00,441.81
             1442.88,438.75 1449.12,436.07 1455.00,437.28
             1463.23,438.97 1467.35,449.45 1466.96,457.00
             1466.55,464.92 1460.96,472.07 1456.20,478.00
             1442.36,495.20 1435.28,498.38 1421.00,512.04
             1417.16,515.71 1408.12,524.10 1406.74,529.00
             1405.09,534.88 1410.30,538.58 1413.84,542.17
             1413.84,542.17 1419.09,548.00 1419.09,548.00
             1419.09,548.00 1432.00,560.09 1432.00,560.09
             1432.00,560.09 1449.00,577.00 1449.00,577.00
             1454.04,582.05 1461.25,589.55 1464.36,596.00
             1468.79,605.23 1467.96,619.58 1457.00,623.99
             1450.84,626.47 1443.41,622.22 1438.00,619.41
             1426.71,613.54 1405.19,590.95 1395.54,580.87
             1391.08,576.20 1386.97,573.03 1382.00,569.02
             1379.79,567.23 1377.21,564.90 1374.11,565.84
             1370.14,567.05 1370.05,571.62 1370.00,575.00
             1369.83,588.03 1371.86,608.09 1363.83,618.96
             1354.65,631.38 1332.36,630.66 1327.68,610.00
             1326.84,606.29 1326.01,595.99 1326.00,592.00
             1326.00,592.00 1327.00,571.00 1327.00,571.00
             1327.00,571.00 1327.00,520.00 1327.00,520.00
             1327.00,520.00 1326.00,503.00 1326.00,503.00
             1326.00,503.00 1326.00,465.00 1326.00,465.00
             1326.00,465.00 1327.00,448.00 1327.00,448.00
             1327.00,448.00 1327.00,369.00 1327.00,369.00
             1327.00,369.00 1326.09,356.00 1326.09,356.00
             1326.61,346.93 1326.67,334.77 1335.09,329.21
             1338.36,327.05 1342.20,326.15 1346.00,325.48 Z
           M 2152.00,330.47
           C 2165.04,329.78 2173.99,338.21 2175.90,351.00
             2175.90,351.00 2175.90,361.00 2175.90,361.00
             2175.90,361.00 2176.96,373.00 2176.96,373.00
             2176.96,373.00 2176.96,390.00 2176.96,390.00
             2176.96,390.00 2176.00,407.00 2176.00,407.00
             2176.00,407.00 2176.00,575.00 2176.00,575.00
             2176.00,585.99 2177.20,600.63 2174.58,611.00
             2173.36,615.83 2173.48,618.91 2169.78,622.89
             2166.43,626.50 2162.52,627.47 2158.00,628.82
             2153.65,630.12 2152.43,629.99 2148.00,630.00
             2148.00,630.00 2103.00,630.00 2103.00,630.00
             2096.33,629.91 2097.04,628.93 2092.00,628.21
             2092.00,628.21 2085.00,627.56 2085.00,627.56
             2066.99,624.66 2048.64,616.51 2036.17,602.99
             2023.22,588.95 2018.33,574.44 2015.72,556.00
             2014.67,548.60 2014.01,549.47 2014.00,541.00
             2013.95,511.48 2022.23,485.74 2047.00,467.60
             2059.95,458.12 2081.00,452.02 2097.00,452.00
             2097.00,452.00 2119.00,452.00 2119.00,452.00
             2129.66,451.98 2130.98,450.66 2131.00,440.00
             2131.00,440.00 2131.00,359.00 2131.00,359.00
             2131.02,343.16 2134.89,333.00 2152.00,330.47 Z
           M 1940.00,331.53
           C 1952.10,329.54 1966.75,337.27 1969.61,350.00
             1973.44,367.03 1954.48,376.87 1945.00,375.78
             1925.10,373.49 1914.66,339.58 1940.00,331.53 Z
           M 416.00,378.59
           C 422.16,378.65 429.82,379.96 435.00,383.47
             456.47,398.00 456.17,431.19 432.00,442.68
             425.55,445.74 421.98,446.08 415.00,446.00
             391.05,445.72 375.84,419.28 385.91,398.00
             392.18,384.76 402.16,379.84 416.00,378.59 Z
           M 569.00,378.59
           C 577.84,378.67 586.32,380.99 592.82,387.30
             606.61,400.67 606.79,427.35 590.96,439.21
             583.86,444.53 576.64,446.10 568.00,446.00
             542.37,445.70 527.61,416.57 540.22,395.00
             546.90,383.57 556.47,379.72 569.00,378.59 Z
           M 1941.00,420.59
           C 1948.30,419.26 1958.92,421.38 1963.16,428.02
             1965.87,432.25 1966.94,440.97 1967.00,446.00
             1967.00,446.00 1967.00,510.00 1967.00,510.00
             1967.00,510.00 1968.00,527.00 1968.00,527.00
             1968.00,527.00 1968.00,563.00 1968.00,563.00
             1968.00,563.00 1967.00,576.00 1967.00,576.00
             1967.00,576.00 1967.00,593.00 1967.00,593.00
             1966.83,607.02 1961.59,626.29 1944.00,624.81
             1926.50,623.34 1922.17,602.41 1922.00,588.00
             1922.00,588.00 1922.00,488.00 1922.00,488.00
             1922.00,488.00 1921.05,478.00 1921.05,478.00
             1921.05,478.00 1921.05,461.00 1921.05,461.00
             1921.05,461.00 1921.83,452.00 1921.83,452.00
             1922.68,443.13 1922.82,431.78 1930.10,425.34
             1933.34,422.48 1936.98,421.74 1941.00,420.59 Z
           M 1609.00,423.51
           C 1621.41,421.57 1644.33,422.22 1653.96,431.13
             1661.21,437.85 1663.99,450.41 1664.00,460.00
             1664.00,460.00 1664.00,698.00 1664.00,698.00
             1663.99,705.50 1661.74,716.91 1657.06,722.91
             1650.79,730.95 1634.04,732.25 1626.21,725.45
             1619.28,719.43 1616.01,704.86 1616.00,696.00
             1616.00,696.00 1616.00,625.00 1616.00,625.00
             1616.00,622.37 1616.22,618.50 1614.83,616.23
             1611.75,611.18 1596.64,612.69 1591.00,611.41
             1591.00,611.41 1573.00,608.64 1573.00,608.64
             1556.19,605.09 1533.47,598.53 1520.00,587.74
             1487.32,561.56 1488.30,518.66 1505.59,484.00
             1505.59,484.00 1511.91,472.00 1511.91,472.00
             1518.33,462.35 1527.61,453.35 1537.00,446.59
             1551.48,436.18 1574.58,429.73 1592.00,426.12
             1592.00,426.12 1609.00,423.51 1609.00,423.51 Z
           M 1726.00,426.61
           C 1747.20,422.59 1751.81,444.90 1752.00,461.00
             1752.00,461.00 1752.00,503.00 1752.00,503.00
             1752.00,503.00 1754.00,529.00 1754.00,529.00
             1754.04,538.34 1755.68,544.16 1757.60,553.00
             1761.18,569.43 1773.08,584.50 1791.00,584.98
             1797.28,585.16 1797.27,584.75 1803.00,583.28
             1808.31,581.93 1811.26,582.46 1815.99,579.06
             1827.63,570.70 1828.98,556.12 1829.00,543.00
             1829.00,543.00 1829.99,526.00 1829.99,526.00
             1829.99,526.00 1829.00,512.00 1829.00,512.00
             1829.00,512.00 1829.00,461.00 1829.00,461.00
             1829.07,455.64 1829.48,455.01 1830.39,450.00
             1830.93,447.00 1831.09,443.90 1832.11,441.00
             1835.37,431.65 1844.30,426.48 1854.00,427.18
             1873.16,428.57 1874.43,441.55 1876.28,457.00
             1876.28,457.00 1878.00,477.00 1878.00,477.00
             1878.00,477.00 1878.00,516.00 1878.00,516.00
             1878.00,516.00 1876.00,551.00 1876.00,551.00
             1875.80,567.44 1869.98,594.07 1859.62,607.00
             1850.16,618.81 1836.39,625.63 1822.00,629.42
             1822.00,629.42 1810.00,631.20 1810.00,631.20
             1810.00,631.20 1803.00,632.89 1803.00,632.89
             1803.00,632.89 1786.00,632.89 1786.00,632.89
             1780.35,632.92 1768.74,630.10 1763.00,628.58
             1754.47,626.32 1749.75,625.10 1742.00,620.19
             1724.90,609.36 1717.01,592.14 1712.68,573.00
             1712.68,573.00 1711.63,566.00 1711.63,566.00
             1710.32,559.38 1709.08,552.80 1708.90,546.00
             1708.90,546.00 1708.90,536.00 1708.90,536.00
             1707.90,529.55 1707.02,532.66 1707.00,523.00
             1707.00,523.00 1707.00,497.00 1707.00,497.00
             1707.00,497.00 1707.00,464.00 1707.00,464.00
             1707.04,455.96 1707.98,457.76 1708.79,452.00
             1708.79,452.00 1709.39,445.00 1709.39,445.00
             1711.47,435.25 1716.78,429.73 1726.00,426.61 Z
           M 171.00,443.00
           C 164.23,443.15 159.34,444.39 153.00,446.69
             143.83,450.03 138.49,453.83 131.95,461.01
             129.06,464.19 125.47,468.29 123.36,472.00
             113.49,489.37 116.68,514.33 124.01,532.00
             128.09,541.83 140.71,561.98 151.00,565.00
             151.00,539.32 150.78,524.72 156.42,499.00
             156.42,499.00 171.00,443.00 171.00,443.00 Z
           M 815.00,444.00
           C 823.77,474.02 827.60,481.48 832.42,514.00
             833.58,521.81 834.99,531.18 835.00,539.00
             835.00,539.00 835.00,556.00 835.00,556.00
             835.01,558.62 834.35,565.62 839.06,563.83
             844.65,561.71 854.46,546.51 857.58,541.00
             871.43,516.50 875.35,485.92 856.25,463.00
             850.51,456.11 848.04,453.78 840.00,449.76
             833.28,446.40 822.47,442.22 815.00,444.00 Z
           M 1604.00,478.28
           C 1592.27,479.97 1580.28,480.47 1569.00,484.59
             1557.62,488.74 1557.85,489.13 1550.09,498.00
             1541.87,507.40 1541.87,514.31 1542.00,526.00
             1542.05,529.98 1542.60,535.29 1544.04,539.00
             1546.54,545.45 1551.82,551.76 1557.17,556.07
             1565.10,562.47 1573.75,563.43 1583.00,565.86
             1583.00,565.86 1603.00,568.32 1603.00,568.32
             1606.46,569.02 1610.21,571.07 1613.35,568.32
             1616.42,565.52 1616.04,559.77 1616.00,556.00
             1616.00,556.00 1615.00,542.00 1615.00,542.00
             1615.00,542.00 1615.00,509.00 1615.00,509.00
             1615.00,509.00 1616.00,490.00 1616.00,490.00
             1615.98,480.02 1614.68,477.33 1604.00,478.28 Z
           M 2090.00,492.30
           C 2073.91,497.07 2062.06,508.33 2058.52,525.00
             2058.52,525.00 2058.00,547.00 2058.00,547.00
             2058.16,560.11 2066.57,576.12 2079.00,581.41
             2091.18,586.59 2099.20,586.02 2112.00,586.00
             2115.52,585.99 2126.92,585.61 2129.26,583.26
             2131.35,581.18 2131.00,576.76 2131.00,574.00
             2131.00,574.00 2131.00,506.00 2131.00,506.00
             2131.00,503.23 2131.35,498.84 2129.26,496.74
             2127.20,494.66 2120.93,494.37 2118.00,493.83
             2118.00,493.83 2111.00,492.30 2111.00,492.30
             2107.36,491.70 2093.76,491.88 2090.00,492.30 Z
           M 469.00,781.00
           C 469.00,781.00 445.00,795.58 445.00,795.58
             434.16,801.71 417.91,808.44 406.00,812.25
             406.00,812.25 388.00,816.42 388.00,816.42
             358.81,822.87 344.79,824.31 315.00,824.00
             293.74,823.79 275.59,820.08 255.00,815.35
             255.00,815.35 238.00,811.00 238.00,811.00
             239.71,816.34 244.63,818.89 249.00,822.12
             249.00,822.12 278.00,840.45 278.00,840.45
             290.56,847.90 318.62,863.55 332.00,867.08
             335.69,868.05 343.14,868.95 347.00,869.00
             378.43,869.36 408.86,853.49 432.00,833.15
             447.48,819.55 450.60,816.03 461.66,799.00
             464.92,793.98 469.59,787.11 469.00,781.00 Z
           M 749.00,811.00
           C 749.00,811.00 737.00,814.11 737.00,814.11
             737.00,814.11 718.00,818.58 718.00,818.58
             702.56,821.98 686.77,823.84 671.00,824.00
             671.00,824.00 654.00,824.00 654.00,824.00
             633.20,823.97 605.27,818.72 585.00,813.52
             569.60,809.58 552.93,801.81 539.00,794.23
             532.76,790.84 522.29,782.96 516.00,782.00
             518.27,794.10 529.80,808.01 537.84,817.00
             561.21,843.17 598.58,868.57 635.00,869.00
             641.03,869.07 647.09,868.82 653.00,867.49
             664.59,864.88 693.08,849.70 704.00,843.20
             704.00,843.20 737.00,822.42 737.00,822.42
             741.42,819.26 747.22,816.38 749.00,811.00 Z
           M 494.00,816.00
           C 488.10,818.93 482.84,828.59 478.39,834.00
             478.39,834.00 451.00,861.83 451.00,861.83
             445.06,867.17 433.00,875.33 426.00,879.55
             420.63,882.79 414.17,885.27 410.00,890.00
             417.02,893.85 429.75,894.09 438.00,895.27
             460.29,898.46 481.54,899.04 504.00,899.00
             504.00,899.00 522.00,898.00 522.00,898.00
             522.00,898.00 563.00,893.58 563.00,893.58
             568.12,892.87 574.09,893.46 576.00,888.00
             555.38,879.11 528.11,857.61 513.17,841.00
             513.17,841.00 494.00,816.00 494.00,816.00 Z" />
</svg>
