<?xml version="1.0" encoding="UTF-8" standalone="no"?>
<!DOCTYPE svg PUBLIC "-//W3C//DTD SVG 20010904//EN"
              "http://www.w3.org/TR/2001/REC-SVG-20010904/DTD/svg10.dtd">

<svg xmlns="http://www.w3.org/2000/svg"
     width="3.33334in" height="3.33334in"
     viewBox="0 0 1000 1000">
  <path id="Selection"
        fill="001018" stroke="none" stroke-width="1"
        d="M 471.00,44.14
           C 471.00,44.14 502.00,44.14 502.00,44.14
             502.00,44.14 519.00,44.14 519.00,44.14
             519.00,44.14 531.00,44.91 531.00,44.91
             554.34,46.54 577.18,50.11 600.00,55.35
             631.97,62.69 649.87,68.48 680.00,81.58
             680.00,81.58 714.00,97.31 714.00,97.31
             714.00,97.31 733.00,108.80 733.00,108.80
             753.29,121.12 772.71,134.22 791.00,149.43
             791.00,149.43 809.00,165.91 809.00,165.91
             846.47,200.82 876.00,238.04 900.69,283.00
             900.69,283.00 911.78,306.00 911.78,306.00
             919.46,322.26 926.71,338.87 932.26,356.00
             932.26,356.00 937.42,375.00 937.42,375.00
             946.01,406.25 951.82,433.55 954.09,466.00
             954.09,466.00 955.00,476.00 955.00,476.00
             955.00,476.00 956.00,510.00 956.00,510.00
             956.00,510.00 955.00,528.00 955.00,528.00
             955.00,528.00 951.27,562.00 951.27,562.00
             947.35,589.21 938.50,626.17 929.31,652.00
             910.34,705.31 878.61,759.95 840.72,801.99
             840.72,801.99 833.30,809.17 833.30,809.17
             833.30,809.17 823.99,820.00 823.99,820.00
             801.85,842.70 771.74,867.11 745.00,884.30
             745.00,884.30 729.00,893.31 729.00,893.31
             729.00,893.31 698.00,910.74 698.00,910.74
             698.00,910.74 675.00,920.43 675.00,920.43
             675.00,920.43 630.00,937.28 630.00,937.28
             630.00,937.28 604.00,943.42 604.00,943.42
             578.55,949.04 556.10,953.26 530.00,955.09
             530.00,955.09 518.00,956.00 518.00,956.00
             518.00,956.00 478.00,956.00 478.00,956.00
             478.00,956.00 468.00,955.09 468.00,955.09
             468.00,955.09 434.00,951.27 434.00,951.27
             398.27,946.01 366.54,937.87 333.00,924.45
             333.00,924.45 298.00,909.74 298.00,909.74
             298.00,909.74 281.00,900.30 281.00,900.30
             245.83,880.95 213.17,857.39 184.17,829.58
             184.17,829.58 175.00,820.00 175.00,820.00
             175.00,820.00 158.17,803.00 158.17,803.00
             158.17,803.00 149.25,792.00 149.25,792.00
             149.25,792.00 135.89,776.00 135.89,776.00
             135.89,776.00 124.11,759.00 124.11,759.00
             105.40,731.72 88.69,702.85 76.45,672.00
             76.45,672.00 68.31,649.00 68.31,649.00
             62.48,632.63 57.18,615.99 53.42,599.00
             53.42,599.00 48.28,570.00 48.28,570.00
             48.28,570.00 47.72,562.00 47.72,562.00
             47.72,562.00 44.00,527.00 44.00,527.00
             44.00,527.00 43.00,508.00 43.00,508.00
             43.00,508.00 43.00,486.00 43.00,486.00
             43.00,486.00 44.00,469.00 44.00,469.00
             44.13,458.60 49.86,418.09 52.21,407.00
             56.48,386.84 62.44,367.40 69.31,348.00
             69.31,348.00 78.43,323.00 78.43,323.00
             115.50,236.04 178.84,162.26 259.00,112.32
             259.00,112.32 296.00,91.26 296.00,91.26
             296.00,91.26 307.00,86.69 307.00,86.69
             307.00,86.69 344.00,70.69 344.00,70.69
             369.81,61.32 407.74,52.29 435.00,48.27
             435.00,48.27 471.00,44.14 471.00,44.14 Z
           M 923.00,519.00
           C 923.00,519.00 923.00,491.00 923.00,491.00
             923.00,491.00 922.00,476.00 922.00,476.00
             921.79,457.99 915.57,416.86 911.35,399.00
             904.88,371.66 892.43,339.57 880.69,314.00
             866.52,283.14 839.75,244.29 817.16,219.00
             817.16,219.00 802.96,203.01 802.96,203.01
             802.96,203.01 794.00,194.91 794.00,194.91
             772.86,175.25 750.53,156.60 726.00,141.23
             690.20,118.79 644.04,98.64 603.00,88.37
             603.00,88.37 573.00,82.75 573.00,82.75
             540.75,77.15 517.66,75.62 485.00,76.00
             485.00,76.00 475.00,77.04 475.00,77.04
             475.00,77.04 466.00,77.04 466.00,77.04
             466.00,77.04 426.00,82.58 426.00,82.58
             426.00,82.58 395.00,88.47 395.00,88.47
             336.24,103.17 276.88,133.40 230.00,171.61
             186.97,206.69 149.64,252.86 123.78,302.00
             123.78,302.00 117.74,315.00 117.74,315.00
             110.44,330.08 103.51,345.11 98.08,361.00
             98.08,361.00 92.58,380.00 92.58,380.00
             92.58,380.00 82.80,418.00 82.80,418.00
             79.36,435.58 77.14,453.16 75.91,471.00
             75.91,471.00 75.00,483.00 75.00,483.00
             75.00,483.00 75.00,519.00 75.00,519.00
             81.30,517.04 81.42,512.52 83.86,507.00
             86.56,500.90 93.01,489.66 96.69,484.00
             113.61,458.01 132.31,439.87 164.00,434.32
             173.91,432.58 183.98,432.98 194.00,433.00
             204.07,433.02 214.41,434.66 219.03,445.00
             220.14,447.47 220.76,450.30 220.44,453.00
             219.90,457.75 216.97,461.75 215.03,466.00
             215.03,466.00 206.02,490.00 206.02,490.00
             197.73,516.79 190.68,553.02 191.00,581.00
             191.13,591.83 194.38,611.44 203.09,618.58
             206.31,621.22 212.91,622.97 217.00,624.33
             217.00,624.33 227.00,627.49 227.00,627.49
             227.00,627.49 236.00,629.13 236.00,629.13
             236.00,629.13 253.00,633.40 253.00,633.40
             262.83,635.38 287.44,638.88 297.00,639.00
             297.00,639.00 314.00,639.68 314.00,639.68
             314.00,639.68 332.00,639.00 332.00,639.00
             348.18,638.97 365.85,635.16 381.00,629.59
             387.34,627.25 396.67,623.65 394.57,615.00
             393.32,609.86 386.04,602.75 382.00,599.47
             382.00,599.47 362.00,585.98 362.00,585.98
             362.00,585.98 343.00,571.00 343.00,571.00
             335.38,564.86 331.26,560.11 324.83,553.00
             324.83,553.00 309.01,535.00 309.01,535.00
             299.53,522.87 286.68,501.14 280.31,487.00
             280.31,487.00 276.58,477.00 276.58,477.00
             267.87,453.74 262.53,433.82 260.04,409.00
             260.04,409.00 260.04,399.00 260.04,399.00
             260.04,399.00 259.04,388.00 259.04,388.00
             259.04,388.00 260.00,373.00 260.00,373.00
             260.14,361.08 264.92,337.74 268.29,326.00
             279.67,286.36 296.20,257.59 323.83,227.00
             323.83,227.00 334.00,216.04 334.00,216.04
             356.34,194.64 385.33,176.60 414.00,165.01
             414.00,165.01 432.00,159.29 432.00,159.29
             458.72,151.62 479.23,148.68 507.00,149.00
             523.46,149.20 545.05,153.53 561.00,157.85
             618.33,173.38 669.33,210.81 701.31,261.00
             711.71,277.33 725.29,306.27 730.25,325.00
             730.25,325.00 733.20,340.00 733.20,340.00
             735.54,351.69 737.94,366.14 738.00,378.00
             738.00,378.00 738.96,393.00 738.96,393.00
             738.96,393.00 737.96,401.00 737.96,401.00
             737.96,401.00 737.96,410.00 737.96,410.00
             735.26,436.92 728.79,463.51 717.22,488.00
             717.22,488.00 704.55,513.00 704.55,513.00
             691.38,535.10 670.71,558.17 651.00,574.57
             651.00,574.57 616.00,599.90 616.00,599.90
             611.45,603.36 604.49,610.17 603.41,616.00
             601.95,623.88 611.21,627.23 617.00,629.42
             632.27,635.21 650.64,638.97 667.00,639.00
             667.00,639.00 700.00,639.00 700.00,639.00
             700.00,639.00 710.00,638.09 710.00,638.09
             728.98,636.70 746.47,632.18 765.00,628.45
             772.45,626.95 791.18,622.58 796.38,617.61
             804.35,610.00 806.98,593.63 807.00,583.00
             807.00,583.00 807.00,567.00 807.00,567.00
             806.97,547.25 800.04,516.13 794.28,497.00
             794.28,497.00 785.15,471.00 785.15,471.00
             783.25,466.53 778.62,457.26 778.20,453.00
             777.85,449.50 778.77,446.04 780.53,443.01
             788.00,430.18 809.08,432.85 822.00,433.00
             844.79,433.27 870.41,445.57 885.91,462.01
             891.28,467.72 896.83,477.28 901.58,484.00
             905.94,490.19 911.60,500.04 914.57,507.00
             916.80,512.20 917.20,517.09 923.00,519.00 Z
           M 892.00,589.00
           C 888.04,591.35 883.90,597.37 880.72,601.00
             875.44,607.03 866.80,616.15 860.83,621.33
             856.62,624.99 852.52,626.61 848.00,629.61
             831.97,640.25 831.24,640.39 814.00,648.31
             814.00,648.31 804.00,653.05 804.00,653.05
             804.00,653.05 791.00,656.66 791.00,656.66
             755.06,667.88 717.72,675.06 680.00,675.00
             680.00,675.00 668.00,673.96 668.00,673.96
             668.00,673.96 658.00,673.96 658.00,673.96
             645.63,672.65 632.94,670.43 621.00,667.00
             598.95,660.67 569.32,646.73 569.00,620.00
             568.93,613.52 569.48,608.10 571.93,602.00
             576.66,590.23 591.79,575.09 602.00,567.75
             602.00,567.75 618.00,557.12 618.00,557.12
             638.89,541.74 659.68,521.44 672.99,499.00
             685.15,478.49 695.21,456.47 700.00,433.00
             703.10,417.79 704.02,401.50 704.00,386.00
             704.00,386.00 703.09,374.00 703.09,374.00
             703.09,374.00 700.39,348.00 700.39,348.00
             692.43,305.79 667.67,264.77 636.00,236.17
             620.08,221.79 600.60,209.80 581.00,201.14
             581.00,201.14 564.00,194.34 564.00,194.34
             554.25,191.22 523.92,185.12 514.00,185.00
             514.00,185.00 486.00,185.00 486.00,185.00
             475.41,185.02 462.34,187.66 452.00,190.12
             452.00,190.12 430.00,195.75 430.00,195.75
             414.91,200.74 388.86,215.30 376.00,224.75
             358.61,237.54 344.04,253.37 331.80,271.00
             327.35,277.41 323.06,283.08 319.31,290.00
             291.03,342.16 286.48,403.26 306.31,459.00
             310.70,471.34 311.85,475.08 318.31,487.00
             331.39,511.14 352.07,536.04 374.00,552.53
             374.00,552.53 396.00,567.49 396.00,567.49
             411.11,578.53 429.10,597.10 429.96,617.00
             430.69,633.74 417.76,648.26 404.00,656.13
             386.37,666.22 356.34,673.76 336.00,674.00
             336.00,674.00 317.00,675.00 317.00,675.00
             317.00,675.00 295.00,674.00 295.00,674.00
             276.09,673.78 241.59,666.41 223.00,661.14
             223.00,661.14 206.00,656.15 206.00,656.15
             206.00,656.15 195.00,653.24 195.00,653.24
             188.68,651.06 164.33,638.62 158.00,634.80
             144.26,626.50 134.75,619.88 123.73,607.91
             119.43,603.24 111.24,590.76 106.00,589.00
             107.00,610.43 123.87,638.96 137.42,655.00
             142.07,660.50 146.72,666.00 152.00,670.91
             184.87,701.49 230.77,719.87 275.00,725.15
             275.00,725.15 297.00,727.00 297.00,727.00
             297.00,727.00 313.00,727.00 313.00,727.00
             340.67,726.96 378.68,717.25 404.00,706.14
             404.00,706.14 418.00,699.89 418.00,699.89
             426.30,695.88 433.67,689.63 443.00,695.34
             457.00,703.92 453.88,718.95 441.00,726.65
             423.72,736.98 384.12,751.11 364.00,755.58
             316.64,766.09 257.36,763.61 212.00,745.80
             200.65,741.34 182.05,733.57 172.00,727.32
             165.30,723.15 150.76,712.03 144.00,711.00
             145.53,717.25 151.98,725.82 156.01,731.00
             165.31,742.94 178.36,756.40 190.00,766.08
             215.95,787.66 250.71,804.34 284.00,810.39
             301.11,813.49 319.64,814.03 337.00,814.00
             337.00,814.00 349.00,813.09 349.00,813.09
             373.81,811.28 399.14,806.97 422.00,796.69
             443.74,786.91 457.98,777.75 473.20,759.00
             473.20,759.00 480.11,750.00 480.11,750.00
             485.17,742.54 489.42,734.20 500.00,735.11
             510.32,735.99 514.44,745.51 519.52,753.00
             519.52,753.00 526.44,762.00 526.44,762.00
             538.91,776.78 556.55,787.70 574.00,795.69
             597.56,806.48 623.34,811.21 649.00,813.09
             649.00,813.09 661.00,814.00 661.00,814.00
             678.71,814.03 696.52,813.56 714.00,810.39
             752.19,803.45 786.02,785.67 815.00,760.15
             828.39,748.37 847.17,728.06 855.00,712.00
             848.56,710.91 843.09,716.61 838.00,720.00
             827.22,727.18 815.89,733.41 804.00,738.58
             785.52,746.61 764.87,753.99 745.00,757.58
             745.00,757.58 708.00,761.09 708.00,761.09
             708.00,761.09 698.00,762.00 698.00,762.00
             698.00,762.00 689.00,762.00 689.00,762.00
             689.00,762.00 679.00,760.96 679.00,760.96
             679.00,760.96 670.00,760.96 670.00,760.96
             639.05,757.88 618.93,752.97 590.00,741.40
             590.00,741.40 559.00,727.57 559.00,727.57
             553.32,724.30 547.49,719.80 546.03,713.00
             543.83,702.81 554.85,692.12 565.00,693.20
             569.38,693.67 575.78,697.70 580.00,699.74
             580.00,699.74 607.00,711.19 607.00,711.19
             629.17,719.75 662.25,726.96 686.00,727.00
             705.22,727.03 724.10,726.03 743.00,722.19
             788.13,713.03 834.84,688.67 863.42,652.00
             877.01,634.57 890.95,611.71 892.00,589.00 Z
           M 422.00,403.59
           C 428.16,403.65 435.82,404.96 441.00,408.47
             462.47,423.00 462.17,456.19 438.00,467.68
             431.55,470.74 427.98,471.08 421.00,471.00
             397.05,470.72 381.84,444.28 391.91,423.00
             398.18,409.76 408.16,404.84 422.00,403.59 Z
           M 575.00,403.59
           C 583.84,403.67 592.32,405.99 598.82,412.30
             612.61,425.67 612.79,452.35 596.96,464.21
             589.86,469.53 582.64,471.10 574.00,471.00
             548.37,470.70 533.61,441.57 546.22,420.00
             552.90,408.57 562.47,404.72 575.00,403.59 Z
           M 177.00,468.00
           C 170.23,468.15 165.34,469.39 159.00,471.69
             149.83,475.03 144.49,478.83 137.95,486.01
             135.06,489.19 131.47,493.29 129.36,497.00
             119.49,514.37 122.68,539.33 130.01,557.00
             134.09,566.83 146.71,586.98 157.00,590.00
             157.00,564.32 156.78,549.72 162.42,524.00
             162.42,524.00 177.00,468.00 177.00,468.00 Z
           M 821.00,469.00
           C 829.77,499.02 833.60,506.48 838.42,539.00
             839.58,546.81 840.99,556.18 841.00,564.00
             841.00,564.00 841.00,581.00 841.00,581.00
             841.01,583.62 840.35,590.62 845.06,588.83
             850.65,586.71 860.46,571.51 863.58,566.00
             877.43,541.50 881.35,510.92 862.25,488.00
             856.51,481.11 854.04,478.78 846.00,474.76
             839.28,471.40 828.47,467.22 821.00,469.00 Z
           M 475.00,806.00
           C 475.00,806.00 451.00,820.58 451.00,820.58
             440.16,826.71 423.91,833.44 412.00,837.25
             412.00,837.25 394.00,841.42 394.00,841.42
             364.81,847.87 350.79,849.31 321.00,849.00
             299.74,848.79 281.59,845.08 261.00,840.35
             261.00,840.35 244.00,836.00 244.00,836.00
             245.71,841.34 250.63,843.89 255.00,847.12
             255.00,847.12 284.00,865.45 284.00,865.45
             296.56,872.90 324.62,888.55 338.00,892.08
             341.69,893.05 349.14,893.95 353.00,894.00
             384.43,894.36 414.86,878.49 438.00,858.15
             453.48,844.55 456.60,841.03 467.66,824.00
             470.92,818.98 475.59,812.11 475.00,806.00 Z
           M 755.00,836.00
           C 755.00,836.00 743.00,839.11 743.00,839.11
             743.00,839.11 724.00,843.58 724.00,843.58
             708.56,846.98 692.77,848.84 677.00,849.00
             677.00,849.00 660.00,849.00 660.00,849.00
             639.20,848.97 611.27,843.72 591.00,838.52
             575.60,834.58 558.93,826.81 545.00,819.23
             538.76,815.84 528.29,807.96 522.00,807.00
             524.27,819.10 535.80,833.01 543.84,842.00
             567.21,868.17 604.58,893.57 641.00,894.00
             647.03,894.07 653.09,893.82 659.00,892.49
             670.59,889.88 699.08,874.70 710.00,868.20
             710.00,868.20 743.00,847.42 743.00,847.42
             747.42,844.26 753.22,841.38 755.00,836.00 Z
           M 500.00,841.00
           C 494.10,843.93 488.84,853.59 484.39,859.00
             484.39,859.00 457.00,886.83 457.00,886.83
             451.06,892.17 439.00,900.33 432.00,904.55
             426.63,907.79 420.17,910.27 416.00,915.00
             423.02,918.85 435.75,919.09 444.00,920.27
             466.29,923.46 487.54,924.04 510.00,924.00
             510.00,924.00 528.00,923.00 528.00,923.00
             528.00,923.00 569.00,918.58 569.00,918.58
             574.12,917.87 580.09,918.46 582.00,913.00
             561.38,904.11 534.11,882.61 519.17,866.00
             519.17,866.00 500.00,841.00 500.00,841.00 Z" />
  <path id="Selection #1"
        fill="#bde7f9" stroke="none" stroke-width="1"
        d="M 397.00,119.00
           C 399.56,116.09 404.43,116.32 408.08,115.48
             408.08,115.48 443.47,111.22 443.47,111.22
             443.47,111.22 480.00,109.51 480.00,109.51
             480.00,109.51 493.00,110.05 493.00,110.05
             493.00,110.05 507.00,110.05 507.00,110.05
             507.00,110.05 517.00,111.47 517.00,111.47
             517.00,111.47 522.96,111.47 522.96,111.47
             522.96,111.47 542.99,114.10 542.99,114.10
             542.99,114.10 573.00,119.00 573.00,119.00
             573.00,119.00 573.00,121.00 573.00,121.00
             577.78,120.23 586.77,121.08 590.00,125.00
             593.96,124.12 600.49,125.67 603.00,129.00
             609.73,127.54 619.99,132.50 626.42,135.09
             629.46,136.31 631.82,136.43 634.00,139.04
             634.00,139.04 638.00,139.04 638.00,139.04
             638.00,139.04 653.50,145.77 653.50,145.77
             653.50,145.77 655.00,148.00 655.00,148.00
             659.55,147.78 661.51,147.94 664.00,152.00
             671.72,151.49 682.17,158.98 688.83,162.82
             692.38,164.87 695.89,164.51 697.00,169.00
             701.27,168.87 701.96,169.23 704.00,173.00
             704.00,173.00 707.00,172.00 707.00,172.00
             710.31,175.75 717.72,177.08 719.00,182.00
             723.32,182.71 723.99,183.08 726.00,187.00
             726.00,187.00 728.00,186.00 728.00,186.00
             728.00,186.00 728.00,188.00 728.00,188.00
             728.00,188.00 731.00,190.00 731.00,190.00
             736.73,190.69 751.05,201.87 754.00,207.00
             754.00,207.00 756.00,206.00 756.00,206.00
             756.00,206.00 761.00,210.00 761.00,210.00
             761.00,210.00 762.00,214.00 762.00,214.00
             765.48,214.71 765.35,214.87 767.00,218.00
             771.10,218.55 771.87,220.23 773.00,224.00
             777.27,224.04 777.63,225.14 779.00,229.00
             783.25,229.83 785.60,233.00 788.58,236.00
             793.46,240.91 799.98,245.12 802.00,252.00
             806.47,253.03 809.74,257.74 811.00,262.00
             813.84,262.76 813.49,263.15 814.00,266.00
             817.68,266.61 819.52,268.24 820.00,272.00
             824.71,274.39 826.93,277.91 828.00,283.00
             832.98,283.69 836.87,290.26 837.00,295.00
             837.00,295.00 840.00,295.00 840.00,295.00
             840.00,295.00 842.00,298.00 842.00,298.00
             842.00,298.00 845.00,302.00 845.00,302.00
             846.27,309.48 855.12,313.97 855.00,322.00
             855.00,322.00 862.00,329.00 862.00,329.00
             863.06,335.51 869.99,339.46 870.00,348.00
             876.84,352.83 877.53,363.31 883.00,370.00
             883.00,370.00 882.00,373.00 882.00,373.00
             885.24,375.14 885.20,376.25 885.00,380.00
             885.00,380.00 887.00,380.00 887.00,380.00
             887.00,380.00 886.00,382.00 886.00,382.00
             886.00,382.00 889.75,388.17 889.75,388.17
             889.75,388.17 896.94,407.68 896.94,407.68
             896.94,407.68 896.00,410.00 896.00,410.00
             898.65,411.71 901.19,415.03 899.00,418.00
             900.65,420.70 904.23,425.10 902.00,428.00
             902.00,428.00 903.00,433.00 903.00,433.00
             903.00,433.00 905.00,432.00 905.00,432.00
             905.00,432.00 904.00,437.00 904.00,437.00
             904.00,437.00 907.00,438.00 907.00,438.00
             907.00,438.00 909.00,448.00 909.00,448.00
             909.00,448.00 909.00,455.00 909.00,455.00
             909.00,455.00 910.00,459.00 910.00,459.00
             910.00,459.00 912.00,459.00 912.00,459.00
             912.00,459.00 912.00,460.00 912.00,460.00
             912.00,460.00 910.00,460.00 910.00,460.00
             910.00,460.00 913.00,465.00 913.00,465.00
             913.00,465.00 911.00,464.00 911.00,464.00
             915.51,475.99 915.11,478.89 916.83,491.00
             917.35,494.65 918.88,502.78 918.00,506.00
             908.50,484.53 889.78,457.42 870.00,444.70
             854.69,434.86 835.14,430.03 817.00,430.00
             803.49,429.98 781.66,428.68 775.81,444.00
             774.78,446.71 774.04,450.10 774.34,453.00
             774.91,458.53 778.43,463.99 780.69,469.00
             780.69,469.00 787.33,488.00 787.33,488.00
             794.50,509.99 803.73,547.17 804.00,570.00
             804.16,583.81 803.49,605.18 793.32,615.73
             787.40,621.86 765.71,625.82 757.00,627.46
             757.00,627.46 720.00,634.72 720.00,634.72
             702.88,636.90 688.15,637.03 671.00,637.00
             655.15,636.98 635.93,633.16 621.00,627.86
             616.24,626.16 605.57,622.84 607.37,616.00
             608.17,612.99 611.87,609.20 614.01,607.00
             623.90,596.87 624.28,598.21 635.00,591.30
             651.32,580.79 667.89,565.40 680.83,551.00
             716.95,510.80 741.37,453.39 742.16,399.00
             742.16,399.00 742.16,392.00 742.16,392.00
             742.16,392.00 742.16,376.00 742.16,376.00
             741.73,353.55 732.97,318.90 724.60,298.00
             715.11,274.30 700.15,250.36 683.57,231.00
             669.15,214.15 652.42,199.92 634.00,187.67
             634.00,187.67 613.00,174.31 613.00,174.31
             604.25,169.56 595.29,166.05 586.00,162.67
             525.99,140.13 471.93,140.59 412.00,162.67
             412.00,162.67 394.00,169.89 394.00,169.89
             371.53,180.52 347.35,198.06 329.72,215.42
             312.00,232.87 293.60,255.36 282.89,278.00
             273.61,297.61 264.74,319.69 260.45,341.00
             247.69,404.39 260.80,470.22 296.67,524.00
             314.21,550.30 340.16,576.77 367.00,593.58
             373.79,597.83 381.52,602.80 386.67,609.00
             388.74,611.49 391.65,615.54 390.74,618.96
             389.21,624.70 380.86,626.79 376.00,628.34
             360.53,633.30 344.32,636.97 328.00,637.00
             328.00,637.00 322.00,637.00 322.00,637.00
             322.00,637.00 311.00,637.68 311.00,637.68
             311.00,637.68 260.00,631.92 260.00,631.92
             260.00,631.92 240.00,627.28 240.00,627.28
             231.44,625.85 223.25,623.73 215.00,621.00
             211.12,619.72 207.40,618.83 204.48,615.78
             198.09,609.10 195.04,590.18 195.00,581.00
             194.91,562.13 197.05,546.50 200.39,528.00
             200.39,528.00 202.23,517.00 202.23,517.00
             202.23,517.00 209.72,491.00 209.72,491.00
             209.72,491.00 218.89,467.00 218.89,467.00
             221.74,460.92 225.39,456.25 224.34,449.00
             221.91,432.13 203.76,430.02 190.00,430.00
             153.73,429.94 126.41,438.16 103.24,468.01
             103.24,468.01 79.00,507.00 79.00,507.00
             79.00,507.00 79.00,481.00 79.00,481.00
             79.03,464.60 83.50,434.49 86.80,418.00
             96.92,367.37 111.86,327.34 138.60,283.00
             145.23,272.01 156.49,254.72 164.46,245.00
             164.46,245.00 170.61,238.29 170.61,238.29
             174.73,233.44 179.45,225.24 186.00,224.00
             186.00,224.00 199.00,210.00 199.00,210.00
             199.00,210.00 203.00,210.00 203.00,210.00
             205.43,205.02 210.27,200.24 216.00,200.00
             217.01,195.14 220.53,194.43 224.25,191.63
             224.25,191.63 241.72,179.50 241.72,179.50
             245.57,176.88 248.24,174.47 253.00,174.00
             253.00,174.00 264.00,166.00 264.00,166.00
             264.00,166.00 266.00,167.00 266.00,167.00
             269.11,162.37 286.50,153.01 292.00,153.00
             294.42,149.75 297.05,149.00 301.00,149.00
             303.17,145.65 305.42,145.24 309.00,143.80
             314.66,141.53 321.98,137.23 328.00,138.00
             330.26,134.39 338.99,132.59 343.09,131.07
             343.09,131.07 377.00,121.63 377.00,121.63
             382.86,120.17 391.07,117.91 397.00,119.00 Z
           M 383.00,121.00
           C 383.00,121.00 382.00,121.00 382.00,121.00
             382.00,121.00 383.00,122.00 383.00,122.00
             383.00,122.00 383.00,121.00 383.00,121.00 Z
           M 586.00,123.00
           C 586.00,123.00 585.00,123.00 585.00,123.00
             585.00,123.00 586.00,124.00 586.00,124.00
             586.00,124.00 586.00,123.00 586.00,123.00 Z
           M 371.00,124.00
           C 371.00,124.00 370.00,124.00 370.00,124.00
             370.00,124.00 371.00,125.00 371.00,125.00
             371.00,125.00 371.00,124.00 371.00,124.00 Z
           M 360.00,127.00
           C 360.00,127.00 359.00,127.00 359.00,127.00
             359.00,127.00 360.00,128.00 360.00,128.00
             360.00,128.00 360.00,127.00 360.00,127.00 Z
           M 353.00,129.00
           C 353.00,129.00 352.00,129.00 352.00,129.00
             352.00,129.00 353.00,130.00 353.00,130.00
             353.00,130.00 353.00,129.00 353.00,129.00 Z
           M 607.00,129.00
           C 607.00,129.00 606.00,129.00 606.00,129.00
             606.00,129.00 607.00,130.00 607.00,130.00
             607.00,130.00 607.00,129.00 607.00,129.00 Z
           M 350.00,130.00
           C 350.00,130.00 349.00,130.00 349.00,130.00
             349.00,130.00 350.00,131.00 350.00,131.00
             350.00,131.00 350.00,130.00 350.00,130.00 Z
           M 347.00,131.00
           C 347.00,131.00 346.00,131.00 346.00,131.00
             346.00,131.00 347.00,132.00 347.00,132.00
             347.00,132.00 347.00,131.00 347.00,131.00 Z
           M 344.00,132.00
           C 344.00,132.00 343.00,132.00 343.00,132.00
             343.00,132.00 344.00,133.00 344.00,133.00
             344.00,133.00 344.00,132.00 344.00,132.00 Z
           M 620.00,133.00
           C 620.00,133.00 619.00,133.00 619.00,133.00
             619.00,133.00 620.00,134.00 620.00,134.00
             620.00,134.00 620.00,133.00 620.00,133.00 Z
           M 323.00,139.00
           C 323.00,139.00 322.00,139.00 322.00,139.00
             322.00,139.00 323.00,140.00 323.00,140.00
             323.00,140.00 323.00,139.00 323.00,139.00 Z
           M 642.00,141.00
           C 642.00,141.00 641.00,141.00 641.00,141.00
             641.00,141.00 642.00,142.00 642.00,142.00
             642.00,142.00 642.00,141.00 642.00,141.00 Z
           M 316.00,142.00
           C 316.00,142.00 315.00,142.00 315.00,142.00
             315.00,142.00 316.00,143.00 316.00,143.00
             316.00,143.00 316.00,142.00 316.00,142.00 Z
           M 647.00,143.00
           C 647.00,143.00 646.00,143.00 646.00,143.00
             646.00,143.00 647.00,144.00 647.00,144.00
             647.00,144.00 647.00,143.00 647.00,143.00 Z
           M 298.00,150.00
           C 298.00,150.00 297.00,150.00 297.00,150.00
             297.00,150.00 298.00,151.00 298.00,151.00
             298.00,151.00 298.00,150.00 298.00,150.00 Z
           M 291.00,153.00
           C 291.00,153.00 290.00,153.00 290.00,153.00
             290.00,153.00 291.00,154.00 291.00,154.00
             291.00,154.00 291.00,153.00 291.00,153.00 Z
           M 289.00,154.00
           C 289.00,154.00 288.00,154.00 288.00,154.00
             288.00,154.00 289.00,155.00 289.00,155.00
             289.00,155.00 289.00,154.00 289.00,154.00 Z
           M 700.00,169.00
           C 700.00,169.00 699.00,169.00 699.00,169.00
             699.00,169.00 700.00,170.00 700.00,170.00
             700.00,170.00 700.00,169.00 700.00,169.00 Z
           M 256.00,172.00
           C 256.00,172.00 255.00,172.00 255.00,172.00
             255.00,172.00 256.00,173.00 256.00,173.00
             256.00,173.00 256.00,172.00 256.00,172.00 Z
           M 251.00,175.00
           C 251.00,175.00 250.00,175.00 250.00,175.00
             250.00,175.00 251.00,176.00 251.00,176.00
             251.00,176.00 251.00,175.00 251.00,175.00 Z
           M 248.00,177.00
           C 248.00,177.00 247.00,177.00 247.00,177.00
             247.00,177.00 248.00,178.00 248.00,178.00
             248.00,178.00 248.00,177.00 248.00,177.00 Z
           M 716.00,179.00
           C 716.00,179.00 715.00,179.00 715.00,179.00
             715.00,179.00 716.00,180.00 716.00,180.00
             716.00,180.00 716.00,179.00 716.00,179.00 Z
           M 234.00,186.00
           C 234.00,186.00 233.00,186.00 233.00,186.00
             233.00,186.00 234.00,187.00 234.00,187.00
             234.00,187.00 234.00,186.00 234.00,186.00 Z
           M 232.00,187.00
           C 232.00,187.00 231.00,187.00 231.00,187.00
             231.00,187.00 232.00,188.00 232.00,188.00
             232.00,188.00 232.00,187.00 232.00,187.00 Z
           M 302.00,348.00
           C 302.00,348.00 307.52,326.00 307.52,326.00
             312.59,310.29 325.55,285.50 335.04,272.00
             340.03,264.90 346.03,258.35 351.91,252.00
             351.91,252.00 359.04,244.09 359.04,244.09
             382.79,220.96 414.07,203.50 446.00,194.85
             459.04,191.32 472.40,188.02 486.00,187.84
             486.00,187.84 497.00,187.84 497.00,187.84
             497.00,187.84 507.00,187.84 507.00,187.84
             566.57,188.69 624.45,220.77 659.87,268.00
             667.20,277.77 674.24,287.85 679.30,299.00
             685.52,312.68 691.30,326.37 694.87,341.00
             696.01,345.67 698.61,353.59 697.00,358.00
             697.00,358.00 690.00,330.00 690.00,330.00
             690.00,330.00 683.00,319.00 683.00,319.00
             683.00,319.00 684.00,316.00 684.00,316.00
             679.43,313.26 678.84,309.44 676.25,305.00
             676.25,305.00 663.04,284.58 663.04,284.58
             659.75,280.39 654.99,276.32 654.00,271.00
             650.56,269.07 649.79,268.95 649.00,265.00
             643.51,263.38 638.70,258.48 637.00,253.00
             631.92,252.47 625.14,246.59 623.00,242.00
             623.00,242.00 621.00,243.00 621.00,243.00
             615.84,237.71 602.76,230.35 596.00,226.59
             591.90,224.31 586.61,223.06 584.00,219.00
             579.02,219.06 576.51,217.11 572.00,215.34
             572.00,215.34 554.28,209.31 554.28,209.31
             540.84,205.05 521.09,201.98 507.00,202.00
             488.19,202.02 482.34,201.19 463.00,205.00
             463.00,205.00 450.00,207.59 450.00,207.59
             450.00,207.59 438.00,211.05 438.00,211.05
             436.05,211.42 435.82,211.23 434.00,211.05
             434.00,211.05 431.00,212.00 431.00,212.00
             431.00,212.00 428.00,213.00 428.00,213.00
             426.02,216.06 424.50,216.06 421.00,216.00
             421.00,216.00 396.00,230.20 396.00,230.20
             396.00,230.20 384.00,236.00 384.00,236.00
             384.00,236.00 379.00,239.00 379.00,239.00
             378.17,242.40 377.35,242.51 374.00,243.00
             372.23,246.59 371.98,247.22 368.00,248.00
             365.31,253.57 361.67,255.26 357.29,259.41
             352.47,263.98 348.04,270.40 342.00,273.00
             341.59,276.55 341.39,276.83 338.00,278.00
             338.00,278.00 335.00,282.00 335.00,282.00
             334.86,286.04 334.15,288.07 330.00,289.00
             330.00,289.00 330.00,293.00 330.00,293.00
             330.00,293.00 328.00,292.00 328.00,292.00
             327.04,298.42 325.11,298.96 322.27,304.17
             319.89,308.54 318.16,314.04 314.00,317.00
             314.09,319.98 314.35,320.10 312.00,322.00
             312.00,322.00 313.00,324.00 313.00,324.00
             313.00,324.00 311.00,324.00 311.00,324.00
             311.07,327.98 310.29,331.53 307.00,334.00
             307.25,338.47 305.68,345.18 302.00,348.00 Z
           M 212.00,202.00
           C 212.00,202.00 211.00,202.00 211.00,202.00
             211.00,202.00 212.00,203.00 212.00,203.00
             212.00,203.00 212.00,202.00 212.00,202.00 Z
           M 207.00,206.00
           C 207.00,206.00 206.00,206.00 206.00,206.00
             206.00,206.00 207.00,207.00 207.00,207.00
             207.00,207.00 207.00,206.00 207.00,206.00 Z
           M 759.00,210.00
           C 759.00,210.00 758.00,210.00 758.00,210.00
             758.00,210.00 759.00,211.00 759.00,211.00
             759.00,211.00 759.00,210.00 759.00,210.00 Z
           M 197.00,214.00
           C 197.00,214.00 196.00,214.00 196.00,214.00
             196.00,214.00 197.00,215.00 197.00,215.00
             197.00,215.00 197.00,214.00 197.00,214.00 Z
           M 408.00,222.00
           C 408.00,222.00 407.00,222.00 407.00,222.00
             407.00,222.00 408.00,223.00 408.00,223.00
             408.00,223.00 408.00,222.00 408.00,222.00 Z
           M 185.00,224.00
           C 185.00,224.00 184.00,224.00 184.00,224.00
             184.00,224.00 185.00,225.00 185.00,225.00
             185.00,225.00 185.00,224.00 185.00,224.00 Z
           M 604.00,229.00
           C 604.00,229.00 603.00,229.00 603.00,229.00
             603.00,229.00 604.00,230.00 604.00,230.00
             604.00,230.00 604.00,229.00 604.00,229.00 Z
           M 392.00,231.00
           C 392.00,231.00 391.00,231.00 391.00,231.00
             391.00,231.00 392.00,232.00 392.00,232.00
             392.00,232.00 392.00,231.00 392.00,231.00 Z
           M 389.00,233.00
           C 389.00,233.00 388.00,233.00 388.00,233.00
             388.00,233.00 389.00,234.00 389.00,234.00
             389.00,234.00 389.00,233.00 389.00,233.00 Z
           M 612.00,234.00
           C 612.00,234.00 611.00,234.00 611.00,234.00
             611.00,234.00 612.00,235.00 612.00,235.00
             612.00,235.00 612.00,234.00 612.00,234.00 Z
           M 386.00,235.00
           C 386.00,235.00 385.00,235.00 385.00,235.00
             385.00,235.00 386.00,236.00 386.00,236.00
             386.00,236.00 386.00,235.00 386.00,235.00 Z
           M 383.00,237.00
           C 383.00,237.00 382.00,237.00 382.00,237.00
             382.00,237.00 383.00,238.00 383.00,238.00
             383.00,238.00 383.00,237.00 383.00,237.00 Z
           M 793.00,241.00
           C 793.00,241.00 792.00,241.00 792.00,241.00
             792.00,241.00 793.00,242.00 793.00,242.00
             793.00,242.00 793.00,241.00 793.00,241.00 Z
           M 376.00,242.00
           C 376.00,242.00 375.00,242.00 375.00,242.00
             375.00,242.00 376.00,243.00 376.00,243.00
             376.00,243.00 376.00,242.00 376.00,242.00 Z
           M 794.00,242.00
           C 794.00,242.00 793.00,242.00 793.00,242.00
             793.00,242.00 794.00,243.00 794.00,243.00
             794.00,243.00 794.00,242.00 794.00,242.00 Z
           M 795.00,243.00
           C 795.00,243.00 794.00,243.00 794.00,243.00
             794.00,243.00 795.00,244.00 795.00,244.00
             795.00,244.00 795.00,243.00 795.00,243.00 Z
           M 796.00,244.00
           C 796.00,244.00 795.00,244.00 795.00,244.00
             795.00,244.00 796.00,245.00 796.00,245.00
             796.00,245.00 796.00,244.00 796.00,244.00 Z
           M 371.00,246.00
           C 371.00,246.00 370.00,246.00 370.00,246.00
             370.00,246.00 371.00,247.00 371.00,247.00
             371.00,247.00 371.00,246.00 371.00,246.00 Z
           M 798.00,246.00
           C 798.00,246.00 797.00,246.00 797.00,246.00
             797.00,246.00 798.00,247.00 798.00,247.00
             798.00,247.00 798.00,246.00 798.00,246.00 Z
           M 799.00,247.00
           C 799.00,247.00 798.00,247.00 798.00,247.00
             798.00,247.00 799.00,248.00 799.00,248.00
             799.00,248.00 799.00,247.00 799.00,247.00 Z
           M 366.00,250.00
           C 366.00,250.00 365.00,250.00 365.00,250.00
             365.00,250.00 366.00,251.00 366.00,251.00
             366.00,251.00 366.00,250.00 366.00,250.00 Z
           M 806.00,255.00
           C 806.00,255.00 805.00,255.00 805.00,255.00
             805.00,255.00 806.00,256.00 806.00,256.00
             806.00,256.00 806.00,255.00 806.00,255.00 Z
           M 807.00,256.00
           C 807.00,256.00 806.00,256.00 806.00,256.00
             806.00,256.00 807.00,257.00 807.00,257.00
             807.00,257.00 807.00,256.00 807.00,256.00 Z
           M 655.00,272.00
           C 655.00,272.00 654.00,272.00 654.00,272.00
             654.00,272.00 655.00,273.00 655.00,273.00
             655.00,273.00 655.00,272.00 655.00,272.00 Z
           M 662.00,280.00
           C 662.00,280.00 661.00,280.00 661.00,280.00
             661.00,280.00 662.00,281.00 662.00,281.00
             662.00,281.00 662.00,280.00 662.00,280.00 Z
           M 334.00,285.00
           C 334.00,285.00 333.00,285.00 333.00,285.00
             333.00,285.00 334.00,286.00 334.00,286.00
             334.00,286.00 334.00,285.00 334.00,285.00 Z
           M 318.00,310.00
           C 318.00,310.00 317.00,310.00 317.00,310.00
             317.00,310.00 318.00,311.00 318.00,311.00
             318.00,311.00 318.00,310.00 318.00,310.00 Z
           M 317.00,312.00
           C 317.00,312.00 316.00,312.00 316.00,312.00
             316.00,312.00 317.00,313.00 317.00,313.00
             317.00,313.00 317.00,312.00 317.00,312.00 Z
           M 314.00,318.00
           C 314.00,318.00 313.00,318.00 313.00,318.00
             313.00,318.00 314.00,319.00 314.00,319.00
             314.00,319.00 314.00,318.00 314.00,318.00 Z
           M 855.00,319.00
           C 855.00,319.00 854.00,319.00 854.00,319.00
             854.00,319.00 855.00,320.00 855.00,320.00
             855.00,320.00 855.00,319.00 855.00,319.00 Z
           M 686.00,320.00
           C 686.00,320.00 685.00,320.00 685.00,320.00
             685.00,320.00 686.00,321.00 686.00,321.00
             686.00,321.00 686.00,320.00 686.00,320.00 Z
           M 858.00,324.00
           C 858.00,324.00 857.00,324.00 857.00,324.00
             857.00,324.00 858.00,325.00 858.00,325.00
             858.00,325.00 858.00,324.00 858.00,324.00 Z
           M 692.00,334.00
           C 692.00,334.00 691.00,334.00 691.00,334.00
             691.00,334.00 692.00,335.00 692.00,335.00
             692.00,335.00 692.00,334.00 692.00,334.00 Z
           M 870.00,346.00
           C 870.00,346.00 869.00,346.00 869.00,346.00
             869.00,346.00 870.00,347.00 870.00,347.00
             870.00,347.00 870.00,346.00 870.00,346.00 Z
           M 879.00,364.00
           C 879.00,364.00 878.00,364.00 878.00,364.00
             878.00,364.00 879.00,365.00 879.00,365.00
             879.00,365.00 879.00,364.00 879.00,364.00 Z
           M 880.00,366.00
           C 880.00,366.00 879.00,366.00 879.00,366.00
             879.00,366.00 880.00,367.00 880.00,367.00
             880.00,367.00 880.00,366.00 880.00,366.00 Z
           M 699.00,367.00
           C 699.00,367.00 700.00,367.00 700.00,367.00
             700.00,367.00 699.00,368.00 699.00,368.00
             699.00,368.00 699.00,367.00 699.00,367.00 Z
           M 895.00,403.00
           C 895.00,403.00 894.00,403.00 894.00,403.00
             894.00,403.00 895.00,404.00 895.00,404.00
             895.00,404.00 895.00,403.00 895.00,403.00 Z
           M 896.00,406.00
           C 896.00,406.00 895.00,406.00 895.00,406.00
             895.00,406.00 896.00,407.00 896.00,407.00
             896.00,407.00 896.00,406.00 896.00,406.00 Z
           M 898.00,412.00
           C 898.00,412.00 897.00,412.00 897.00,412.00
             897.00,412.00 898.00,413.00 898.00,413.00
             898.00,413.00 898.00,412.00 898.00,412.00 Z
           M 907.00,442.00
           C 907.00,442.00 906.00,442.00 906.00,442.00
             906.00,442.00 907.00,443.00 907.00,443.00
             907.00,443.00 907.00,442.00 907.00,442.00 Z
           M 913.00,469.00
           C 913.00,469.00 914.00,469.00 914.00,469.00
             914.00,469.00 913.00,470.00 913.00,470.00
             913.00,470.00 913.00,469.00 913.00,469.00 Z
           M 153.00,584.00
           C 148.08,579.90 141.34,570.61 138.01,565.00
             123.28,540.14 119.72,510.26 141.04,488.00
             143.71,485.21 146.80,482.08 150.00,479.91
             157.00,475.17 164.86,473.53 173.00,472.00
             163.56,499.21 153.04,538.27 153.00,567.00
             153.00,567.00 153.00,584.00 153.00,584.00 Z
           M 827.00,473.00
           C 834.24,473.34 838.60,474.97 845.00,478.26
             861.48,486.73 871.57,504.62 871.99,523.00
             872.24,534.37 869.31,544.55 865.20,555.00
             865.20,555.00 861.48,564.00 861.48,564.00
             858.41,569.62 849.84,579.77 845.00,584.00
             845.00,558.93 844.54,548.89 839.55,524.00
             839.55,524.00 833.27,496.00 833.27,496.00
             833.27,496.00 827.00,473.00 827.00,473.00 Z
           M 918.00,507.00
           C 918.00,507.00 919.00,507.00 919.00,507.00
             919.00,507.00 918.00,508.00 918.00,508.00
             918.00,508.00 918.00,507.00 918.00,507.00 Z
           M 888.00,596.00
           C 888.00,596.00 889.00,596.00 889.00,596.00
             889.00,596.00 888.00,597.00 888.00,597.00
             888.00,597.00 888.00,596.00 888.00,596.00 Z
           M 887.00,598.00
           C 888.15,602.27 885.48,607.93 883.94,612.00
             879.19,624.49 874.61,625.76 865.58,634.16
             860.74,638.67 854.53,644.63 848.00,646.00
             847.04,649.92 844.78,650.63 841.00,651.00
             838.51,654.96 835.60,656.19 831.00,656.00
             830.05,659.49 828.26,659.18 825.00,659.00
             823.89,663.01 819.64,663.38 816.00,663.00
             812.57,668.64 806.72,669.93 800.85,671.50
             800.85,671.50 768.00,681.15 768.00,681.15
             764.42,682.18 754.85,685.32 752.00,683.00
             746.89,686.96 734.30,688.62 728.00,687.00
             724.37,691.11 708.29,690.24 702.55,690.85
             683.61,692.88 656.66,692.92 638.17,688.49
             631.93,687.00 625.12,687.42 620.00,683.00
             616.97,685.39 609.90,681.91 608.00,679.00
             601.25,679.58 597.93,676.72 592.59,673.17
             585.81,668.64 577.85,664.65 576.00,656.00
             576.00,656.00 574.00,657.00 574.00,657.00
             571.76,651.34 568.64,648.27 570.00,642.00
             567.53,639.80 567.54,637.15 568.00,634.00
             571.32,639.08 573.62,643.59 578.04,647.91
             598.42,667.83 638.07,676.96 666.00,677.04
             666.00,677.04 675.00,677.04 675.00,677.04
             678.87,677.35 680.71,678.15 685.00,677.91
             685.00,677.91 697.00,677.00 697.00,677.00
             717.95,676.97 752.66,671.23 773.00,665.58
             773.00,665.58 790.00,660.03 790.00,660.03
             790.00,660.03 805.00,655.90 805.00,655.90
             805.00,655.90 835.00,641.30 835.00,641.30
             853.42,631.19 875.64,615.90 887.00,598.00 Z
           M 111.00,599.00
           C 111.00,599.00 129.00,617.91 129.00,617.91
             136.53,624.93 149.96,633.70 159.00,638.99
             159.00,638.99 184.00,650.98 184.00,650.98
             184.00,650.98 193.00,655.79 193.00,655.79
             193.00,655.79 208.00,660.00 208.00,660.00
             239.90,670.53 273.42,676.61 307.00,677.00
             307.00,677.00 315.00,677.68 315.00,677.68
             315.00,677.68 335.00,677.00 335.00,677.00
             353.51,676.78 384.65,670.28 401.00,661.68
             408.18,657.90 417.42,650.90 422.91,645.00
             422.91,645.00 431.00,635.00 431.00,635.00
             430.47,646.41 425.96,654.94 418.33,663.28
             414.69,667.27 411.70,671.07 406.00,671.00
             406.00,671.00 403.00,673.00 403.00,673.00
             403.00,673.00 401.00,674.00 401.00,674.00
             398.06,679.04 384.70,684.10 379.00,683.00
             377.02,685.10 376.75,684.62 374.00,684.00
             370.76,688.17 357.81,689.17 352.42,689.78
             352.42,689.78 346.09,690.77 346.09,690.77
             346.09,690.77 340.50,690.77 340.50,690.77
             340.50,690.77 333.00,691.95 333.00,691.95
             333.00,691.95 305.00,691.95 305.00,691.95
             305.00,691.95 292.91,690.92 292.91,690.92
             285.47,691.04 273.63,689.19 266.00,688.13
             262.45,687.64 258.45,687.78 256.00,685.00
             251.12,686.16 236.10,684.00 233.00,680.00
             227.54,681.24 223.12,678.94 217.88,677.50
             215.20,676.76 212.86,676.85 212.00,674.00
             206.55,674.82 206.84,673.71 202.01,672.45
             202.01,672.45 195.72,671.37 195.72,671.37
             191.21,670.21 187.22,667.35 183.00,665.43
             166.97,658.14 152.97,650.50 138.99,639.66
             138.99,639.66 119.00,622.00 119.00,622.00
             119.00,622.00 120.00,620.00 120.00,620.00
             115.44,616.94 112.25,604.47 111.00,599.00 Z
           M 843.00,650.00
           C 843.00,650.00 842.00,650.00 842.00,650.00
             842.00,650.00 843.00,651.00 843.00,651.00
             843.00,651.00 843.00,650.00 843.00,650.00 Z
           M 160.00,652.00
           C 160.00,652.00 159.00,652.00 159.00,652.00
             159.00,652.00 160.00,653.00 160.00,653.00
             160.00,653.00 160.00,652.00 160.00,652.00 Z
           M 830.00,657.00
           C 830.00,657.00 829.00,657.00 829.00,657.00
             829.00,657.00 830.00,658.00 830.00,658.00
             830.00,658.00 830.00,657.00 830.00,657.00 Z
           M 828.00,658.00
           C 828.00,658.00 827.00,658.00 827.00,658.00
             827.00,658.00 828.00,659.00 828.00,659.00
             828.00,659.00 828.00,658.00 828.00,658.00 Z
           M 815.00,664.00
           C 815.00,664.00 814.00,664.00 814.00,664.00
             814.00,664.00 815.00,665.00 815.00,665.00
             815.00,665.00 815.00,664.00 815.00,664.00 Z
           M 811.00,666.00
           C 811.00,666.00 810.00,666.00 810.00,666.00
             810.00,666.00 811.00,667.00 811.00,667.00
             811.00,667.00 811.00,666.00 811.00,666.00 Z
           M 190.00,667.00
           C 190.00,667.00 189.00,667.00 189.00,667.00
             189.00,667.00 190.00,668.00 190.00,668.00
             190.00,668.00 190.00,667.00 190.00,667.00 Z
           M 413.00,667.00
           C 413.00,667.00 412.00,667.00 412.00,667.00
             412.00,667.00 413.00,668.00 413.00,668.00
             413.00,668.00 413.00,667.00 413.00,667.00 Z
           M 808.00,668.00
           C 808.00,668.00 807.00,668.00 807.00,668.00
             807.00,668.00 808.00,669.00 808.00,669.00
             808.00,669.00 808.00,668.00 808.00,668.00 Z
           M 806.00,669.00
           C 806.00,669.00 805.00,669.00 805.00,669.00
             805.00,669.00 806.00,670.00 806.00,670.00
             806.00,670.00 806.00,669.00 806.00,669.00 Z
           M 196.00,670.00
           C 196.00,670.00 195.00,670.00 195.00,670.00
             195.00,670.00 196.00,671.00 196.00,671.00
             196.00,671.00 196.00,670.00 196.00,670.00 Z
           M 409.00,670.00
           C 409.00,670.00 408.00,670.00 408.00,670.00
             408.00,670.00 409.00,671.00 409.00,671.00
             409.00,671.00 409.00,670.00 409.00,670.00 Z
           M 597.00,674.00
           C 597.00,674.00 596.00,674.00 596.00,674.00
             596.00,674.00 597.00,675.00 597.00,675.00
             597.00,675.00 597.00,674.00 597.00,674.00 Z
           M 788.00,674.00
           C 788.00,674.00 787.00,674.00 787.00,674.00
             787.00,674.00 788.00,675.00 788.00,675.00
             788.00,675.00 788.00,674.00 788.00,674.00 Z
           M 785.00,675.00
           C 785.00,675.00 784.00,675.00 784.00,675.00
             784.00,675.00 785.00,676.00 785.00,676.00
             785.00,676.00 785.00,675.00 785.00,675.00 Z
           M 603.00,677.00
           C 603.00,677.00 602.00,677.00 602.00,677.00
             602.00,677.00 603.00,678.00 603.00,678.00
             603.00,678.00 603.00,677.00 603.00,677.00 Z
           M 778.00,677.00
           C 778.00,677.00 777.00,677.00 777.00,677.00
             777.00,677.00 778.00,678.00 778.00,678.00
             778.00,678.00 778.00,677.00 778.00,677.00 Z
           M 766.00,680.00
           C 766.00,680.00 765.00,680.00 765.00,680.00
             765.00,680.00 766.00,681.00 766.00,681.00
             766.00,681.00 766.00,680.00 766.00,680.00 Z
           M 238.00,681.00
           C 238.00,681.00 237.00,681.00 237.00,681.00
             237.00,681.00 238.00,682.00 238.00,682.00
             238.00,682.00 238.00,681.00 238.00,681.00 Z
           M 382.00,682.00
           C 382.00,682.00 381.00,682.00 381.00,682.00
             381.00,682.00 382.00,683.00 382.00,683.00
             382.00,683.00 382.00,682.00 382.00,682.00 Z
           M 617.00,682.00
           C 617.00,682.00 616.00,682.00 616.00,682.00
             616.00,682.00 617.00,683.00 617.00,683.00
             617.00,683.00 617.00,682.00 617.00,682.00 Z
           M 757.00,682.00
           C 757.00,682.00 756.00,682.00 756.00,682.00
             756.00,682.00 757.00,683.00 757.00,683.00
             757.00,683.00 757.00,682.00 757.00,682.00 Z
           M 629.00,685.00
           C 629.00,685.00 628.00,685.00 628.00,685.00
             628.00,685.00 629.00,686.00 629.00,686.00
             629.00,686.00 629.00,685.00 629.00,685.00 Z
           M 264.00,686.00
           C 264.00,686.00 263.00,686.00 263.00,686.00
             263.00,686.00 264.00,687.00 264.00,687.00
             264.00,687.00 264.00,686.00 264.00,686.00 Z
           M 634.00,686.00
           C 634.00,686.00 633.00,686.00 633.00,686.00
             633.00,686.00 634.00,687.00 634.00,687.00
             634.00,687.00 634.00,686.00 634.00,686.00 Z
           M 645.00,688.00
           C 645.00,688.00 644.00,688.00 644.00,688.00
             644.00,688.00 645.00,689.00 645.00,689.00
             645.00,689.00 645.00,688.00 645.00,688.00 Z
           M 347.00,689.00
           C 347.00,689.00 346.00,689.00 346.00,689.00
             346.00,689.00 347.00,690.00 347.00,690.00
             347.00,690.00 347.00,689.00 347.00,689.00 Z
           M 711.00,689.00
           C 711.00,689.00 710.00,689.00 710.00,689.00
             710.00,689.00 711.00,690.00 711.00,690.00
             711.00,690.00 711.00,689.00 711.00,689.00 Z
           M 302.00,690.00
           C 302.00,690.00 301.00,690.00 301.00,690.00
             301.00,690.00 302.00,691.00 302.00,691.00
             302.00,691.00 302.00,690.00 302.00,690.00 Z
           M 334.00,690.00
           C 334.00,690.00 333.00,690.00 333.00,690.00
             333.00,690.00 334.00,691.00 334.00,691.00
             334.00,691.00 334.00,690.00 334.00,690.00 Z
           M 665.00,690.00
           C 665.00,690.00 664.00,690.00 664.00,690.00
             664.00,690.00 665.00,691.00 665.00,691.00
             665.00,691.00 665.00,690.00 665.00,690.00 Z
           M 152.00,719.00
           C 170.47,730.55 189.47,741.42 210.00,748.95
             233.87,757.70 268.60,764.88 294.00,765.00
             294.00,765.00 304.00,765.66 304.00,765.66
             304.00,765.66 314.00,765.00 314.00,765.00
             314.00,765.00 320.00,765.00 320.00,765.00
             334.28,764.83 366.81,758.52 381.00,754.58
             396.42,750.29 411.59,744.72 426.00,737.74
             426.00,737.74 444.00,728.74 444.00,728.74
             444.00,728.74 453.00,724.00 453.00,724.00
             453.00,726.75 453.16,730.36 452.36,732.96
             450.34,739.44 443.77,744.99 437.00,745.00
             434.07,749.56 423.35,754.52 418.00,754.00
             415.86,757.24 414.75,757.20 411.00,757.00
             408.21,760.36 402.25,762.44 398.00,762.00
             394.79,766.19 387.37,766.89 382.42,767.96
             382.42,767.96 373.00,771.10 373.00,771.10
             373.00,771.10 352.83,775.14 352.83,775.14
             342.29,777.20 326.68,778.98 316.00,779.00
             316.00,779.00 302.00,779.82 302.00,779.82
             271.89,777.68 255.83,776.93 226.00,768.42
             216.13,765.60 206.38,761.95 197.00,757.77
             193.18,756.06 189.36,755.50 187.00,752.00
             187.00,752.00 185.00,753.00 185.00,753.00
             185.00,753.00 185.00,751.00 185.00,751.00
             185.00,751.00 181.00,749.00 181.00,749.00
             174.49,748.44 172.49,744.64 168.56,740.00
             161.72,731.91 157.89,728.41 152.00,719.00 Z
           M 843.00,721.00
           C 843.00,721.00 838.58,730.00 838.58,730.00
             838.58,730.00 821.91,747.96 821.91,747.96
             821.91,747.96 817.00,749.00 817.00,749.00
             815.05,751.96 814.49,751.97 811.00,752.00
             808.58,755.76 806.31,756.24 802.00,756.00
             799.91,759.06 797.36,759.52 794.00,760.87
             788.28,763.17 777.95,767.61 772.00,767.00
             769.53,769.98 767.60,769.57 764.00,769.00
             762.84,772.52 758.96,771.70 756.00,771.00
             753.53,774.00 749.72,774.10 746.00,774.75
             746.00,774.75 724.00,777.98 724.00,777.98
             691.44,780.14 677.20,780.28 644.72,774.90
             644.72,774.90 625.00,770.87 625.00,770.87
             621.53,770.01 618.34,769.85 616.00,767.00
             610.87,767.67 601.99,765.46 599.00,761.00
             594.27,761.85 585.70,759.14 583.00,755.00
             578.05,755.51 571.76,753.29 569.00,749.00
             564.72,749.00 562.73,747.67 559.00,745.74
             547.04,739.55 546.11,735.38 545.00,723.00
             545.00,723.00 554.00,728.65 554.00,728.65
             554.00,728.65 566.00,734.75 566.00,734.75
             580.95,742.18 600.94,750.00 617.00,754.57
             617.00,754.57 634.00,758.42 634.00,758.42
             647.55,761.42 666.24,764.98 680.00,765.16
             680.00,765.16 693.00,765.16 693.00,765.16
             693.00,765.16 705.00,765.16 705.00,765.16
             718.70,764.98 732.61,763.05 746.00,760.21
             746.00,760.21 771.00,754.57 771.00,754.57
             796.06,747.42 821.34,735.43 843.00,721.00 Z
           M 452.00,722.00
           C 452.00,722.00 453.00,722.00 453.00,722.00
             453.00,722.00 452.00,723.00 452.00,723.00
             452.00,723.00 452.00,722.00 452.00,722.00 Z
           M 452.00,732.00
           C 452.00,732.00 451.00,732.00 451.00,732.00
             451.00,732.00 452.00,733.00 452.00,733.00
             452.00,733.00 452.00,732.00 452.00,732.00 Z
           M 576.00,752.00
           C 576.00,752.00 575.00,752.00 575.00,752.00
             575.00,752.00 576.00,753.00 576.00,753.00
             576.00,753.00 576.00,752.00 576.00,752.00 Z
           M 190.00,753.00
           C 190.00,753.00 189.00,753.00 189.00,753.00
             189.00,753.00 190.00,754.00 190.00,754.00
             190.00,754.00 190.00,753.00 190.00,753.00 Z
           M 207.00,760.00
           C 207.00,760.00 206.00,760.00 206.00,760.00
             206.00,760.00 207.00,761.00 207.00,761.00
             207.00,761.00 207.00,760.00 207.00,760.00 Z
           M 231.00,768.00
           C 231.00,768.00 230.00,768.00 230.00,768.00
             230.00,768.00 231.00,769.00 231.00,769.00
             231.00,769.00 231.00,768.00 231.00,768.00 Z
           M 238.00,770.00
           C 238.00,770.00 237.00,770.00 237.00,770.00
             237.00,770.00 238.00,771.00 238.00,771.00
             238.00,771.00 238.00,770.00 238.00,770.00 Z
           M 257.00,843.00
           C 257.00,843.00 276.00,847.58 276.00,847.58
             286.76,849.95 308.20,852.98 319.00,853.00
             319.00,853.00 339.00,853.00 339.00,853.00
             364.83,852.96 399.47,844.74 424.00,836.48
             433.12,833.41 446.58,827.37 455.00,822.69
             460.88,819.42 462.44,816.52 469.00,814.00
             466.76,819.17 458.29,834.33 453.83,837.02
             452.12,838.05 451.76,837.81 450.00,838.00
             447.64,841.55 444.75,841.96 441.00,843.56
             434.50,846.33 425.11,851.88 418.00,851.00
             418.00,851.00 415.00,852.00 415.00,852.00
             412.45,855.10 407.65,855.63 403.91,856.78
             393.36,860.01 381.96,862.26 371.00,863.47
             371.00,863.47 355.00,865.96 355.00,865.96
             340.61,867.20 326.41,867.03 312.00,865.96
             304.14,865.57 294.52,865.67 287.00,863.20
             282.65,861.78 277.86,857.93 274.00,855.35
             268.55,851.72 261.39,847.74 257.00,843.00 Z
           M 528.00,814.00
           C 528.00,814.00 547.00,824.69 547.00,824.69
             555.60,829.34 564.79,833.04 574.00,836.31
             627.72,855.41 686.04,858.93 741.00,843.00
             736.44,848.39 727.16,854.05 721.00,857.80
             718.19,859.50 713.43,862.61 710.42,863.45
             701.82,865.85 674.87,867.01 665.00,867.00
             665.00,867.00 651.00,866.08 651.00,866.08
             626.26,864.70 602.53,859.56 579.00,852.05
             571.03,849.51 549.26,841.27 543.51,836.28
             539.71,832.98 530.61,818.88 528.00,814.00 Z
           M 558.00,842.00
           C 558.00,842.00 557.00,842.00 557.00,842.00
             557.00,842.00 558.00,843.00 558.00,843.00
             558.00,843.00 558.00,842.00 558.00,842.00 Z
           M 255.00,842.00
           C 255.00,842.00 256.00,842.00 256.00,842.00
             256.00,842.00 255.00,843.00 255.00,843.00
             255.00,843.00 255.00,842.00 255.00,842.00 Z
           M 498.00,846.00
           C 498.00,846.00 509.61,860.00 509.61,860.00
             509.61,860.00 531.00,882.71 531.00,882.71
             531.00,882.71 560.00,904.80 560.00,904.80
             560.00,904.80 576.00,915.00 576.00,915.00
             576.00,915.00 531.00,920.00 531.00,920.00
             531.00,920.00 514.00,921.00 514.00,921.00
             514.00,921.00 484.00,921.00 484.00,921.00
             484.00,921.00 472.00,920.04 472.00,920.04
             472.00,920.04 461.00,920.04 461.00,920.04
             454.27,919.92 428.53,916.55 423.00,914.00
             455.94,895.03 475.94,877.16 498.00,846.00 Z
           M 427.00,848.00
           C 427.00,848.00 426.00,848.00 426.00,848.00
             426.00,848.00 427.00,849.00 427.00,849.00
             427.00,849.00 427.00,848.00 427.00,848.00 Z" />
  <path id="Selection #2"
        fill="#41b9ef" stroke="none" stroke-width="1"
        d="M 123.00,628.00
           C 123.00,628.00 144.00,645.26 144.00,645.26
             157.85,655.27 168.16,659.85 183.00,667.27
             183.00,667.27 192.00,672.05 192.00,672.05
             192.00,672.05 216.00,678.42 216.00,678.42
             251.62,688.83 285.89,694.06 323.00,694.00
             323.00,694.00 335.00,693.09 335.00,693.09
             357.42,691.55 379.58,688.31 400.00,678.24
             411.68,672.48 423.96,663.02 429.68,651.00
             432.04,646.02 434.09,637.49 433.56,632.00
             433.47,629.28 432.97,627.98 433.56,625.00
             433.40,621.88 434.07,620.51 433.56,617.00
             432.23,595.18 413.76,576.33 397.00,564.16
             385.62,555.90 373.24,548.74 363.00,538.96
             338.57,515.63 318.03,485.25 307.52,453.00
             307.52,453.00 301.80,429.00 301.80,429.00
             299.87,419.36 297.89,405.74 298.00,396.00
             298.26,373.05 306.53,340.51 316.75,320.00
             332.23,288.97 350.22,265.48 378.00,244.24
             432.60,202.49 505.86,193.10 570.00,216.44
             585.05,221.91 599.72,230.48 613.00,239.33
             632.13,252.09 649.02,268.18 662.28,287.00
             667.30,294.12 672.42,301.29 676.51,309.00
             689.33,333.13 698.10,362.78 700.09,390.00
             700.09,390.00 700.97,399.00 700.97,399.00
             700.97,399.00 700.17,407.00 700.17,407.00
             697.49,433.79 689.39,462.16 676.68,486.00
             671.65,495.43 657.74,514.79 650.70,523.00
             643.58,531.31 629.92,544.10 621.00,550.58
             600.43,565.51 577.04,578.76 567.71,604.00
             563.23,616.12 565.89,621.59 565.26,628.00
             565.26,628.00 565.26,636.00 565.26,636.00
             565.75,653.68 580.09,668.66 595.00,676.24
             618.27,688.08 637.31,691.32 663.00,693.09
             663.00,693.09 675.00,694.00 675.00,694.00
             712.92,694.06 747.70,688.91 784.00,677.88
             784.00,677.88 806.00,672.05 806.00,672.05
             806.00,672.05 815.00,667.32 815.00,667.32
             829.01,660.66 842.42,654.07 855.00,644.85
             855.00,644.85 875.00,628.00 875.00,628.00
             873.10,633.15 870.66,636.48 867.67,641.00
             856.06,658.52 842.49,671.99 825.00,683.67
             814.44,690.72 804.62,697.37 793.00,702.69
             768.12,714.08 729.38,723.96 702.00,724.00
             702.00,724.00 685.00,724.00 685.00,724.00
             656.67,723.96 626.40,714.93 600.00,705.31
             600.00,705.31 579.00,695.74 579.00,695.74
             574.19,693.26 570.61,690.49 565.00,690.10
             553.88,689.32 543.88,697.83 543.10,709.00
             543.10,709.00 543.68,720.00 543.68,720.00
             543.28,725.26 542.09,728.73 544.36,734.00
             547.82,742.01 554.66,745.57 562.00,749.25
             574.61,755.57 591.60,762.43 605.00,767.00
             656.44,784.52 710.39,786.26 763.00,773.11
             782.87,768.14 798.41,760.89 817.00,753.00
             812.70,758.95 806.81,763.01 801.00,767.37
             786.41,778.33 782.27,781.17 766.00,789.25
             702.62,820.72 625.82,819.21 563.00,786.74
             549.63,779.83 533.93,766.76 524.67,755.00
             517.25,745.59 513.34,732.13 499.00,732.08
             484.50,732.03 479.65,745.13 472.26,755.00
             464.52,765.32 448.46,780.02 437.00,785.88
             372.89,818.64 296.89,821.61 232.00,789.25
             217.29,781.91 207.88,775.90 195.00,765.60
             190.12,761.69 184.86,757.95 181.00,753.00
             205.78,762.91 218.07,769.18 245.00,775.35
             292.96,786.34 348.65,783.11 395.00,766.41
             407.85,761.78 427.35,754.35 439.00,747.86
             445.79,744.08 451.14,741.69 454.70,734.00
             457.09,727.95 455.54,725.69 454.70,720.00
             454.48,715.86 456.20,713.42 455.88,709.00
             455.30,700.95 447.82,692.42 440.00,690.53
             428.17,687.68 411.42,700.42 400.00,704.68
             373.34,714.63 341.63,723.96 313.00,724.00
             313.00,724.00 296.00,724.00 296.00,724.00
             268.29,723.96 225.74,713.00 201.00,700.63
             186.53,693.40 166.75,680.03 155.00,669.02
             144.46,659.15 128.00,641.55 123.00,628.00 Z
           M 415.00,401.32
           C 404.22,403.74 394.44,409.88 389.38,420.00
             386.77,425.21 386.00,431.25 386.00,437.00
             386.00,441.75 386.70,448.61 388.48,453.00
             393.45,465.25 406.96,473.84 420.00,474.00
             430.42,474.12 437.39,473.37 446.00,466.61
             468.86,448.66 463.06,413.55 436.00,402.93
             429.95,400.55 421.43,400.62 415.00,401.32 Z
           M 568.00,401.32
           C 551.50,405.03 536.89,420.16 538.18,438.00
             539.57,457.18 552.79,473.75 573.00,474.00
             581.52,474.10 587.43,474.22 595.00,469.44
             621.49,452.74 618.36,414.45 589.00,402.93
             582.95,400.55 574.43,400.62 568.00,401.32 Z
           M 448.00,842.00
           C 446.93,846.07 442.96,849.10 440.00,851.99
             432.75,859.06 424.60,865.22 416.00,870.58
             397.62,882.02 374.99,892.25 353.00,892.00
             339.59,891.84 325.90,884.20 314.00,878.25
             314.00,878.25 292.00,866.00 292.00,866.00
             292.00,866.00 312.00,868.00 312.00,868.00
             312.00,868.00 345.00,868.00 345.00,868.00
             345.00,868.00 371.00,865.28 371.00,865.28
             396.96,862.05 425.10,855.03 448.00,842.00 Z
           M 549.00,842.00
           C 580.60,855.59 593.58,860.56 628.00,865.42
             636.38,866.61 645.56,867.99 654.00,868.00
             654.00,868.00 686.00,868.00 686.00,868.00
             691.27,867.99 702.46,865.99 706.00,867.00
             706.00,867.00 658.00,890.22 658.00,890.22
             652.93,891.71 647.25,892.06 642.00,892.00
             617.03,891.71 582.13,873.37 564.00,856.93
             558.50,851.94 553.37,848.10 549.00,842.00 Z" />
  <path id="Selection #3"
        fill="#86cff4" stroke="none" stroke-width="1"
        d="M 186.00,219.00
           C 190.45,212.79 202.07,201.93 208.00,196.00
             232.81,171.19 262.39,150.11 293.00,133.14
             293.00,133.14 336.00,111.43 336.00,111.43
             336.00,111.43 354.00,104.95 354.00,104.95
             386.08,93.22 415.96,85.24 450.00,81.83
             450.00,81.83 484.00,79.00 484.00,79.00
             510.66,78.96 537.60,79.28 564.00,83.44
             665.06,99.37 758.40,153.58 823.75,232.00
             871.17,288.90 902.27,356.87 914.25,430.00
             914.25,430.00 919.00,469.00 919.00,469.00
             919.00,469.00 919.00,478.00 919.00,478.00
             919.51,484.15 921.30,493.20 919.00,499.00
             918.91,489.48 916.15,476.59 914.42,467.00
             908.42,433.70 901.56,414.20 889.20,383.00
             831.45,237.21 691.35,130.40 536.00,111.72
             536.00,111.72 503.00,108.91 503.00,108.91
             503.00,108.91 493.00,108.00 493.00,108.00
             410.27,107.04 337.70,123.53 265.00,163.86
             247.32,173.67 230.19,184.77 214.00,196.89
             214.00,196.89 186.00,219.00 186.00,219.00 Z
           M 401.00,227.00
           C 401.00,227.00 402.00,227.00 402.00,227.00
             402.00,227.00 401.00,228.00 401.00,228.00
             401.00,228.00 401.00,227.00 401.00,227.00 Z
           M 621.00,243.00
           C 621.00,243.00 622.00,243.00 622.00,243.00
             622.00,243.00 621.00,244.00 621.00,244.00
             621.00,244.00 621.00,243.00 621.00,243.00 Z
           M 342.00,276.00
           C 342.00,276.00 343.00,276.00 343.00,276.00
             343.00,276.00 342.00,277.00 342.00,277.00
             342.00,277.00 342.00,276.00 342.00,276.00 Z
           M 697.00,362.00
           C 697.00,362.00 698.00,362.00 698.00,362.00
             698.00,362.00 697.00,363.00 697.00,363.00
             697.00,363.00 697.00,362.00 697.00,362.00 Z
           M 300.00,363.00
           C 300.00,363.00 301.00,363.00 301.00,363.00
             301.00,363.00 300.00,364.00 300.00,364.00
             300.00,364.00 300.00,363.00 300.00,363.00 Z
           M 335.00,778.00
           C 335.00,778.00 336.00,778.00 336.00,778.00
             336.00,778.00 335.00,779.00 335.00,779.00
             335.00,779.00 335.00,778.00 335.00,778.00 Z
           M 714.00,779.00
           C 714.00,779.00 715.00,779.00 715.00,779.00
             715.00,779.00 714.00,780.00 714.00,780.00
             714.00,780.00 714.00,779.00 714.00,779.00 Z
           M 547.00,839.00
           C 547.00,839.00 548.00,839.00 548.00,839.00
             548.00,839.00 547.00,840.00 547.00,840.00
             547.00,840.00 547.00,839.00 547.00,839.00 Z
           M 637.00,865.00
           C 637.00,865.00 638.00,865.00 638.00,865.00
             638.00,865.00 637.00,866.00 637.00,866.00
             637.00,866.00 637.00,865.00 637.00,865.00 Z
           M 647.00,866.00
           C 647.00,866.00 648.00,866.00 648.00,866.00
             648.00,866.00 647.00,867.00 647.00,867.00
             647.00,867.00 647.00,866.00 647.00,866.00 Z" />
</svg>
