<svg xmlns="http://www.w3.org/2000/svg"
     width="4.44334in" height="5.81334in"
     viewBox="0 0 1333 1744">
  <path id="Selection"
        fill="#001018" stroke="none" stroke-width="1"
        d="M 654.00,225.14
           C 654.00,225.14 685.00,225.14 685.00,225.14
             685.00,225.14 702.00,225.14 702.00,225.14
             702.00,225.14 714.00,225.91 714.00,225.91
             737.34,227.54 760.18,231.11 783.00,236.35
             814.97,243.69 832.87,249.48 863.00,262.58
             863.00,262.58 897.00,278.31 897.00,278.31
             897.00,278.31 916.00,289.80 916.00,289.80
             936.29,302.12 955.71,315.22 974.00,330.43
             974.00,330.43 992.00,346.91 992.00,346.91
             1029.47,381.82 1059.00,419.04 1083.69,464.00
             1083.69,464.00 1094.78,487.00 1094.78,487.00
             1102.46,503.26 1109.71,519.87 1115.26,537.00
             1115.26,537.00 1120.42,556.00 1120.42,556.00
             1129.01,587.25 1134.82,614.55 1137.09,647.00
             1137.09,647.00 1138.00,657.00 1138.00,657.00
             1138.00,657.00 1139.00,691.00 1139.00,691.00
             1139.00,691.00 1138.00,709.00 1138.00,709.00
             1138.00,709.00 1134.27,743.00 1134.27,743.00
             1130.35,770.21 1121.50,807.17 1112.31,833.00
             1093.34,886.31 1061.61,940.95 1023.72,982.99
             1023.72,982.99 1016.30,990.17 1016.30,990.17
             1016.30,990.17 1006.99,1001.00 1006.99,1001.00
             984.85,1023.70 954.74,1048.11 928.00,1065.30
             928.00,1065.30 912.00,1074.31 912.00,1074.31
             912.00,1074.31 881.00,1091.74 881.00,1091.74
             881.00,1091.74 858.00,1101.43 858.00,1101.43
             858.00,1101.43 813.00,1118.28 813.00,1118.28
             813.00,1118.28 787.00,1124.42 787.00,1124.42
             761.55,1130.04 739.10,1134.26 713.00,1136.09
             713.00,1136.09 701.00,1137.00 701.00,1137.00
             701.00,1137.00 661.00,1137.00 661.00,1137.00
             661.00,1137.00 651.00,1136.09 651.00,1136.09
             651.00,1136.09 617.00,1132.27 617.00,1132.27
             581.27,1127.01 549.54,1118.87 516.00,1105.45
             516.00,1105.45 481.00,1090.74 481.00,1090.74
             481.00,1090.74 464.00,1081.30 464.00,1081.30
             428.83,1061.95 396.17,1038.39 367.17,1010.58
             367.17,1010.58 358.00,1001.00 358.00,1001.00
             358.00,1001.00 341.17,984.00 341.17,984.00
             341.17,984.00 332.25,973.00 332.25,973.00
             332.25,973.00 318.89,957.00 318.89,957.00
             318.89,957.00 307.11,940.00 307.11,940.00
             288.40,912.72 271.69,883.85 259.45,853.00
             259.45,853.00 251.31,830.00 251.31,830.00
             245.48,813.63 240.18,796.99 236.42,780.00
             236.42,780.00 231.28,751.00 231.28,751.00
             231.28,751.00 230.72,743.00 230.72,743.00
             230.72,743.00 227.00,708.00 227.00,708.00
             227.00,708.00 226.00,689.00 226.00,689.00
             226.00,689.00 226.00,667.00 226.00,667.00
             226.00,667.00 227.00,650.00 227.00,650.00
             227.13,639.60 232.86,599.09 235.21,588.00
             239.48,567.84 245.44,548.40 252.31,529.00
             252.31,529.00 261.43,504.00 261.43,504.00
             298.50,417.04 361.84,343.26 442.00,293.32
             442.00,293.32 479.00,272.26 479.00,272.26
             479.00,272.26 490.00,267.69 490.00,267.69
             490.00,267.69 527.00,251.69 527.00,251.69
             552.81,242.32 590.74,233.29 618.00,229.27
             618.00,229.27 654.00,225.14 654.00,225.14 Z
           M 1106.00,700.00
           C 1106.00,700.00 1106.00,672.00 1106.00,672.00
             1106.00,672.00 1105.00,657.00 1105.00,657.00
             1104.79,638.99 1098.57,597.86 1094.35,580.00
             1087.88,552.66 1075.43,520.57 1063.69,495.00
             1049.52,464.14 1022.75,425.29 1000.16,400.00
             1000.16,400.00 985.96,384.01 985.96,384.01
             985.96,384.01 977.00,375.91 977.00,375.91
             955.86,356.25 933.53,337.60 909.00,322.23
             873.20,299.79 827.04,279.64 786.00,269.37
             786.00,269.37 756.00,263.75 756.00,263.75
             723.75,258.15 700.66,256.62 668.00,257.00
             668.00,257.00 658.00,258.04 658.00,258.04
             658.00,258.04 649.00,258.04 649.00,258.04
             649.00,258.04 609.00,263.58 609.00,263.58
             609.00,263.58 578.00,269.47 578.00,269.47
             519.24,284.17 459.88,314.40 413.00,352.61
             369.97,387.69 332.64,433.86 306.78,483.00
             306.78,483.00 300.74,496.00 300.74,496.00
             293.44,511.08 286.51,526.11 281.08,542.00
             281.08,542.00 275.58,561.00 275.58,561.00
             275.58,561.00 265.80,599.00 265.80,599.00
             262.36,616.58 260.14,634.16 258.91,652.00
             258.91,652.00 258.00,664.00 258.00,664.00
             258.00,664.00 258.00,700.00 258.00,700.00
             264.30,698.04 264.42,693.52 266.86,688.00
             269.56,681.90 276.01,670.66 279.69,665.00
             296.61,639.01 315.31,620.87 347.00,615.32
             356.91,613.58 366.98,613.98 377.00,614.00
             387.07,614.02 397.41,615.66 402.03,626.00
             403.14,628.47 403.76,631.30 403.44,634.00
             402.90,638.75 399.97,642.75 398.03,647.00
             398.03,647.00 389.02,671.00 389.02,671.00
             380.73,697.79 373.68,734.02 374.00,762.00
             374.13,772.83 377.38,792.44 386.09,799.58
             389.31,802.22 395.91,803.97 400.00,805.33
             400.00,805.33 410.00,808.49 410.00,808.49
             410.00,808.49 419.00,810.13 419.00,810.13
             419.00,810.13 436.00,814.40 436.00,814.40
             445.83,816.38 470.44,819.88 480.00,820.00
             480.00,820.00 497.00,820.68 497.00,820.68
             497.00,820.68 515.00,820.00 515.00,820.00
             531.18,819.97 548.85,816.16 564.00,810.59
             570.34,808.25 579.67,804.65 577.57,796.00
             576.32,790.86 569.04,783.75 565.00,780.47
             565.00,780.47 545.00,766.98 545.00,766.98
             545.00,766.98 526.00,752.00 526.00,752.00
             518.38,745.86 514.26,741.11 507.83,734.00
             507.83,734.00 492.01,716.00 492.01,716.00
             482.53,703.87 469.68,682.14 463.31,668.00
             463.31,668.00 459.58,658.00 459.58,658.00
             450.87,634.74 445.53,614.82 443.04,590.00
             443.04,590.00 443.04,580.00 443.04,580.00
             443.04,580.00 442.04,569.00 442.04,569.00
             442.04,569.00 443.00,554.00 443.00,554.00
             443.14,542.08 447.92,518.74 451.29,507.00
             462.67,467.36 479.20,438.59 506.83,408.00
             506.83,408.00 517.00,397.04 517.00,397.04
             539.34,375.64 568.33,357.60 597.00,346.01
             597.00,346.01 615.00,340.29 615.00,340.29
             641.72,332.62 662.23,329.68 690.00,330.00
             706.46,330.20 728.05,334.53 744.00,338.85
             801.33,354.38 852.33,391.81 884.31,442.00
             894.71,458.33 908.29,487.27 913.25,506.00
             913.25,506.00 916.20,521.00 916.20,521.00
             918.54,532.69 920.94,547.14 921.00,559.00
             921.00,559.00 921.96,574.00 921.96,574.00
             921.96,574.00 920.96,582.00 920.96,582.00
             920.96,582.00 920.96,591.00 920.96,591.00
             918.26,617.92 911.79,644.51 900.22,669.00
             900.22,669.00 887.55,694.00 887.55,694.00
             874.38,716.10 853.71,739.17 834.00,755.57
             834.00,755.57 799.00,780.90 799.00,780.90
             794.45,784.36 787.49,791.17 786.41,797.00
             784.95,804.88 794.21,808.23 800.00,810.42
             815.27,816.21 833.64,819.97 850.00,820.00
             850.00,820.00 883.00,820.00 883.00,820.00
             883.00,820.00 893.00,819.09 893.00,819.09
             911.98,817.70 929.47,813.18 948.00,809.45
             955.45,807.95 974.18,803.58 979.38,798.61
             987.35,791.00 989.98,774.63 990.00,764.00
             990.00,764.00 990.00,748.00 990.00,748.00
             989.97,728.25 983.04,697.13 977.28,678.00
             977.28,678.00 968.15,652.00 968.15,652.00
             966.25,647.53 961.62,638.26 961.20,634.00
             960.85,630.50 961.77,627.04 963.53,624.01
             971.00,611.18 992.08,613.85 1005.00,614.00
             1027.79,614.27 1053.41,626.57 1068.91,643.01
             1074.28,648.72 1079.83,658.28 1084.58,665.00
             1088.94,671.19 1094.60,681.04 1097.57,688.00
             1099.80,693.20 1100.20,698.09 1106.00,700.00 Z
           M 1075.00,770.00
           C 1071.04,772.35 1066.90,778.37 1063.72,782.00
             1058.44,788.03 1049.80,797.15 1043.83,802.33
             1039.62,805.99 1035.52,807.61 1031.00,810.61
             1014.97,821.25 1014.24,821.39 997.00,829.31
             997.00,829.31 987.00,834.05 987.00,834.05
             987.00,834.05 974.00,837.66 974.00,837.66
             938.06,848.88 900.72,856.06 863.00,856.00
             863.00,856.00 851.00,854.96 851.00,854.96
             851.00,854.96 841.00,854.96 841.00,854.96
             828.63,853.65 815.94,851.43 804.00,848.00
             781.95,841.67 752.32,827.73 752.00,801.00
             751.93,794.52 752.48,789.10 754.93,783.00
             759.66,771.23 774.79,756.09 785.00,748.75
             785.00,748.75 801.00,738.12 801.00,738.12
             821.89,722.74 842.68,702.44 855.99,680.00
             868.15,659.49 878.21,637.47 883.00,614.00
             886.10,598.79 887.02,582.50 887.00,567.00
             887.00,567.00 886.09,555.00 886.09,555.00
             886.09,555.00 883.39,529.00 883.39,529.00
             875.43,486.79 850.67,445.77 819.00,417.17
             803.08,402.79 783.60,390.80 764.00,382.14
             764.00,382.14 747.00,375.34 747.00,375.34
             737.25,372.22 706.92,366.12 697.00,366.00
             697.00,366.00 669.00,366.00 669.00,366.00
             658.41,366.02 645.34,368.66 635.00,371.12
             635.00,371.12 613.00,376.75 613.00,376.75
             597.91,381.74 571.86,396.30 559.00,405.75
             541.61,418.54 527.04,434.37 514.80,452.00
             510.35,458.41 506.06,464.08 502.31,471.00
             474.03,523.16 469.48,584.26 489.31,640.00
             493.70,652.34 494.85,656.08 501.31,668.00
             514.39,692.14 535.07,717.04 557.00,733.53
             557.00,733.53 579.00,748.49 579.00,748.49
             594.11,759.53 612.10,778.10 612.96,798.00
             613.69,814.74 600.76,829.26 587.00,837.13
             569.37,847.22 539.34,854.76 519.00,855.00
             519.00,855.00 500.00,856.00 500.00,856.00
             500.00,856.00 478.00,855.00 478.00,855.00
             459.09,854.78 424.59,847.41 406.00,842.14
             406.00,842.14 389.00,837.15 389.00,837.15
             389.00,837.15 378.00,834.24 378.00,834.24
             371.68,832.06 347.33,819.62 341.00,815.80
             327.26,807.50 317.75,800.88 306.73,788.91
             302.43,784.24 294.24,771.76 289.00,770.00
             290.00,791.43 306.87,819.96 320.42,836.00
             325.07,841.50 329.72,847.00 335.00,851.91
             367.87,882.49 413.77,900.87 458.00,906.15
             458.00,906.15 480.00,908.00 480.00,908.00
             480.00,908.00 496.00,908.00 496.00,908.00
             523.67,907.96 561.68,898.25 587.00,887.14
             587.00,887.14 601.00,880.89 601.00,880.89
             609.30,876.88 616.67,870.63 626.00,876.34
             640.00,884.92 636.88,899.95 624.00,907.65
             606.72,917.98 567.12,932.11 547.00,936.58
             499.64,947.09 440.36,944.61 395.00,926.80
             383.65,922.34 365.05,914.57 355.00,908.32
             348.30,904.15 333.76,893.03 327.00,892.00
             328.53,898.25 334.98,906.82 339.01,912.00
             348.31,923.94 361.36,937.40 373.00,947.08
             398.95,968.66 433.71,985.34 467.00,991.39
             484.11,994.49 502.64,995.03 520.00,995.00
             520.00,995.00 532.00,994.09 532.00,994.09
             556.81,992.28 582.14,987.97 605.00,977.69
             626.74,967.91 640.98,958.75 656.20,940.00
             656.20,940.00 663.11,931.00 663.11,931.00
             668.17,923.54 672.42,915.20 683.00,916.11
             693.32,916.99 697.44,926.51 702.52,934.00
             702.52,934.00 709.44,943.00 709.44,943.00
             721.91,957.78 739.55,968.70 757.00,976.69
             780.56,987.48 806.34,992.21 832.00,994.09
             832.00,994.09 844.00,995.00 844.00,995.00
             861.71,995.03 879.52,994.56 897.00,991.39
             935.19,984.45 969.02,966.67 998.00,941.15
             1011.39,929.37 1030.17,909.06 1038.00,893.00
             1031.56,891.91 1026.09,897.61 1021.00,901.00
             1010.22,908.18 998.89,914.41 987.00,919.58
             968.52,927.61 947.87,934.99 928.00,938.58
             928.00,938.58 891.00,942.09 891.00,942.09
             891.00,942.09 881.00,943.00 881.00,943.00
             881.00,943.00 872.00,943.00 872.00,943.00
             872.00,943.00 862.00,941.96 862.00,941.96
             862.00,941.96 853.00,941.96 853.00,941.96
             822.05,938.88 801.93,933.97 773.00,922.40
             773.00,922.40 742.00,908.57 742.00,908.57
             736.32,905.30 730.49,900.80 729.03,894.00
             726.83,883.81 737.85,873.12 748.00,874.20
             752.38,874.67 758.78,878.70 763.00,880.74
             763.00,880.74 790.00,892.19 790.00,892.19
             812.17,900.75 845.25,907.96 869.00,908.00
             888.22,908.03 907.10,907.03 926.00,903.19
             971.13,894.03 1017.84,869.67 1046.42,833.00
             1060.01,815.57 1073.95,792.71 1075.00,770.00 Z
           M 605.00,584.59
           C 611.16,584.65 618.82,585.96 624.00,589.47
             645.47,604.00 645.17,637.19 621.00,648.68
             614.55,651.74 610.98,652.08 604.00,652.00
             580.05,651.72 564.84,625.28 574.91,604.00
             581.18,590.76 591.16,585.84 605.00,584.59 Z
           M 758.00,584.59
           C 766.84,584.67 775.32,586.99 781.82,593.30
             795.61,606.67 795.79,633.35 779.96,645.21
             772.86,650.53 765.64,652.10 757.00,652.00
             731.37,651.70 716.61,622.57 729.22,601.00
             735.90,589.57 745.47,585.72 758.00,584.59 Z
           M 360.00,649.00
           C 353.23,649.15 348.34,650.39 342.00,652.69
             332.83,656.03 327.49,659.83 320.95,667.01
             318.06,670.19 314.47,674.29 312.36,678.00
             302.49,695.37 305.68,720.33 313.01,738.00
             317.09,747.83 329.71,767.98 340.00,771.00
             340.00,745.32 339.78,730.72 345.42,705.00
             345.42,705.00 360.00,649.00 360.00,649.00 Z
           M 1004.00,650.00
           C 1012.77,680.02 1016.60,687.48 1021.42,720.00
             1022.58,727.81 1023.99,737.18 1024.00,745.00
             1024.00,745.00 1024.00,762.00 1024.00,762.00
             1024.01,764.62 1023.35,771.62 1028.06,769.83
             1033.65,767.71 1043.46,752.51 1046.58,747.00
             1060.43,722.50 1064.35,691.92 1045.25,669.00
             1039.51,662.11 1037.04,659.78 1029.00,655.76
             1022.28,652.40 1011.47,648.22 1004.00,650.00 Z
           M 658.00,987.00
           C 658.00,987.00 634.00,1001.58 634.00,1001.58
             623.16,1007.71 606.91,1014.44 595.00,1018.25
             595.00,1018.25 577.00,1022.42 577.00,1022.42
             547.81,1028.87 533.79,1030.31 504.00,1030.00
             482.74,1029.79 464.59,1026.08 444.00,1021.35
             444.00,1021.35 427.00,1017.00 427.00,1017.00
             428.71,1022.34 433.63,1024.89 438.00,1028.12
             438.00,1028.12 467.00,1046.45 467.00,1046.45
             479.56,1053.90 507.62,1069.55 521.00,1073.08
             524.69,1074.05 532.14,1074.95 536.00,1075.00
             567.43,1075.36 597.86,1059.49 621.00,1039.15
             636.48,1025.55 639.60,1022.03 650.66,1005.00
             653.92,999.98 658.59,993.11 658.00,987.00 Z
           M 938.00,1017.00
           C 938.00,1017.00 926.00,1020.11 926.00,1020.11
             926.00,1020.11 907.00,1024.58 907.00,1024.58
             891.56,1027.98 875.77,1029.84 860.00,1030.00
             860.00,1030.00 843.00,1030.00 843.00,1030.00
             822.20,1029.97 794.27,1024.72 774.00,1019.52
             758.60,1015.58 741.93,1007.81 728.00,1000.23
             721.76,996.84 711.29,988.96 705.00,988.00
             707.27,1000.10 718.80,1014.01 726.84,1023.00
             750.21,1049.17 787.58,1074.57 824.00,1075.00
             830.03,1075.07 836.09,1074.82 842.00,1073.49
             853.59,1070.88 882.08,1055.70 893.00,1049.20
             893.00,1049.20 926.00,1028.42 926.00,1028.42
             930.42,1025.26 936.22,1022.38 938.00,1017.00 Z
           M 683.00,1022.00
           C 677.10,1024.93 671.84,1034.59 667.39,1040.00
             667.39,1040.00 640.00,1067.83 640.00,1067.83
             634.06,1073.17 622.00,1081.33 615.00,1085.55
             609.63,1088.79 603.17,1091.27 599.00,1096.00
             606.02,1099.85 618.75,1100.09 627.00,1101.27
             649.29,1104.46 670.54,1105.04 693.00,1105.00
             693.00,1105.00 711.00,1104.00 711.00,1104.00
             711.00,1104.00 752.00,1099.58 752.00,1099.58
             757.12,1098.87 763.09,1099.46 765.00,1094.00
             744.38,1085.11 717.11,1063.61 702.17,1047.00
             702.17,1047.00 683.00,1022.00 683.00,1022.00 Z
           M 205.00,1161.42
           C 212.33,1160.53 225.63,1161.18 233.00,1162.21
             233.00,1162.21 240.00,1163.79 240.00,1163.79
             240.00,1163.79 247.00,1164.47 247.00,1164.47
             247.00,1164.47 254.00,1166.40 254.00,1166.40
             254.00,1166.40 263.00,1167.92 263.00,1167.92
             274.96,1171.02 293.11,1179.52 301.96,1188.09
             308.61,1194.53 318.48,1208.51 318.96,1218.00
             319.06,1220.07 319.01,1223.07 318.26,1225.00
             315.93,1231.03 306.43,1236.50 300.00,1235.78
             286.84,1234.31 273.43,1218.05 261.00,1211.92
             240.95,1202.04 207.80,1200.14 187.00,1208.60
             170.74,1215.22 159.03,1226.65 159.00,1245.00
             159.00,1245.00 159.00,1250.00 159.00,1250.00
             159.21,1265.73 172.22,1274.35 186.00,1278.43
             186.00,1278.43 196.00,1280.36 196.00,1280.36
             196.00,1280.36 202.00,1281.79 202.00,1281.79
             202.00,1281.79 224.00,1283.21 224.00,1283.21
             224.00,1283.21 231.00,1284.79 231.00,1284.79
             231.00,1284.79 246.00,1286.20 246.00,1286.20
             246.00,1286.20 252.00,1287.63 252.00,1287.63
             252.00,1287.63 261.00,1289.04 261.00,1289.04
             277.62,1292.94 296.62,1302.28 308.98,1314.09
             318.16,1322.84 326.19,1338.49 328.53,1351.00
             328.53,1351.00 329.21,1358.00 329.21,1358.00
             330.05,1363.86 331.22,1362.46 330.98,1371.00
             330.83,1376.72 329.81,1376.72 329.21,1381.00
             329.21,1381.00 328.56,1389.00 328.56,1389.00
             327.27,1397.01 322.52,1409.16 318.19,1416.00
             308.04,1432.03 283.10,1449.54 265.00,1455.00
             265.00,1455.00 250.00,1459.72 250.00,1459.72
             250.00,1459.72 241.00,1461.19 241.00,1461.19
             241.00,1461.19 234.00,1462.79 234.00,1462.79
             222.81,1464.40 211.29,1464.13 200.00,1464.00
             193.55,1463.92 187.25,1462.78 181.00,1461.33
             155.76,1455.48 134.81,1443.57 119.77,1422.00
             118.02,1419.50 110.56,1406.47 109.80,1404.00
             108.84,1400.87 108.99,1397.26 109.00,1394.00
             109.01,1385.37 112.22,1377.15 121.00,1373.97
             124.56,1372.67 130.13,1372.96 134.00,1373.00
             153.65,1373.24 156.86,1390.52 169.00,1401.91
             184.68,1416.61 200.03,1421.27 221.00,1421.00
             226.72,1420.92 226.03,1420.41 231.00,1419.36
             231.00,1419.36 239.00,1417.78 239.00,1417.78
             258.78,1411.69 277.73,1397.41 278.00,1375.00
             278.07,1369.09 278.20,1361.62 276.33,1356.00
             272.67,1345.01 261.29,1336.38 251.00,1332.00
             237.61,1326.32 223.25,1325.28 209.00,1323.90
             209.00,1323.90 201.00,1322.21 201.00,1322.21
             201.00,1322.21 182.00,1320.80 182.00,1320.80
             166.79,1318.51 147.58,1313.02 135.00,1304.10
             129.75,1300.37 125.44,1294.28 121.81,1289.00
             109.32,1270.85 108.97,1259.97 109.00,1239.00
             109.01,1234.55 109.00,1232.43 110.04,1228.00
             112.30,1218.35 114.72,1213.69 119.08,1205.00
             124.99,1193.22 137.33,1178.11 150.00,1173.39
             158.83,1170.10 167.76,1166.77 177.00,1164.82
             177.00,1164.82 185.00,1163.63 185.00,1163.63
             185.00,1163.63 191.00,1162.21 191.00,1162.21
             191.00,1162.21 205.00,1161.42 205.00,1161.42 Z
           M 393.00,1161.48
           C 406.87,1160.69 414.04,1171.42 415.98,1184.00
             415.98,1184.00 415.98,1191.00 415.98,1191.00
             415.98,1191.00 417.08,1202.00 417.08,1202.00
             417.08,1202.00 417.08,1322.00 417.08,1322.00
             417.08,1322.00 417.08,1327.98 417.08,1327.98
             417.61,1330.03 418.34,1331.73 420.23,1332.81
             425.77,1335.99 433.49,1326.49 437.00,1323.00
             437.00,1323.00 454.96,1305.00 454.96,1305.00
             464.71,1294.81 472.77,1285.48 485.00,1277.81
             489.88,1274.75 496.12,1272.07 502.00,1273.28
             510.23,1274.97 514.35,1285.45 513.96,1293.00
             513.55,1300.92 507.96,1308.07 503.20,1314.00
             489.36,1331.20 482.28,1334.38 468.00,1348.04
             464.16,1351.71 455.12,1360.10 453.74,1365.00
             452.09,1370.88 457.30,1374.58 460.84,1378.17
             460.84,1378.17 466.09,1384.00 466.09,1384.00
             466.09,1384.00 479.00,1396.09 479.00,1396.09
             479.00,1396.09 496.00,1413.00 496.00,1413.00
             501.04,1418.05 508.25,1425.55 511.36,1432.00
             515.79,1441.23 514.96,1455.58 504.00,1459.99
             497.84,1462.47 490.41,1458.22 485.00,1455.41
             473.71,1449.54 452.19,1426.95 442.54,1416.87
             438.08,1412.20 433.97,1409.03 429.00,1405.02
             426.79,1403.23 424.21,1400.90 421.11,1401.84
             417.14,1403.05 417.05,1407.62 417.00,1411.00
             416.83,1424.03 418.86,1444.09 410.83,1454.96
             401.65,1467.38 379.36,1466.66 374.68,1446.00
             373.84,1442.29 373.01,1431.99 373.00,1428.00
             373.00,1428.00 374.00,1407.00 374.00,1407.00
             374.00,1407.00 374.00,1356.00 374.00,1356.00
             374.00,1356.00 373.00,1339.00 373.00,1339.00
             373.00,1339.00 373.00,1301.00 373.00,1301.00
             373.00,1301.00 374.00,1284.00 374.00,1284.00
             374.00,1284.00 374.00,1205.00 374.00,1205.00
             374.00,1205.00 373.09,1192.00 373.09,1192.00
             373.61,1182.93 373.67,1170.77 382.09,1165.21
             385.36,1163.05 389.20,1162.15 393.00,1161.48 Z
           M 1199.00,1166.47
           C 1212.04,1165.78 1220.99,1174.21 1222.90,1187.00
             1222.90,1187.00 1222.90,1197.00 1222.90,1197.00
             1222.90,1197.00 1223.96,1209.00 1223.96,1209.00
             1223.96,1209.00 1223.96,1226.00 1223.96,1226.00
             1223.96,1226.00 1223.00,1243.00 1223.00,1243.00
             1223.00,1243.00 1223.00,1411.00 1223.00,1411.00
             1223.00,1421.99 1224.20,1436.63 1221.58,1447.00
             1220.36,1451.83 1220.48,1454.91 1216.78,1458.89
             1213.43,1462.50 1209.52,1463.47 1205.00,1464.82
             1200.65,1466.12 1199.43,1465.99 1195.00,1466.00
             1195.00,1466.00 1150.00,1466.00 1150.00,1466.00
             1143.33,1465.91 1144.04,1464.93 1139.00,1464.21
             1139.00,1464.21 1132.00,1463.56 1132.00,1463.56
             1113.99,1460.66 1095.64,1452.51 1083.17,1438.99
             1070.22,1424.95 1065.33,1410.44 1062.72,1392.00
             1061.67,1384.60 1061.01,1385.47 1061.00,1377.00
             1060.95,1347.48 1069.23,1321.74 1094.00,1303.60
             1106.95,1294.12 1128.00,1288.02 1144.00,1288.00
             1144.00,1288.00 1166.00,1288.00 1166.00,1288.00
             1176.66,1287.98 1177.98,1286.66 1178.00,1276.00
             1178.00,1276.00 1178.00,1195.00 1178.00,1195.00
             1178.02,1179.16 1181.89,1169.00 1199.00,1166.47 Z
           M 987.00,1167.53
           C 999.10,1165.54 1013.75,1173.27 1016.61,1186.00
             1020.44,1203.03 1001.48,1212.87 992.00,1211.78
             972.10,1209.49 961.66,1175.58 987.00,1167.53 Z
           M 988.00,1256.59
           C 995.30,1255.26 1005.92,1257.38 1010.16,1264.02
             1012.87,1268.25 1013.94,1276.97 1014.00,1282.00
             1014.00,1282.00 1014.00,1346.00 1014.00,1346.00
             1014.00,1346.00 1015.00,1363.00 1015.00,1363.00
             1015.00,1363.00 1015.00,1399.00 1015.00,1399.00
             1015.00,1399.00 1014.00,1412.00 1014.00,1412.00
             1014.00,1412.00 1014.00,1429.00 1014.00,1429.00
             1013.83,1443.02 1008.59,1462.29 991.00,1460.81
             973.50,1459.34 969.17,1438.41 969.00,1424.00
             969.00,1424.00 969.00,1324.00 969.00,1324.00
             969.00,1324.00 968.05,1314.00 968.05,1314.00
             968.05,1314.00 968.05,1297.00 968.05,1297.00
             968.05,1297.00 968.83,1288.00 968.83,1288.00
             969.68,1279.13 969.82,1267.78 977.10,1261.34
             980.34,1258.48 983.98,1257.74 988.00,1256.59 Z
           M 656.00,1259.51
           C 668.41,1257.57 691.33,1258.22 700.96,1267.13
             708.21,1273.85 710.99,1286.41 711.00,1296.00
             711.00,1296.00 711.00,1534.00 711.00,1534.00
             710.99,1541.50 708.74,1552.91 704.06,1558.91
             697.79,1566.95 681.04,1568.25 673.21,1561.45
             666.28,1555.43 663.01,1540.86 663.00,1532.00
             663.00,1532.00 663.00,1461.00 663.00,1461.00
             663.00,1458.37 663.22,1454.50 661.83,1452.23
             658.75,1447.18 643.64,1448.69 638.00,1447.41
             638.00,1447.41 620.00,1444.64 620.00,1444.64
             603.19,1441.09 580.47,1434.53 567.00,1423.74
             534.32,1397.56 535.30,1354.66 552.59,1320.00
             552.59,1320.00 558.91,1308.00 558.91,1308.00
             565.33,1298.35 574.61,1289.35 584.00,1282.59
             598.48,1272.18 621.58,1265.73 639.00,1262.12
             639.00,1262.12 656.00,1259.51 656.00,1259.51 Z
           M 773.00,1262.61
           C 794.20,1258.59 798.81,1280.90 799.00,1297.00
             799.00,1297.00 799.00,1339.00 799.00,1339.00
             799.00,1339.00 801.00,1365.00 801.00,1365.00
             801.04,1374.34 802.68,1380.16 804.60,1389.00
             808.18,1405.43 820.08,1420.50 838.00,1420.98
             844.28,1421.16 844.27,1420.75 850.00,1419.28
             855.31,1417.93 858.26,1418.46 862.99,1415.06
             874.63,1406.70 875.98,1392.12 876.00,1379.00
             876.00,1379.00 876.99,1362.00 876.99,1362.00
             876.99,1362.00 876.00,1348.00 876.00,1348.00
             876.00,1348.00 876.00,1297.00 876.00,1297.00
             876.07,1291.64 876.48,1291.01 877.39,1286.00
             877.93,1283.00 878.09,1279.90 879.11,1277.00
             882.37,1267.65 891.30,1262.48 901.00,1263.18
             920.16,1264.57 921.43,1277.55 923.28,1293.00
             923.28,1293.00 925.00,1313.00 925.00,1313.00
             925.00,1313.00 925.00,1352.00 925.00,1352.00
             925.00,1352.00 923.00,1387.00 923.00,1387.00
             922.80,1403.44 916.98,1430.07 906.62,1443.00
             897.16,1454.81 883.39,1461.63 869.00,1465.42
             869.00,1465.42 857.00,1467.20 857.00,1467.20
             857.00,1467.20 850.00,1468.89 850.00,1468.89
             850.00,1468.89 833.00,1468.89 833.00,1468.89
             827.35,1468.92 815.74,1466.10 810.00,1464.58
             801.47,1462.32 796.75,1461.10 789.00,1456.19
             771.90,1445.36 764.01,1428.14 759.68,1409.00
             759.68,1409.00 758.63,1402.00 758.63,1402.00
             757.32,1395.38 756.08,1388.80 755.90,1382.00
             755.90,1382.00 755.90,1372.00 755.90,1372.00
             754.90,1365.55 754.02,1368.66 754.00,1359.00
             754.00,1359.00 754.00,1333.00 754.00,1333.00
             754.00,1333.00 754.00,1300.00 754.00,1300.00
             754.04,1291.96 754.98,1293.76 755.79,1288.00
             755.79,1288.00 756.39,1281.00 756.39,1281.00
             758.47,1271.25 763.78,1265.73 773.00,1262.61 Z
           M 651.00,1314.28
           C 639.27,1315.97 627.28,1316.47 616.00,1320.59
             604.62,1324.74 604.85,1325.13 597.09,1334.00
             588.87,1343.40 588.87,1350.31 589.00,1362.00
             589.05,1365.98 589.60,1371.29 591.04,1375.00
             593.54,1381.45 598.82,1387.76 604.17,1392.07
             612.10,1398.47 620.75,1399.43 630.00,1401.86
             630.00,1401.86 650.00,1404.32 650.00,1404.32
             653.46,1405.02 657.21,1407.07 660.35,1404.32
             663.42,1401.52 663.04,1395.77 663.00,1392.00
             663.00,1392.00 662.00,1378.00 662.00,1378.00
             662.00,1378.00 662.00,1345.00 662.00,1345.00
             662.00,1345.00 663.00,1326.00 663.00,1326.00
             662.98,1316.02 661.68,1313.33 651.00,1314.28 Z
           M 1137.00,1328.30
           C 1120.91,1333.07 1109.06,1344.33 1105.52,1361.00
             1105.52,1361.00 1105.00,1383.00 1105.00,1383.00
             1105.16,1396.11 1113.57,1412.12 1126.00,1417.41
             1138.18,1422.59 1146.20,1422.02 1159.00,1422.00
             1162.52,1421.99 1173.92,1421.61 1176.26,1419.26
             1178.35,1417.18 1178.00,1412.76 1178.00,1410.00
             1178.00,1410.00 1178.00,1342.00 1178.00,1342.00
             1178.00,1339.23 1178.35,1334.84 1176.26,1332.74
             1174.20,1330.66 1167.93,1330.37 1165.00,1329.83
             1165.00,1329.83 1158.00,1328.30 1158.00,1328.30
             1154.36,1327.70 1140.76,1327.88 1137.00,1328.30 Z" />
  <path id="Selection #1"
        fill="#bde7f9" stroke="none" stroke-width="1"
        d="M 580.00,300.00
           C 582.56,297.09 587.43,297.32 591.08,296.48
             591.08,296.48 626.47,292.22 626.47,292.22
             626.47,292.22 663.00,290.51 663.00,290.51
             663.00,290.51 676.00,291.05 676.00,291.05
             676.00,291.05 690.00,291.05 690.00,291.05
             690.00,291.05 700.00,292.47 700.00,292.47
             700.00,292.47 705.96,292.47 705.96,292.47
             705.96,292.47 725.99,295.10 725.99,295.10
             725.99,295.10 756.00,300.00 756.00,300.00
             756.00,300.00 756.00,302.00 756.00,302.00
             760.78,301.23 769.77,302.08 773.00,306.00
             776.96,305.12 783.49,306.67 786.00,310.00
             792.73,308.54 802.99,313.50 809.42,316.09
             812.46,317.31 814.82,317.43 817.00,320.04
             817.00,320.04 821.00,320.04 821.00,320.04
             821.00,320.04 836.50,326.77 836.50,326.77
             836.50,326.77 838.00,329.00 838.00,329.00
             842.55,328.78 844.51,328.94 847.00,333.00
             854.72,332.49 865.17,339.98 871.83,343.82
             875.38,345.87 878.89,345.51 880.00,350.00
             884.27,349.87 884.96,350.23 887.00,354.00
             887.00,354.00 890.00,353.00 890.00,353.00
             893.31,356.75 900.72,358.08 902.00,363.00
             906.32,363.71 906.99,364.08 909.00,368.00
             909.00,368.00 911.00,367.00 911.00,367.00
             911.00,367.00 911.00,369.00 911.00,369.00
             911.00,369.00 914.00,371.00 914.00,371.00
             919.73,371.69 934.05,382.87 937.00,388.00
             937.00,388.00 939.00,387.00 939.00,387.00
             939.00,387.00 944.00,391.00 944.00,391.00
             944.00,391.00 945.00,395.00 945.00,395.00
             948.48,395.71 948.35,395.87 950.00,399.00
             954.10,399.55 954.87,401.23 956.00,405.00
             960.27,405.04 960.63,406.14 962.00,410.00
             966.25,410.83 968.60,414.00 971.58,417.00
             976.46,421.91 982.98,426.12 985.00,433.00
             989.47,434.03 992.74,438.74 994.00,443.00
             996.84,443.76 996.49,444.15 997.00,447.00
             1000.68,447.61 1002.52,449.24 1003.00,453.00
             1007.71,455.39 1009.93,458.91 1011.00,464.00
             1015.98,464.69 1019.87,471.26 1020.00,476.00
             1020.00,476.00 1023.00,476.00 1023.00,476.00
             1023.00,476.00 1025.00,479.00 1025.00,479.00
             1025.00,479.00 1028.00,483.00 1028.00,483.00
             1029.27,490.48 1038.12,494.97 1038.00,503.00
             1038.00,503.00 1045.00,510.00 1045.00,510.00
             1046.06,516.51 1052.99,520.46 1053.00,529.00
             1059.84,533.83 1060.53,544.31 1066.00,551.00
             1066.00,551.00 1065.00,554.00 1065.00,554.00
             1068.24,556.14 1068.20,557.25 1068.00,561.00
             1068.00,561.00 1070.00,561.00 1070.00,561.00
             1070.00,561.00 1069.00,563.00 1069.00,563.00
             1069.00,563.00 1072.75,569.17 1072.75,569.17
             1072.75,569.17 1079.94,588.68 1079.94,588.68
             1079.94,588.68 1079.00,591.00 1079.00,591.00
             1081.65,592.71 1084.19,596.03 1082.00,599.00
             1083.65,601.70 1087.23,606.10 1085.00,609.00
             1085.00,609.00 1086.00,614.00 1086.00,614.00
             1086.00,614.00 1088.00,613.00 1088.00,613.00
             1088.00,613.00 1087.00,618.00 1087.00,618.00
             1087.00,618.00 1090.00,619.00 1090.00,619.00
             1090.00,619.00 1092.00,629.00 1092.00,629.00
             1092.00,629.00 1092.00,636.00 1092.00,636.00
             1092.00,636.00 1093.00,640.00 1093.00,640.00
             1093.00,640.00 1095.00,640.00 1095.00,640.00
             1095.00,640.00 1095.00,641.00 1095.00,641.00
             1095.00,641.00 1093.00,641.00 1093.00,641.00
             1093.00,641.00 1096.00,646.00 1096.00,646.00
             1096.00,646.00 1094.00,645.00 1094.00,645.00
             1098.51,656.99 1098.11,659.89 1099.83,672.00
             1100.35,675.65 1101.88,683.78 1101.00,687.00
             1091.50,665.53 1072.78,638.42 1053.00,625.70
             1037.69,615.86 1018.14,611.03 1000.00,611.00
             986.49,610.98 964.66,609.68 958.81,625.00
             957.78,627.71 957.04,631.10 957.34,634.00
             957.91,639.53 961.43,644.99 963.69,650.00
             963.69,650.00 970.33,669.00 970.33,669.00
             977.50,690.99 986.73,728.17 987.00,751.00
             987.16,764.81 986.49,786.18 976.32,796.73
             970.40,802.86 948.71,806.82 940.00,808.46
             940.00,808.46 903.00,815.72 903.00,815.72
             885.88,817.90 871.15,818.03 854.00,818.00
             838.15,817.98 818.93,814.16 804.00,808.86
             799.24,807.16 788.57,803.84 790.37,797.00
             791.17,793.99 794.87,790.20 797.01,788.00
             806.90,777.87 807.28,779.21 818.00,772.30
             834.32,761.79 850.89,746.40 863.83,732.00
             899.95,691.80 924.37,634.39 925.16,580.00
             925.16,580.00 925.16,573.00 925.16,573.00
             925.16,573.00 925.16,557.00 925.16,557.00
             924.73,534.55 915.97,499.90 907.60,479.00
             898.11,455.30 883.15,431.36 866.57,412.00
             852.15,395.15 835.42,380.92 817.00,368.67
             817.00,368.67 796.00,355.31 796.00,355.31
             787.25,350.56 778.29,347.05 769.00,343.67
             708.99,321.13 654.93,321.59 595.00,343.67
             595.00,343.67 577.00,350.89 577.00,350.89
             554.53,361.52 530.35,379.06 512.72,396.42
             495.00,413.87 476.60,436.36 465.89,459.00
             456.61,478.61 447.74,500.69 443.45,522.00
             430.69,585.39 443.80,651.22 479.67,705.00
             497.21,731.30 523.16,757.77 550.00,774.58
             556.79,778.83 564.52,783.80 569.67,790.00
             571.74,792.49 574.65,796.54 573.74,799.96
             572.21,805.70 563.86,807.79 559.00,809.34
             543.53,814.30 527.32,817.97 511.00,818.00
             511.00,818.00 505.00,818.00 505.00,818.00
             505.00,818.00 494.00,818.68 494.00,818.68
             494.00,818.68 443.00,812.92 443.00,812.92
             443.00,812.92 423.00,808.28 423.00,808.28
             414.44,806.85 406.25,804.73 398.00,802.00
             394.12,800.72 390.40,799.83 387.48,796.78
             381.09,790.10 378.04,771.18 378.00,762.00
             377.91,743.13 380.05,727.50 383.39,709.00
             383.39,709.00 385.23,698.00 385.23,698.00
             385.23,698.00 392.72,672.00 392.72,672.00
             392.72,672.00 401.89,648.00 401.89,648.00
             404.74,641.92 408.39,637.25 407.34,630.00
             404.91,613.13 386.76,611.02 373.00,611.00
             336.73,610.94 309.41,619.16 286.24,649.01
             286.24,649.01 262.00,688.00 262.00,688.00
             262.00,688.00 262.00,662.00 262.00,662.00
             262.03,645.60 266.50,615.49 269.80,599.00
             279.92,548.37 294.86,508.34 321.60,464.00
             328.23,453.01 339.49,435.72 347.46,426.00
             347.46,426.00 353.61,419.29 353.61,419.29
             357.73,414.44 362.45,406.24 369.00,405.00
             369.00,405.00 382.00,391.00 382.00,391.00
             382.00,391.00 386.00,391.00 386.00,391.00
             388.43,386.02 393.27,381.24 399.00,381.00
             400.01,376.14 403.53,375.43 407.25,372.63
             407.25,372.63 424.72,360.50 424.72,360.50
             428.57,357.88 431.24,355.47 436.00,355.00
             436.00,355.00 447.00,347.00 447.00,347.00
             447.00,347.00 449.00,348.00 449.00,348.00
             452.11,343.37 469.50,334.01 475.00,334.00
             477.42,330.75 480.05,330.00 484.00,330.00
             486.17,326.65 488.42,326.24 492.00,324.80
             497.66,322.53 504.98,318.23 511.00,319.00
             513.26,315.39 521.99,313.59 526.09,312.07
             526.09,312.07 560.00,302.63 560.00,302.63
             565.86,301.17 574.07,298.91 580.00,300.00 Z
           M 566.00,302.00
           C 566.00,302.00 565.00,302.00 565.00,302.00
             565.00,302.00 566.00,303.00 566.00,303.00
             566.00,303.00 566.00,302.00 566.00,302.00 Z
           M 769.00,304.00
           C 769.00,304.00 768.00,304.00 768.00,304.00
             768.00,304.00 769.00,305.00 769.00,305.00
             769.00,305.00 769.00,304.00 769.00,304.00 Z
           M 554.00,305.00
           C 554.00,305.00 553.00,305.00 553.00,305.00
             553.00,305.00 554.00,306.00 554.00,306.00
             554.00,306.00 554.00,305.00 554.00,305.00 Z
           M 543.00,308.00
           C 543.00,308.00 542.00,308.00 542.00,308.00
             542.00,308.00 543.00,309.00 543.00,309.00
             543.00,309.00 543.00,308.00 543.00,308.00 Z
           M 536.00,310.00
           C 536.00,310.00 535.00,310.00 535.00,310.00
             535.00,310.00 536.00,311.00 536.00,311.00
             536.00,311.00 536.00,310.00 536.00,310.00 Z
           M 790.00,310.00
           C 790.00,310.00 789.00,310.00 789.00,310.00
             789.00,310.00 790.00,311.00 790.00,311.00
             790.00,311.00 790.00,310.00 790.00,310.00 Z
           M 533.00,311.00
           C 533.00,311.00 532.00,311.00 532.00,311.00
             532.00,311.00 533.00,312.00 533.00,312.00
             533.00,312.00 533.00,311.00 533.00,311.00 Z
           M 530.00,312.00
           C 530.00,312.00 529.00,312.00 529.00,312.00
             529.00,312.00 530.00,313.00 530.00,313.00
             530.00,313.00 530.00,312.00 530.00,312.00 Z
           M 527.00,313.00
           C 527.00,313.00 526.00,313.00 526.00,313.00
             526.00,313.00 527.00,314.00 527.00,314.00
             527.00,314.00 527.00,313.00 527.00,313.00 Z
           M 803.00,314.00
           C 803.00,314.00 802.00,314.00 802.00,314.00
             802.00,314.00 803.00,315.00 803.00,315.00
             803.00,315.00 803.00,314.00 803.00,314.00 Z
           M 506.00,320.00
           C 506.00,320.00 505.00,320.00 505.00,320.00
             505.00,320.00 506.00,321.00 506.00,321.00
             506.00,321.00 506.00,320.00 506.00,320.00 Z
           M 825.00,322.00
           C 825.00,322.00 824.00,322.00 824.00,322.00
             824.00,322.00 825.00,323.00 825.00,323.00
             825.00,323.00 825.00,322.00 825.00,322.00 Z
           M 499.00,323.00
           C 499.00,323.00 498.00,323.00 498.00,323.00
             498.00,323.00 499.00,324.00 499.00,324.00
             499.00,324.00 499.00,323.00 499.00,323.00 Z
           M 830.00,324.00
           C 830.00,324.00 829.00,324.00 829.00,324.00
             829.00,324.00 830.00,325.00 830.00,325.00
             830.00,325.00 830.00,324.00 830.00,324.00 Z
           M 481.00,331.00
           C 481.00,331.00 480.00,331.00 480.00,331.00
             480.00,331.00 481.00,332.00 481.00,332.00
             481.00,332.00 481.00,331.00 481.00,331.00 Z
           M 474.00,334.00
           C 474.00,334.00 473.00,334.00 473.00,334.00
             473.00,334.00 474.00,335.00 474.00,335.00
             474.00,335.00 474.00,334.00 474.00,334.00 Z
           M 472.00,335.00
           C 472.00,335.00 471.00,335.00 471.00,335.00
             471.00,335.00 472.00,336.00 472.00,336.00
             472.00,336.00 472.00,335.00 472.00,335.00 Z
           M 883.00,350.00
           C 883.00,350.00 882.00,350.00 882.00,350.00
             882.00,350.00 883.00,351.00 883.00,351.00
             883.00,351.00 883.00,350.00 883.00,350.00 Z
           M 439.00,353.00
           C 439.00,353.00 438.00,353.00 438.00,353.00
             438.00,353.00 439.00,354.00 439.00,354.00
             439.00,354.00 439.00,353.00 439.00,353.00 Z
           M 434.00,356.00
           C 434.00,356.00 433.00,356.00 433.00,356.00
             433.00,356.00 434.00,357.00 434.00,357.00
             434.00,357.00 434.00,356.00 434.00,356.00 Z
           M 431.00,358.00
           C 431.00,358.00 430.00,358.00 430.00,358.00
             430.00,358.00 431.00,359.00 431.00,359.00
             431.00,359.00 431.00,358.00 431.00,358.00 Z
           M 899.00,360.00
           C 899.00,360.00 898.00,360.00 898.00,360.00
             898.00,360.00 899.00,361.00 899.00,361.00
             899.00,361.00 899.00,360.00 899.00,360.00 Z
           M 417.00,367.00
           C 417.00,367.00 416.00,367.00 416.00,367.00
             416.00,367.00 417.00,368.00 417.00,368.00
             417.00,368.00 417.00,367.00 417.00,367.00 Z
           M 415.00,368.00
           C 415.00,368.00 414.00,368.00 414.00,368.00
             414.00,368.00 415.00,369.00 415.00,369.00
             415.00,369.00 415.00,368.00 415.00,368.00 Z
           M 485.00,529.00
           C 485.00,529.00 490.52,507.00 490.52,507.00
             495.59,491.29 508.55,466.50 518.04,453.00
             523.03,445.90 529.03,439.35 534.91,433.00
             534.91,433.00 542.04,425.09 542.04,425.09
             565.79,401.96 597.07,384.50 629.00,375.85
             642.04,372.32 655.40,369.02 669.00,368.84
             669.00,368.84 680.00,368.84 680.00,368.84
             680.00,368.84 690.00,368.84 690.00,368.84
             749.57,369.69 807.45,401.77 842.87,449.00
             850.20,458.77 857.24,468.85 862.30,480.00
             868.52,493.68 874.30,507.37 877.87,522.00
             879.01,526.67 881.61,534.59 880.00,539.00
             880.00,539.00 873.00,511.00 873.00,511.00
             873.00,511.00 866.00,500.00 866.00,500.00
             866.00,500.00 867.00,497.00 867.00,497.00
             862.43,494.26 861.84,490.44 859.25,486.00
             859.25,486.00 846.04,465.58 846.04,465.58
             842.75,461.39 837.99,457.32 837.00,452.00
             833.56,450.07 832.79,449.95 832.00,446.00
             826.51,444.38 821.70,439.48 820.00,434.00
             814.92,433.47 808.14,427.59 806.00,423.00
             806.00,423.00 804.00,424.00 804.00,424.00
             798.84,418.71 785.76,411.35 779.00,407.59
             774.90,405.31 769.61,404.06 767.00,400.00
             762.02,400.06 759.51,398.11 755.00,396.34
             755.00,396.34 737.28,390.31 737.28,390.31
             723.84,386.05 704.09,382.98 690.00,383.00
             671.19,383.02 665.34,382.19 646.00,386.00
             646.00,386.00 633.00,388.59 633.00,388.59
             633.00,388.59 621.00,392.05 621.00,392.05
             619.05,392.42 618.82,392.23 617.00,392.05
             617.00,392.05 614.00,393.00 614.00,393.00
             614.00,393.00 611.00,394.00 611.00,394.00
             609.02,397.06 607.50,397.06 604.00,397.00
             604.00,397.00 579.00,411.20 579.00,411.20
             579.00,411.20 567.00,417.00 567.00,417.00
             567.00,417.00 562.00,420.00 562.00,420.00
             561.17,423.40 560.35,423.51 557.00,424.00
             555.23,427.59 554.98,428.22 551.00,429.00
             548.31,434.57 544.67,436.26 540.29,440.41
             535.47,444.98 531.04,451.40 525.00,454.00
             524.59,457.55 524.39,457.83 521.00,459.00
             521.00,459.00 518.00,463.00 518.00,463.00
             517.86,467.04 517.15,469.07 513.00,470.00
             513.00,470.00 513.00,474.00 513.00,474.00
             513.00,474.00 511.00,473.00 511.00,473.00
             510.04,479.42 508.11,479.96 505.27,485.17
             502.89,489.54 501.16,495.04 497.00,498.00
             497.09,500.98 497.35,501.10 495.00,503.00
             495.00,503.00 496.00,505.00 496.00,505.00
             496.00,505.00 494.00,505.00 494.00,505.00
             494.07,508.98 493.29,512.53 490.00,515.00
             490.25,519.47 488.68,526.18 485.00,529.00 Z
           M 395.00,383.00
           C 395.00,383.00 394.00,383.00 394.00,383.00
             394.00,383.00 395.00,384.00 395.00,384.00
             395.00,384.00 395.00,383.00 395.00,383.00 Z
           M 390.00,387.00
           C 390.00,387.00 389.00,387.00 389.00,387.00
             389.00,387.00 390.00,388.00 390.00,388.00
             390.00,388.00 390.00,387.00 390.00,387.00 Z
           M 942.00,391.00
           C 942.00,391.00 941.00,391.00 941.00,391.00
             941.00,391.00 942.00,392.00 942.00,392.00
             942.00,392.00 942.00,391.00 942.00,391.00 Z
           M 380.00,395.00
           C 380.00,395.00 379.00,395.00 379.00,395.00
             379.00,395.00 380.00,396.00 380.00,396.00
             380.00,396.00 380.00,395.00 380.00,395.00 Z
           M 591.00,403.00
           C 591.00,403.00 590.00,403.00 590.00,403.00
             590.00,403.00 591.00,404.00 591.00,404.00
             591.00,404.00 591.00,403.00 591.00,403.00 Z
           M 368.00,405.00
           C 368.00,405.00 367.00,405.00 367.00,405.00
             367.00,405.00 368.00,406.00 368.00,406.00
             368.00,406.00 368.00,405.00 368.00,405.00 Z
           M 787.00,410.00
           C 787.00,410.00 786.00,410.00 786.00,410.00
             786.00,410.00 787.00,411.00 787.00,411.00
             787.00,411.00 787.00,410.00 787.00,410.00 Z
           M 575.00,412.00
           C 575.00,412.00 574.00,412.00 574.00,412.00
             574.00,412.00 575.00,413.00 575.00,413.00
             575.00,413.00 575.00,412.00 575.00,412.00 Z
           M 572.00,414.00
           C 572.00,414.00 571.00,414.00 571.00,414.00
             571.00,414.00 572.00,415.00 572.00,415.00
             572.00,415.00 572.00,414.00 572.00,414.00 Z
           M 795.00,415.00
           C 795.00,415.00 794.00,415.00 794.00,415.00
             794.00,415.00 795.00,416.00 795.00,416.00
             795.00,416.00 795.00,415.00 795.00,415.00 Z
           M 569.00,416.00
           C 569.00,416.00 568.00,416.00 568.00,416.00
             568.00,416.00 569.00,417.00 569.00,417.00
             569.00,417.00 569.00,416.00 569.00,416.00 Z
           M 566.00,418.00
           C 566.00,418.00 565.00,418.00 565.00,418.00
             565.00,418.00 566.00,419.00 566.00,419.00
             566.00,419.00 566.00,418.00 566.00,418.00 Z
           M 976.00,422.00
           C 976.00,422.00 975.00,422.00 975.00,422.00
             975.00,422.00 976.00,423.00 976.00,423.00
             976.00,423.00 976.00,422.00 976.00,422.00 Z
           M 559.00,423.00
           C 559.00,423.00 558.00,423.00 558.00,423.00
             558.00,423.00 559.00,424.00 559.00,424.00
             559.00,424.00 559.00,423.00 559.00,423.00 Z
           M 977.00,423.00
           C 977.00,423.00 976.00,423.00 976.00,423.00
             976.00,423.00 977.00,424.00 977.00,424.00
             977.00,424.00 977.00,423.00 977.00,423.00 Z
           M 978.00,424.00
           C 978.00,424.00 977.00,424.00 977.00,424.00
             977.00,424.00 978.00,425.00 978.00,425.00
             978.00,425.00 978.00,424.00 978.00,424.00 Z
           M 979.00,425.00
           C 979.00,425.00 978.00,425.00 978.00,425.00
             978.00,425.00 979.00,426.00 979.00,426.00
             979.00,426.00 979.00,425.00 979.00,425.00 Z
           M 554.00,427.00
           C 554.00,427.00 553.00,427.00 553.00,427.00
             553.00,427.00 554.00,428.00 554.00,428.00
             554.00,428.00 554.00,427.00 554.00,427.00 Z
           M 981.00,427.00
           C 981.00,427.00 980.00,427.00 980.00,427.00
             980.00,427.00 981.00,428.00 981.00,428.00
             981.00,428.00 981.00,427.00 981.00,427.00 Z
           M 982.00,428.00
           C 982.00,428.00 981.00,428.00 981.00,428.00
             981.00,428.00 982.00,429.00 982.00,429.00
             982.00,429.00 982.00,428.00 982.00,428.00 Z
           M 549.00,431.00
           C 549.00,431.00 548.00,431.00 548.00,431.00
             548.00,431.00 549.00,432.00 549.00,432.00
             549.00,432.00 549.00,431.00 549.00,431.00 Z
           M 989.00,436.00
           C 989.00,436.00 988.00,436.00 988.00,436.00
             988.00,436.00 989.00,437.00 989.00,437.00
             989.00,437.00 989.00,436.00 989.00,436.00 Z
           M 990.00,437.00
           C 990.00,437.00 989.00,437.00 989.00,437.00
             989.00,437.00 990.00,438.00 990.00,438.00
             990.00,438.00 990.00,437.00 990.00,437.00 Z
           M 838.00,453.00
           C 838.00,453.00 837.00,453.00 837.00,453.00
             837.00,453.00 838.00,454.00 838.00,454.00
             838.00,454.00 838.00,453.00 838.00,453.00 Z
           M 845.00,461.00
           C 845.00,461.00 844.00,461.00 844.00,461.00
             844.00,461.00 845.00,462.00 845.00,462.00
             845.00,462.00 845.00,461.00 845.00,461.00 Z
           M 517.00,466.00
           C 517.00,466.00 516.00,466.00 516.00,466.00
             516.00,466.00 517.00,467.00 517.00,467.00
             517.00,467.00 517.00,466.00 517.00,466.00 Z
           M 501.00,491.00
           C 501.00,491.00 500.00,491.00 500.00,491.00
             500.00,491.00 501.00,492.00 501.00,492.00
             501.00,492.00 501.00,491.00 501.00,491.00 Z
           M 500.00,493.00
           C 500.00,493.00 499.00,493.00 499.00,493.00
             499.00,493.00 500.00,494.00 500.00,494.00
             500.00,494.00 500.00,493.00 500.00,493.00 Z
           M 497.00,499.00
           C 497.00,499.00 496.00,499.00 496.00,499.00
             496.00,499.00 497.00,500.00 497.00,500.00
             497.00,500.00 497.00,499.00 497.00,499.00 Z
           M 1038.00,500.00
           C 1038.00,500.00 1037.00,500.00 1037.00,500.00
             1037.00,500.00 1038.00,501.00 1038.00,501.00
             1038.00,501.00 1038.00,500.00 1038.00,500.00 Z
           M 869.00,501.00
           C 869.00,501.00 868.00,501.00 868.00,501.00
             868.00,501.00 869.00,502.00 869.00,502.00
             869.00,502.00 869.00,501.00 869.00,501.00 Z
           M 1041.00,505.00
           C 1041.00,505.00 1040.00,505.00 1040.00,505.00
             1040.00,505.00 1041.00,506.00 1041.00,506.00
             1041.00,506.00 1041.00,505.00 1041.00,505.00 Z
           M 875.00,515.00
           C 875.00,515.00 874.00,515.00 874.00,515.00
             874.00,515.00 875.00,516.00 875.00,516.00
             875.00,516.00 875.00,515.00 875.00,515.00 Z
           M 1053.00,527.00
           C 1053.00,527.00 1052.00,527.00 1052.00,527.00
             1052.00,527.00 1053.00,528.00 1053.00,528.00
             1053.00,528.00 1053.00,527.00 1053.00,527.00 Z
           M 1062.00,545.00
           C 1062.00,545.00 1061.00,545.00 1061.00,545.00
             1061.00,545.00 1062.00,546.00 1062.00,546.00
             1062.00,546.00 1062.00,545.00 1062.00,545.00 Z
           M 1063.00,547.00
           C 1063.00,547.00 1062.00,547.00 1062.00,547.00
             1062.00,547.00 1063.00,548.00 1063.00,548.00
             1063.00,548.00 1063.00,547.00 1063.00,547.00 Z
           M 882.00,548.00
           C 882.00,548.00 883.00,548.00 883.00,548.00
             883.00,548.00 882.00,549.00 882.00,549.00
             882.00,549.00 882.00,548.00 882.00,548.00 Z
           M 1078.00,584.00
           C 1078.00,584.00 1077.00,584.00 1077.00,584.00
             1077.00,584.00 1078.00,585.00 1078.00,585.00
             1078.00,585.00 1078.00,584.00 1078.00,584.00 Z
           M 1079.00,587.00
           C 1079.00,587.00 1078.00,587.00 1078.00,587.00
             1078.00,587.00 1079.00,588.00 1079.00,588.00
             1079.00,588.00 1079.00,587.00 1079.00,587.00 Z
           M 1081.00,593.00
           C 1081.00,593.00 1080.00,593.00 1080.00,593.00
             1080.00,593.00 1081.00,594.00 1081.00,594.00
             1081.00,594.00 1081.00,593.00 1081.00,593.00 Z
           M 1090.00,623.00
           C 1090.00,623.00 1089.00,623.00 1089.00,623.00
             1089.00,623.00 1090.00,624.00 1090.00,624.00
             1090.00,624.00 1090.00,623.00 1090.00,623.00 Z
           M 1096.00,650.00
           C 1096.00,650.00 1097.00,650.00 1097.00,650.00
             1097.00,650.00 1096.00,651.00 1096.00,651.00
             1096.00,651.00 1096.00,650.00 1096.00,650.00 Z
           M 336.00,765.00
           C 331.08,760.90 324.34,751.61 321.01,746.00
             306.28,721.14 302.72,691.26 324.04,669.00
             326.71,666.21 329.80,663.08 333.00,660.91
             340.00,656.17 347.86,654.53 356.00,653.00
             346.56,680.21 336.04,719.27 336.00,748.00
             336.00,748.00 336.00,765.00 336.00,765.00 Z
           M 1010.00,654.00
           C 1017.24,654.34 1021.60,655.97 1028.00,659.26
             1044.48,667.73 1054.57,685.62 1054.99,704.00
             1055.24,715.37 1052.31,725.55 1048.20,736.00
             1048.20,736.00 1044.48,745.00 1044.48,745.00
             1041.41,750.62 1032.84,760.77 1028.00,765.00
             1028.00,739.93 1027.54,729.89 1022.55,705.00
             1022.55,705.00 1016.27,677.00 1016.27,677.00
             1016.27,677.00 1010.00,654.00 1010.00,654.00 Z
           M 1101.00,688.00
           C 1101.00,688.00 1102.00,688.00 1102.00,688.00
             1102.00,688.00 1101.00,689.00 1101.00,689.00
             1101.00,689.00 1101.00,688.00 1101.00,688.00 Z
           M 1071.00,777.00
           C 1071.00,777.00 1072.00,777.00 1072.00,777.00
             1072.00,777.00 1071.00,778.00 1071.00,778.00
             1071.00,778.00 1071.00,777.00 1071.00,777.00 Z
           M 1070.00,779.00
           C 1071.15,783.27 1068.48,788.93 1066.94,793.00
             1062.19,805.49 1057.61,806.76 1048.58,815.16
             1043.74,819.67 1037.53,825.63 1031.00,827.00
             1030.04,830.92 1027.78,831.63 1024.00,832.00
             1021.51,835.96 1018.60,837.19 1014.00,837.00
             1013.05,840.49 1011.26,840.18 1008.00,840.00
             1006.89,844.01 1002.64,844.38 999.00,844.00
             995.57,849.64 989.72,850.93 983.85,852.50
             983.85,852.50 951.00,862.15 951.00,862.15
             947.42,863.18 937.85,866.32 935.00,864.00
             929.89,867.96 917.30,869.62 911.00,868.00
             907.37,872.11 891.29,871.24 885.55,871.85
             866.61,873.88 839.66,873.92 821.17,869.49
             814.93,868.00 808.12,868.42 803.00,864.00
             799.97,866.39 792.90,862.91 791.00,860.00
             784.25,860.58 780.93,857.72 775.59,854.17
             768.81,849.64 760.85,845.65 759.00,837.00
             759.00,837.00 757.00,838.00 757.00,838.00
             754.76,832.34 751.64,829.27 753.00,823.00
             750.53,820.80 750.54,818.15 751.00,815.00
             754.32,820.08 756.62,824.59 761.04,828.91
             781.42,848.83 821.07,857.96 849.00,858.04
             849.00,858.04 858.00,858.04 858.00,858.04
             861.87,858.35 863.71,859.15 868.00,858.91
             868.00,858.91 880.00,858.00 880.00,858.00
             900.95,857.97 935.66,852.23 956.00,846.58
             956.00,846.58 973.00,841.03 973.00,841.03
             973.00,841.03 988.00,836.90 988.00,836.90
             988.00,836.90 1018.00,822.30 1018.00,822.30
             1036.42,812.19 1058.64,796.90 1070.00,779.00 Z
           M 294.00,780.00
           C 294.00,780.00 312.00,798.91 312.00,798.91
             319.53,805.93 332.96,814.70 342.00,819.99
             342.00,819.99 367.00,831.98 367.00,831.98
             367.00,831.98 376.00,836.79 376.00,836.79
             376.00,836.79 391.00,841.00 391.00,841.00
             422.90,851.53 456.42,857.61 490.00,858.00
             490.00,858.00 498.00,858.68 498.00,858.68
             498.00,858.68 518.00,858.00 518.00,858.00
             536.51,857.78 567.65,851.28 584.00,842.68
             591.18,838.90 600.42,831.90 605.91,826.00
             605.91,826.00 614.00,816.00 614.00,816.00
             613.47,827.41 608.96,835.94 601.33,844.28
             597.69,848.27 594.70,852.07 589.00,852.00
             589.00,852.00 586.00,854.00 586.00,854.00
             586.00,854.00 584.00,855.00 584.00,855.00
             581.06,860.04 567.70,865.10 562.00,864.00
             560.02,866.10 559.75,865.62 557.00,865.00
             553.76,869.17 540.81,870.17 535.42,870.78
             535.42,870.78 529.09,871.77 529.09,871.77
             529.09,871.77 523.50,871.77 523.50,871.77
             523.50,871.77 516.00,872.95 516.00,872.95
             516.00,872.95 488.00,872.95 488.00,872.95
             488.00,872.95 475.91,871.92 475.91,871.92
             468.47,872.04 456.63,870.19 449.00,869.13
             445.45,868.64 441.45,868.78 439.00,866.00
             434.12,867.16 419.10,865.00 416.00,861.00
             410.54,862.24 406.12,859.94 400.88,858.50
             398.20,857.76 395.86,857.85 395.00,855.00
             389.55,855.82 389.84,854.71 385.01,853.45
             385.01,853.45 378.72,852.37 378.72,852.37
             374.21,851.21 370.22,848.35 366.00,846.43
             349.97,839.14 335.97,831.50 321.99,820.66
             321.99,820.66 302.00,803.00 302.00,803.00
             302.00,803.00 303.00,801.00 303.00,801.00
             298.44,797.94 295.25,785.47 294.00,780.00 Z
           M 1026.00,831.00
           C 1026.00,831.00 1025.00,831.00 1025.00,831.00
             1025.00,831.00 1026.00,832.00 1026.00,832.00
             1026.00,832.00 1026.00,831.00 1026.00,831.00 Z
           M 343.00,833.00
           C 343.00,833.00 342.00,833.00 342.00,833.00
             342.00,833.00 343.00,834.00 343.00,834.00
             343.00,834.00 343.00,833.00 343.00,833.00 Z
           M 1013.00,838.00
           C 1013.00,838.00 1012.00,838.00 1012.00,838.00
             1012.00,838.00 1013.00,839.00 1013.00,839.00
             1013.00,839.00 1013.00,838.00 1013.00,838.00 Z
           M 1011.00,839.00
           C 1011.00,839.00 1010.00,839.00 1010.00,839.00
             1010.00,839.00 1011.00,840.00 1011.00,840.00
             1011.00,840.00 1011.00,839.00 1011.00,839.00 Z
           M 998.00,845.00
           C 998.00,845.00 997.00,845.00 997.00,845.00
             997.00,845.00 998.00,846.00 998.00,846.00
             998.00,846.00 998.00,845.00 998.00,845.00 Z
           M 994.00,847.00
           C 994.00,847.00 993.00,847.00 993.00,847.00
             993.00,847.00 994.00,848.00 994.00,848.00
             994.00,848.00 994.00,847.00 994.00,847.00 Z
           M 373.00,848.00
           C 373.00,848.00 372.00,848.00 372.00,848.00
             372.00,848.00 373.00,849.00 373.00,849.00
             373.00,849.00 373.00,848.00 373.00,848.00 Z
           M 596.00,848.00
           C 596.00,848.00 595.00,848.00 595.00,848.00
             595.00,848.00 596.00,849.00 596.00,849.00
             596.00,849.00 596.00,848.00 596.00,848.00 Z
           M 991.00,849.00
           C 991.00,849.00 990.00,849.00 990.00,849.00
             990.00,849.00 991.00,850.00 991.00,850.00
             991.00,850.00 991.00,849.00 991.00,849.00 Z
           M 989.00,850.00
           C 989.00,850.00 988.00,850.00 988.00,850.00
             988.00,850.00 989.00,851.00 989.00,851.00
             989.00,851.00 989.00,850.00 989.00,850.00 Z
           M 379.00,851.00
           C 379.00,851.00 378.00,851.00 378.00,851.00
             378.00,851.00 379.00,852.00 379.00,852.00
             379.00,852.00 379.00,851.00 379.00,851.00 Z
           M 592.00,851.00
           C 592.00,851.00 591.00,851.00 591.00,851.00
             591.00,851.00 592.00,852.00 592.00,852.00
             592.00,852.00 592.00,851.00 592.00,851.00 Z
           M 780.00,855.00
           C 780.00,855.00 779.00,855.00 779.00,855.00
             779.00,855.00 780.00,856.00 780.00,856.00
             780.00,856.00 780.00,855.00 780.00,855.00 Z
           M 971.00,855.00
           C 971.00,855.00 970.00,855.00 970.00,855.00
             970.00,855.00 971.00,856.00 971.00,856.00
             971.00,856.00 971.00,855.00 971.00,855.00 Z
           M 968.00,856.00
           C 968.00,856.00 967.00,856.00 967.00,856.00
             967.00,856.00 968.00,857.00 968.00,857.00
             968.00,857.00 968.00,856.00 968.00,856.00 Z
           M 786.00,858.00
           C 786.00,858.00 785.00,858.00 785.00,858.00
             785.00,858.00 786.00,859.00 786.00,859.00
             786.00,859.00 786.00,858.00 786.00,858.00 Z
           M 961.00,858.00
           C 961.00,858.00 960.00,858.00 960.00,858.00
             960.00,858.00 961.00,859.00 961.00,859.00
             961.00,859.00 961.00,858.00 961.00,858.00 Z
           M 949.00,861.00
           C 949.00,861.00 948.00,861.00 948.00,861.00
             948.00,861.00 949.00,862.00 949.00,862.00
             949.00,862.00 949.00,861.00 949.00,861.00 Z
           M 421.00,862.00
           C 421.00,862.00 420.00,862.00 420.00,862.00
             420.00,862.00 421.00,863.00 421.00,863.00
             421.00,863.00 421.00,862.00 421.00,862.00 Z
           M 565.00,863.00
           C 565.00,863.00 564.00,863.00 564.00,863.00
             564.00,863.00 565.00,864.00 565.00,864.00
             565.00,864.00 565.00,863.00 565.00,863.00 Z
           M 800.00,863.00
           C 800.00,863.00 799.00,863.00 799.00,863.00
             799.00,863.00 800.00,864.00 800.00,864.00
             800.00,864.00 800.00,863.00 800.00,863.00 Z
           M 940.00,863.00
           C 940.00,863.00 939.00,863.00 939.00,863.00
             939.00,863.00 940.00,864.00 940.00,864.00
             940.00,864.00 940.00,863.00 940.00,863.00 Z
           M 812.00,866.00
           C 812.00,866.00 811.00,866.00 811.00,866.00
             811.00,866.00 812.00,867.00 812.00,867.00
             812.00,867.00 812.00,866.00 812.00,866.00 Z
           M 447.00,867.00
           C 447.00,867.00 446.00,867.00 446.00,867.00
             446.00,867.00 447.00,868.00 447.00,868.00
             447.00,868.00 447.00,867.00 447.00,867.00 Z
           M 817.00,867.00
           C 817.00,867.00 816.00,867.00 816.00,867.00
             816.00,867.00 817.00,868.00 817.00,868.00
             817.00,868.00 817.00,867.00 817.00,867.00 Z
           M 828.00,869.00
           C 828.00,869.00 827.00,869.00 827.00,869.00
             827.00,869.00 828.00,870.00 828.00,870.00
             828.00,870.00 828.00,869.00 828.00,869.00 Z
           M 530.00,870.00
           C 530.00,870.00 529.00,870.00 529.00,870.00
             529.00,870.00 530.00,871.00 530.00,871.00
             530.00,871.00 530.00,870.00 530.00,870.00 Z
           M 894.00,870.00
           C 894.00,870.00 893.00,870.00 893.00,870.00
             893.00,870.00 894.00,871.00 894.00,871.00
             894.00,871.00 894.00,870.00 894.00,870.00 Z
           M 485.00,871.00
           C 485.00,871.00 484.00,871.00 484.00,871.00
             484.00,871.00 485.00,872.00 485.00,872.00
             485.00,872.00 485.00,871.00 485.00,871.00 Z
           M 517.00,871.00
           C 517.00,871.00 516.00,871.00 516.00,871.00
             516.00,871.00 517.00,872.00 517.00,872.00
             517.00,872.00 517.00,871.00 517.00,871.00 Z
           M 848.00,871.00
           C 848.00,871.00 847.00,871.00 847.00,871.00
             847.00,871.00 848.00,872.00 848.00,872.00
             848.00,872.00 848.00,871.00 848.00,871.00 Z
           M 335.00,900.00
           C 353.47,911.55 372.47,922.42 393.00,929.95
             416.87,938.70 451.60,945.88 477.00,946.00
             477.00,946.00 487.00,946.66 487.00,946.66
             487.00,946.66 497.00,946.00 497.00,946.00
             497.00,946.00 503.00,946.00 503.00,946.00
             517.28,945.83 549.81,939.52 564.00,935.58
             579.42,931.29 594.59,925.72 609.00,918.74
             609.00,918.74 627.00,909.74 627.00,909.74
             627.00,909.74 636.00,905.00 636.00,905.00
             636.00,907.75 636.16,911.36 635.36,913.96
             633.34,920.44 626.77,925.99 620.00,926.00
             617.07,930.56 606.35,935.52 601.00,935.00
             598.86,938.24 597.75,938.20 594.00,938.00
             591.21,941.36 585.25,943.44 581.00,943.00
             577.79,947.19 570.37,947.89 565.42,948.96
             565.42,948.96 556.00,952.10 556.00,952.10
             556.00,952.10 535.83,956.14 535.83,956.14
             525.29,958.20 509.68,959.98 499.00,960.00
             499.00,960.00 485.00,960.82 485.00,960.82
             454.89,958.68 438.83,957.93 409.00,949.42
             399.13,946.60 389.38,942.95 380.00,938.77
             376.18,937.06 372.36,936.50 370.00,933.00
             370.00,933.00 368.00,934.00 368.00,934.00
             368.00,934.00 368.00,932.00 368.00,932.00
             368.00,932.00 364.00,930.00 364.00,930.00
             357.49,929.44 355.49,925.64 351.56,921.00
             344.72,912.91 340.89,909.41 335.00,900.00 Z
           M 1026.00,902.00
           C 1026.00,902.00 1021.58,911.00 1021.58,911.00
             1021.58,911.00 1004.91,928.96 1004.91,928.96
             1004.91,928.96 1000.00,930.00 1000.00,930.00
             998.05,932.96 997.49,932.97 994.00,933.00
             991.58,936.76 989.31,937.24 985.00,937.00
             982.91,940.06 980.36,940.52 977.00,941.87
             971.28,944.17 960.95,948.61 955.00,948.00
             952.53,950.98 950.60,950.57 947.00,950.00
             945.84,953.52 941.96,952.70 939.00,952.00
             936.53,955.00 932.72,955.10 929.00,955.75
             929.00,955.75 907.00,958.98 907.00,958.98
             874.44,961.14 860.20,961.28 827.72,955.90
             827.72,955.90 808.00,951.87 808.00,951.87
             804.53,951.01 801.34,950.85 799.00,948.00
             793.87,948.67 784.99,946.46 782.00,942.00
             777.27,942.85 768.70,940.14 766.00,936.00
             761.05,936.51 754.76,934.29 752.00,930.00
             747.72,930.00 745.73,928.67 742.00,926.74
             730.04,920.55 729.11,916.38 728.00,904.00
             728.00,904.00 737.00,909.65 737.00,909.65
             737.00,909.65 749.00,915.75 749.00,915.75
             763.95,923.18 783.94,931.00 800.00,935.57
             800.00,935.57 817.00,939.42 817.00,939.42
             830.55,942.42 849.24,945.98 863.00,946.16
             863.00,946.16 876.00,946.16 876.00,946.16
             876.00,946.16 888.00,946.16 888.00,946.16
             901.70,945.98 915.61,944.05 929.00,941.21
             929.00,941.21 954.00,935.57 954.00,935.57
             979.06,928.42 1004.34,916.43 1026.00,902.00 Z
           M 635.00,903.00
           C 635.00,903.00 636.00,903.00 636.00,903.00
             636.00,903.00 635.00,904.00 635.00,904.00
             635.00,904.00 635.00,903.00 635.00,903.00 Z
           M 635.00,913.00
           C 635.00,913.00 634.00,913.00 634.00,913.00
             634.00,913.00 635.00,914.00 635.00,914.00
             635.00,914.00 635.00,913.00 635.00,913.00 Z
           M 759.00,933.00
           C 759.00,933.00 758.00,933.00 758.00,933.00
             758.00,933.00 759.00,934.00 759.00,934.00
             759.00,934.00 759.00,933.00 759.00,933.00 Z
           M 373.00,934.00
           C 373.00,934.00 372.00,934.00 372.00,934.00
             372.00,934.00 373.00,935.00 373.00,935.00
             373.00,935.00 373.00,934.00 373.00,934.00 Z
           M 390.00,941.00
           C 390.00,941.00 389.00,941.00 389.00,941.00
             389.00,941.00 390.00,942.00 390.00,942.00
             390.00,942.00 390.00,941.00 390.00,941.00 Z
           M 414.00,949.00
           C 414.00,949.00 413.00,949.00 413.00,949.00
             413.00,949.00 414.00,950.00 414.00,950.00
             414.00,950.00 414.00,949.00 414.00,949.00 Z
           M 421.00,951.00
           C 421.00,951.00 420.00,951.00 420.00,951.00
             420.00,951.00 421.00,952.00 421.00,952.00
             421.00,952.00 421.00,951.00 421.00,951.00 Z
           M 440.00,1024.00
           C 440.00,1024.00 459.00,1028.58 459.00,1028.58
             469.76,1030.95 491.20,1033.98 502.00,1034.00
             502.00,1034.00 522.00,1034.00 522.00,1034.00
             547.83,1033.96 582.47,1025.74 607.00,1017.48
             616.12,1014.41 629.58,1008.37 638.00,1003.69
             643.88,1000.42 645.44,997.52 652.00,995.00
             649.76,1000.17 641.29,1015.33 636.83,1018.02
             635.12,1019.05 634.76,1018.81 633.00,1019.00
             630.64,1022.55 627.75,1022.96 624.00,1024.56
             617.50,1027.33 608.11,1032.88 601.00,1032.00
             601.00,1032.00 598.00,1033.00 598.00,1033.00
             595.45,1036.10 590.65,1036.63 586.91,1037.78
             576.36,1041.01 564.96,1043.26 554.00,1044.47
             554.00,1044.47 538.00,1046.96 538.00,1046.96
             523.61,1048.20 509.41,1048.03 495.00,1046.96
             487.14,1046.57 477.52,1046.67 470.00,1044.20
             465.65,1042.78 460.86,1038.93 457.00,1036.35
             451.55,1032.72 444.39,1028.74 440.00,1024.00 Z
           M 711.00,995.00
           C 711.00,995.00 730.00,1005.69 730.00,1005.69
             738.60,1010.34 747.79,1014.04 757.00,1017.31
             810.72,1036.41 869.04,1039.93 924.00,1024.00
             919.44,1029.39 910.16,1035.05 904.00,1038.80
             901.19,1040.50 896.43,1043.61 893.42,1044.45
             884.82,1046.85 857.87,1048.01 848.00,1048.00
             848.00,1048.00 834.00,1047.08 834.00,1047.08
             809.26,1045.70 785.53,1040.56 762.00,1033.05
             754.03,1030.51 732.26,1022.27 726.51,1017.28
             722.71,1013.98 713.61,999.88 711.00,995.00 Z
           M 741.00,1023.00
           C 741.00,1023.00 740.00,1023.00 740.00,1023.00
             740.00,1023.00 741.00,1024.00 741.00,1024.00
             741.00,1024.00 741.00,1023.00 741.00,1023.00 Z
           M 438.00,1023.00
           C 438.00,1023.00 439.00,1023.00 439.00,1023.00
             439.00,1023.00 438.00,1024.00 438.00,1024.00
             438.00,1024.00 438.00,1023.00 438.00,1023.00 Z
           M 681.00,1027.00
           C 681.00,1027.00 692.61,1041.00 692.61,1041.00
             692.61,1041.00 714.00,1063.71 714.00,1063.71
             714.00,1063.71 743.00,1085.80 743.00,1085.80
             743.00,1085.80 759.00,1096.00 759.00,1096.00
             759.00,1096.00 714.00,1101.00 714.00,1101.00
             714.00,1101.00 697.00,1102.00 697.00,1102.00
             697.00,1102.00 667.00,1102.00 667.00,1102.00
             667.00,1102.00 655.00,1101.04 655.00,1101.04
             655.00,1101.04 644.00,1101.04 644.00,1101.04
             637.27,1100.92 611.53,1097.55 606.00,1095.00
             638.94,1076.03 658.94,1058.16 681.00,1027.00 Z
           M 610.00,1029.00
           C 610.00,1029.00 609.00,1029.00 609.00,1029.00
             609.00,1029.00 610.00,1030.00 610.00,1030.00
             610.00,1030.00 610.00,1029.00 610.00,1029.00 Z" />
    <path id="Selection #2"
        fill="#41b9ef" stroke="none" stroke-width="1"
        d="M 306.00,809.00
           C 306.00,809.00 327.00,826.26 327.00,826.26
             340.85,836.27 351.16,840.85 366.00,848.27
             366.00,848.27 375.00,853.05 375.00,853.05
             375.00,853.05 399.00,859.42 399.00,859.42
             434.62,869.83 468.89,875.06 506.00,875.00
             506.00,875.00 518.00,874.09 518.00,874.09
             540.42,872.55 562.58,869.31 583.00,859.24
             594.68,853.48 606.96,844.02 612.68,832.00
             615.04,827.02 617.09,818.49 616.56,813.00
             616.47,810.28 615.97,808.98 616.56,806.00
             616.40,802.88 617.07,801.51 616.56,798.00
             615.23,776.18 596.76,757.33 580.00,745.16
             568.62,736.90 556.24,729.74 546.00,719.96
             521.57,696.63 501.03,666.25 490.52,634.00
             490.52,634.00 484.80,610.00 484.80,610.00
             482.87,600.36 480.89,586.74 481.00,577.00
             481.26,554.05 489.53,521.51 499.75,501.00
             515.23,469.97 533.22,446.48 561.00,425.24
             615.60,383.49 688.86,374.10 753.00,397.44
             768.05,402.91 782.72,411.48 796.00,420.33
             815.13,433.09 832.02,449.18 845.28,468.00
             850.30,475.12 855.42,482.29 859.51,490.00
             872.33,514.13 881.10,543.78 883.09,571.00
             883.09,571.00 883.97,580.00 883.97,580.00
             883.97,580.00 883.17,588.00 883.17,588.00
             880.49,614.79 872.39,643.16 859.68,667.00
             854.65,676.43 840.74,695.79 833.70,704.00
             826.58,712.31 812.92,725.10 804.00,731.58
             783.43,746.51 760.04,759.76 750.71,785.00
             746.23,797.12 748.89,802.59 748.26,809.00
             748.26,809.00 748.26,817.00 748.26,817.00
             748.75,834.68 763.09,849.66 778.00,857.24
             801.27,869.08 820.31,872.32 846.00,874.09
             846.00,874.09 858.00,875.00 858.00,875.00
             895.92,875.06 930.70,869.91 967.00,858.88
             967.00,858.88 989.00,853.05 989.00,853.05
             989.00,853.05 998.00,848.32 998.00,848.32
             1012.01,841.66 1025.42,835.07 1038.00,825.85
             1038.00,825.85 1058.00,809.00 1058.00,809.00
             1056.10,814.15 1053.66,817.48 1050.67,822.00
             1039.06,839.52 1025.49,852.99 1008.00,864.67
             997.44,871.72 987.62,878.37 976.00,883.69
             951.12,895.08 912.38,904.96 885.00,905.00
             885.00,905.00 868.00,905.00 868.00,905.00
             839.67,904.96 809.40,895.93 783.00,886.31
             783.00,886.31 762.00,876.74 762.00,876.74
             757.19,874.26 753.61,871.49 748.00,871.10
             736.88,870.32 726.88,878.83 726.10,890.00
             726.10,890.00 726.68,901.00 726.68,901.00
             726.28,906.26 725.09,909.73 727.36,915.00
             730.82,923.01 737.66,926.57 745.00,930.25
             757.61,936.57 774.60,943.43 788.00,948.00
             839.44,965.52 893.39,967.26 946.00,954.11
             965.87,949.14 981.41,941.89 1000.00,934.00
             995.70,939.95 989.81,944.01 984.00,948.37
             969.41,959.33 965.27,962.17 949.00,970.25
             885.62,1001.72 808.82,1000.21 746.00,967.74
             732.63,960.83 716.93,947.76 707.67,936.00
             700.25,926.59 696.34,913.13 682.00,913.08
             667.50,913.03 662.65,926.13 655.26,936.00
             647.52,946.32 631.46,961.02 620.00,966.88
             555.89,999.64 479.89,1002.61 415.00,970.25
             400.29,962.91 390.88,956.90 378.00,946.60
             373.12,942.69 367.86,938.95 364.00,934.00
             388.78,943.91 401.07,950.18 428.00,956.35
             475.96,967.34 531.65,964.11 578.00,947.41
             590.85,942.78 610.35,935.35 622.00,928.86
             628.79,925.08 634.14,922.69 637.70,915.00
             640.09,908.95 638.54,906.69 637.70,901.00
             637.48,896.86 639.20,894.42 638.88,890.00
             638.30,881.95 630.82,873.42 623.00,871.53
             611.17,868.68 594.42,881.42 583.00,885.68
             556.34,895.63 524.63,904.96 496.00,905.00
             496.00,905.00 479.00,905.00 479.00,905.00
             451.29,904.96 408.74,894.00 384.00,881.63
             369.53,874.40 349.75,861.03 338.00,850.02
             327.46,840.15 311.00,822.55 306.00,809.00 Z
           M 598.00,582.32
           C 587.22,584.74 577.44,590.88 572.38,601.00
             569.77,606.21 569.00,612.25 569.00,618.00
             569.00,622.75 569.70,629.61 571.48,634.00
             576.45,646.25 589.96,654.84 603.00,655.00
             613.42,655.12 620.39,654.37 629.00,647.61
             651.86,629.66 646.06,594.55 619.00,583.93
             612.95,581.55 604.43,581.62 598.00,582.32 Z
           M 751.00,582.32
           C 734.50,586.03 719.89,601.16 721.18,619.00
             722.57,638.18 735.79,654.75 756.00,655.00
             764.52,655.10 770.43,655.22 778.00,650.44
             804.49,633.74 801.36,595.45 772.00,583.93
             765.95,581.55 757.43,581.62 751.00,582.32 Z
           M 631.00,1023.00
           C 629.93,1027.07 625.96,1030.10 623.00,1032.99
             615.75,1040.06 607.60,1046.22 599.00,1051.58
             580.62,1063.02 557.99,1073.25 536.00,1073.00
             522.59,1072.84 508.90,1065.20 497.00,1059.25
             497.00,1059.25 475.00,1047.00 475.00,1047.00
             475.00,1047.00 495.00,1049.00 495.00,1049.00
             495.00,1049.00 528.00,1049.00 528.00,1049.00
             528.00,1049.00 554.00,1046.28 554.00,1046.28
             579.96,1043.05 608.10,1036.03 631.00,1023.00 Z
           M 732.00,1023.00
           C 763.60,1036.59 776.58,1041.56 811.00,1046.42
             819.38,1047.61 828.56,1048.99 837.00,1049.00
             837.00,1049.00 869.00,1049.00 869.00,1049.00
             874.27,1048.99 885.46,1046.99 889.00,1048.00
             889.00,1048.00 841.00,1071.22 841.00,1071.22
             835.93,1072.71 830.25,1073.06 825.00,1073.00
             800.03,1072.71 765.13,1054.37 747.00,1037.93
             741.50,1032.94 736.37,1029.10 732.00,1023.00 Z" />
  <path id="Selection #3"
        fill="#86cff4" stroke="none" stroke-width="1"
        d="M 369.00,400.00
           C 373.45,393.79 385.07,382.93 391.00,377.00
             415.81,352.19 445.39,331.11 476.00,314.14
             476.00,314.14 519.00,292.43 519.00,292.43
             519.00,292.43 537.00,285.95 537.00,285.95
             569.08,274.22 598.96,266.24 633.00,262.83
             633.00,262.83 667.00,260.00 667.00,260.00
             693.66,259.96 720.60,260.28 747.00,264.44
             848.06,280.37 941.40,334.58 1006.75,413.00
             1054.17,469.90 1085.27,537.87 1097.25,611.00
             1097.25,611.00 1102.00,650.00 1102.00,650.00
             1102.00,650.00 1102.00,659.00 1102.00,659.00
             1102.51,665.15 1104.30,674.20 1102.00,680.00
             1101.91,670.48 1099.15,657.59 1097.42,648.00
             1091.42,614.70 1084.56,595.20 1072.20,564.00
             1014.45,418.21 874.35,311.40 719.00,292.72
             719.00,292.72 686.00,289.91 686.00,289.91
             686.00,289.91 676.00,289.00 676.00,289.00
             593.27,288.04 520.70,304.53 448.00,344.86
             430.32,354.67 413.19,365.77 397.00,377.89
             397.00,377.89 369.00,400.00 369.00,400.00 Z
           M 584.00,408.00
           C 584.00,408.00 585.00,408.00 585.00,408.00
             585.00,408.00 584.00,409.00 584.00,409.00
             584.00,409.00 584.00,408.00 584.00,408.00 Z
           M 804.00,424.00
           C 804.00,424.00 805.00,424.00 805.00,424.00
             805.00,424.00 804.00,425.00 804.00,425.00
             804.00,425.00 804.00,424.00 804.00,424.00 Z
           M 525.00,457.00
           C 525.00,457.00 526.00,457.00 526.00,457.00
             526.00,457.00 525.00,458.00 525.00,458.00
             525.00,458.00 525.00,457.00 525.00,457.00 Z
           M 880.00,543.00
           C 880.00,543.00 881.00,543.00 881.00,543.00
             881.00,543.00 880.00,544.00 880.00,544.00
             880.00,544.00 880.00,543.00 880.00,543.00 Z
           M 483.00,544.00
           C 483.00,544.00 484.00,544.00 484.00,544.00
             484.00,544.00 483.00,545.00 483.00,545.00
             483.00,545.00 483.00,544.00 483.00,544.00 Z
           M 518.00,959.00
           C 518.00,959.00 519.00,959.00 519.00,959.00
             519.00,959.00 518.00,960.00 518.00,960.00
             518.00,960.00 518.00,959.00 518.00,959.00 Z
           M 897.00,960.00
           C 897.00,960.00 898.00,960.00 898.00,960.00
             898.00,960.00 897.00,961.00 897.00,961.00
             897.00,961.00 897.00,960.00 897.00,960.00 Z
           M 730.00,1020.00
           C 730.00,1020.00 731.00,1020.00 731.00,1020.00
             731.00,1020.00 730.00,1021.00 730.00,1021.00
             730.00,1021.00 730.00,1020.00 730.00,1020.00 Z
           M 820.00,1046.00
           C 820.00,1046.00 821.00,1046.00 821.00,1046.00
             821.00,1046.00 820.00,1047.00 820.00,1047.00
             820.00,1047.00 820.00,1046.00 820.00,1046.00 Z
           M 830.00,1047.00
           C 830.00,1047.00 831.00,1047.00 831.00,1047.00
             831.00,1047.00 830.00,1048.00 830.00,1048.00
             830.00,1048.00 830.00,1047.00 830.00,1047.00 Z" />
</svg>
